<?xml version="1.0" standalone="no"?><!DOCTYPE svg PUBLIC "-//W3C//DTD SVG 1.1//EN" "http://www.w3.org/Graphics/SVG/1.1/DTD/svg11.dtd"><svg t="1676017931417" class="icon" viewBox="0 0 1024 1024" version="1.1" xmlns="http://www.w3.org/2000/svg" p-id="9207" xmlns:xlink="http://www.w3.org/1999/xlink" width="48" height="48"><path d="M80.457661 0.000563A81.301054 81.301054 0 0 0 0.000563 80.457661V393.8465a81.301054 81.301054 0 0 0 80.457098 81.582373H393.8465a81.301054 81.301054 0 0 0 81.582373-81.582373V80.457661A81.301054 81.301054 0 0 0 393.8465 0.000563z m0 548.571127A81.301054 81.301054 0 0 0 0.000563 629.028788v314.514113a81.301054 81.301054 0 0 0 80.457098 80.457099H393.8465a81.301054 81.301054 0 0 0 80.457099-80.457099V629.028788A81.301054 81.301054 0 0 0 393.8465 548.57169zM629.028788 0.000563a81.301054 81.301054 0 0 0-80.457098 80.457098V393.8465a81.301054 81.301054 0 0 0 80.457098 80.457099h314.514113A81.301054 81.301054 0 0 0 1024 393.8465V80.457661A81.301054 81.301054 0 0 0 943.542901 0.000563z m0 548.571127a81.301054 81.301054 0 0 0-80.457098 80.457098v314.514113a81.301054 81.301054 0 0 0 80.457098 80.457099h314.514113a81.301054 81.301054 0 0 0 80.457099-80.457099V629.028788a81.301054 81.301054 0 0 0-80.457099-80.457098z" fill="#2463EB" p-id="9208"></path></svg>