<svg xml:space="preserve" style="enable-background:new 0 0 1200 1200;" viewBox="0 0 1200 1200" y="0px" x="0px" xmlns:xlink="http://www.w3.org/1999/xlink" xmlns="http://www.w3.org/2000/svg" id="图层_1" version="1.1">
<style type="text/css">
	.st0{fill:#682727;}
	.st1{fill:#401C17;}
	.st2{fill:#75614E;}
	.st3{fill:#CCCA7A;}
	.st4{fill:#E5DEA8;}
	.st5{fill:#F2EED7;}
	.st6{fill:#75B9AC;}
	.st7{fill:#E5DB80;}
	.st8{fill:#FCF0E6;}
	.st9{fill:#FFFFFF;stroke:#75614E;stroke-width:16;stroke-miterlimit:10;}
	.st10{fill:#DD725E;}
	.st11{fill:#75614E;stroke:#DD725E;stroke-width:20;stroke-linecap:round;stroke-miterlimit:10;}
</style>
<g>
	<g>
		<circle r="600" cy="600" cx="600" class="st0"></circle>
		<circle r="570" cy="600" cx="600" class="st1"></circle>
		<circle r="546.61" cy="600" cx="600" class="st2"></circle>
		<circle r="530.35" cy="600" cx="600" class="st3"></circle>
		<circle r="500" cy="600" cx="600" class="st4"></circle>
		<circle r="460" cy="600" cx="600" class="st5"></circle>
		<circle r="395" cy="600" cx="600" class="st1"></circle>
		<circle r="380" cy="600" cx="600" class="st6"></circle>
		<circle r="363.77" cy="600" cx="600" class="st5"></circle>
		<circle r="335" cy="600" cx="600" class="st1"></circle>
		<circle r="320" cy="600" cx="600" class="st6"></circle>
		<g>
			<g>
				<path d="M794.72,568.08c0,75.49-87.18,136.69-194.72,136.69s-194.72-61.2-194.72-136.69S492.46,376.63,600,376.63
					S794.72,492.59,794.72,568.08z" class="st7"></path>
				<path d="M600,714.33c-53.96,0-104.81-14.83-143.18-41.77c-18.98-13.32-33.93-28.91-44.43-46.34
					c-11.06-18.36-16.67-37.92-16.67-58.14c0-40.44,22.82-90.44,59.55-130.5c19.13-20.86,41.45-38.2,64.55-50.15
					c26.13-13.51,53.1-20.37,80.19-20.37s54.06,6.85,80.19,20.37c23.1,11.95,45.42,29.29,64.55,50.15
					c36.73,40.05,59.55,90.06,59.55,130.5c0,20.22-5.61,39.78-16.67,58.14c-10.5,17.43-25.45,33.02-44.43,46.34
					C704.81,699.5,653.96,714.33,600,714.33z M600,386.2c-62.35,0-108.61,40.29-130.63,64.31c-33.12,36.11-54.52,82.26-54.52,117.57
					c0,33.3,18.81,64.85,52.96,88.82c35.18,24.7,82.13,38.3,132.19,38.3s97.01-13.6,132.19-38.3
					c34.15-23.97,52.96-55.52,52.96-88.82c0-35.31-21.4-81.45-54.51-117.57C708.61,426.49,662.35,386.2,600,386.2z" class="st2"></path>
			</g>
			<g>
				<path d="M943.95,787.52c0,180.17-153.99,326.22-343.95,326.22S256.05,967.68,256.05,787.52
					S337.03,499.56,600,499.56C868.93,499.56,943.95,607.35,943.95,787.52z" class="st7"></path>
				<path d="M600,1123.3c-47.66,0-93.9-8.86-137.44-26.32c-42.08-16.88-79.88-41.06-112.35-71.85
					c-32.5-30.83-58.03-66.74-75.87-106.74c-18.49-41.45-27.86-85.48-27.86-130.88c0-48.29,5.64-88.85,17.24-124
					c6.15-18.63,14.12-35.9,23.68-51.33c9.89-15.96,21.83-30.5,35.48-43.21C379.96,515.83,470.6,490,600,490
					c67.5,0,123.06,6.55,169.85,20.03c45.59,13.13,81.42,32.43,109.55,59c26.67,25.19,45.56,56.13,57.75,94.6
					c11.02,34.75,16.37,75.27,16.37,123.89c0,45.39-9.37,89.42-27.86,130.88c-17.84,40-43.36,75.91-75.87,106.74
					c-32.47,30.79-70.27,54.97-112.35,71.85C693.9,1114.44,647.66,1123.3,600,1123.3z M600,509.13
					c-124.33,0-210.71,24.16-264.07,73.85c-47.97,44.68-70.32,109.67-70.32,204.54c0,174.6,150.01,316.65,334.39,316.65
					s334.39-142.05,334.39-316.65c0-95.67-21.65-160.68-68.13-204.58C813.68,533.27,726.59,509.13,600,509.13z" class="st2"></path>
			</g>
			<g>
				<path d="M946.19,881.98c0-34.92,37.9-114.32,0-114.8c-21.75-0.27-36.13,19.3-44.43,36.04
					c-27.29-102.61-88.2-187.3-143.58-194.6c-127.44-16.8-153.28,32.77-157.69,45.12c-0.16,0.44-0.82,0.44-0.98,0
					c-4.41-12.35-30.25-61.92-157.69-45.12c-55.37,7.3-116.29,91.99-143.58,194.6c-8.3-16.73-22.67-36.31-44.43-36.04
					c-37.9,0.48,0,79.88,0,114.8s-81.4,89.45-51.69,147.32c27.85,54.23,97.36,10.57,91.26-36.84
					c27.27,106.16,115.04,193.84,306.29,197.78v0.01c0.11,0,0.21-0.01,0.32-0.01c0.11,0,0.21,0.01,0.32,0.01v-0.01
					c191.25-3.95,279.02-91.62,306.29-197.78c-6.09,47.41,63.41,91.08,91.26,36.84C1027.59,971.43,946.19,916.9,946.19,881.98z" class="st8"></path>
				<path d="M590.11,1200v-0.45c-87.18-3.09-158.02-23.97-210.68-62.12c-24.64-17.85-45.36-39.59-61.6-64.63
					c-8.89-13.71-16.49-28.5-22.74-44.19c-1.28,2.27-2.71,4.5-4.28,6.67c-8.94,12.36-21.92,21.89-35.62,26.15
					c-11.71,3.64-23.4,3.36-33.8-0.8c-11.48-4.59-21.08-13.91-27.78-26.95c-9.63-18.76-10.13-38.67-1.5-60.84
					c7.05-18.13,19.25-35.13,30.01-50.12c11.37-15.85,22.12-30.81,22.12-40.73c0-10.12-3.95-25.99-7.76-41.34
					c-7.49-30.15-14.57-58.64-2.87-73.8c3.19-4.13,9.26-9.09,20.08-9.23c15.59-0.21,29.62,7.47,41.35,22.38
					c13.73-43.36,33.52-83.76,56.74-115.47c13.52-18.47,27.75-33.43,42.3-44.47c15.65-11.88,31.29-18.92,46.49-20.92
					c56.11-7.4,100.06-3.15,130.62,12.61c14.06,7.25,23.08,15.91,28.81,23.46c5.73-7.55,14.75-16.2,28.81-23.46
					c30.56-15.76,74.5-20.01,130.62-12.61c15.2,2,30.84,9.04,46.49,20.92c14.54,11.04,28.78,26,42.3,44.47
					c23.22,31.71,43.01,72.12,56.74,115.47c11.73-14.91,25.78-22.6,41.35-22.38c10.82,0.14,16.89,5.09,20.08,9.23
					c11.7,15.16,4.62,43.64-2.87,73.8c-3.82,15.35-7.76,31.22-7.76,41.34c0,9.92,10.74,24.89,22.12,40.73
					c10.76,14.99,22.96,31.99,30.01,50.12c8.62,22.18,8.13,42.08-1.5,60.84c-6.7,13.04-16.3,22.36-27.78,26.95
					c-10.4,4.16-22.08,4.44-33.8,0.8c-13.7-4.25-26.68-13.78-35.62-26.15c-1.57-2.17-3-4.4-4.28-6.67
					c-6.24,15.7-13.84,30.48-22.74,44.19c-16.24,25.04-36.96,46.78-61.6,64.63c-52.66,38.15-123.5,59.03-210.68,62.12v0.43
					l-9.89-0.16l-0.16,0L590.11,1200z M302.66,990.09c21.73,84.6,90.93,186.34,297.22,190.6l0.13,0l0.12,0
					c206.28-4.26,275.49-106,297.22-190.6l18.75,3.6c-2.87,22.32,15.46,43.6,34.39,49.47c9.51,2.95,27.2,4.51,38.88-18.22
					c7.09-13.8,7.31-28.15,0.69-45.17c-6.17-15.88-17.13-31.14-27.72-45.9c-13.79-19.22-25.71-35.81-25.71-51.89
					c0-12.46,4.04-28.73,8.33-45.95c3.2-12.88,6.51-26.2,7.87-37.29c1.67-13.63-0.27-18.51-1.58-20.21
					c-0.4-0.52-1.34-1.74-5.17-1.78c-0.11,0-0.21,0-0.32,0c-16.67,0-28.46,16.68-35.42,30.73l-11.29,22.75l-6.53-24.55
					c-13-48.88-34.21-95-59.73-129.85c-24.94-34.07-51.88-54.57-75.85-57.73c-121.4-16-144.11,29.56-147.43,38.85
					c-1.43,3.99-5.24,6.68-9.5,6.68s-8.07-2.68-9.5-6.68c-3.32-9.3-26.02-54.85-147.43-38.85c-23.97,3.16-50.91,23.66-75.85,57.73
					c-25.52,34.85-46.73,80.97-59.73,129.85l-6.53,24.55l-11.29-22.75c-6.97-14.04-18.75-30.73-35.42-30.73c-0.11,0-0.21,0-0.32,0
					c-3.83,0.05-4.77,1.27-5.17,1.78c-1.31,1.7-3.25,6.58-1.58,20.21c1.36,11.09,4.67,24.41,7.87,37.29
					c4.28,17.22,8.33,33.49,8.33,45.95c0,16.08-11.91,32.67-25.71,51.89c-10.6,14.76-21.55,30.02-27.73,45.9
					c-6.62,17.01-6.4,31.36,0.69,45.17c11.67,22.73,29.37,21.17,38.88,18.22c18.92-5.88,37.25-27.16,34.39-49.47L302.66,990.09z" class="st2"></path>
			</g>
			<g>
				<g>
					<path d="M293.41,992.47c0,0-5.46-22.95-3.91-37.78" class="st8"></path>
					<path d="M284.1,994.68c-0.19-0.79-3.71-15.77-4.34-30.04c-0.26-5.81,4.76-10.47,10.55-9.87h0
						c4.7,0.49,8.35,4.33,8.56,9.05c0.45,10.09,2.75,21.82,3.85,26.43L284.1,994.68z" class="st2"></path>
				</g>
				<g>
					<path d="M906.59,992.47c0,0,5.46-22.95,3.91-37.78" class="st8"></path>
					<path d="M915.9,994.68l-18.61-4.42c0,0,0,0,0,0l0,0c1.09-4.62,3.39-16.36,3.85-26.43
						c0.21-4.72,3.86-8.56,8.56-9.05l0,0c5.79-0.6,10.81,4.06,10.55,9.87C919.61,978.91,916.09,993.89,915.9,994.68z" class="st2"></path>
				</g>
			</g>
		</g>
		<circle r="19" cy="564.19" cx="600" class="st9"></circle>
		<g>
			<circle r="19" cy="1004.19" cx="242" class="st9"></circle>
			<circle r="19" cy="1004.19" cx="958" class="st9"></circle>
		</g>
	</g>
	<g>
		<g>
			<g>
				<path d="M504.9,847.8c-1.98,0-3.89-1.1-4.83-3c-0.02-0.03-3.12-6.05-10.97-12.72
					c-7.25-6.16-20.18-14.18-40.59-17.36c-27.99-4.36-53.78,0.18-70.48,4.76c-18.23,5-29.93,11.13-30.05,11.19
					c-2.62,1.39-5.88,0.39-7.27-2.24c-1.39-2.62-0.39-5.88,2.23-7.27c0.51-0.27,12.65-6.66,31.93-11.97
					c17.79-4.91,45.29-9.77,75.29-5.1c44.8,6.98,58.97,34.77,59.55,35.95c1.31,2.66,0.22,5.89-2.45,7.2
					C506.51,847.62,505.7,847.79,504.9,847.8z" class="st2"></path>
				<path d="M695.1,847.8c-0.8,0-1.61-0.18-2.37-0.56c-2.66-1.31-3.76-4.54-2.45-7.2c0.58-1.18,14.76-28.97,59.55-35.95
					c30-4.67,57.5,0.19,75.29,5.1c19.28,5.32,31.42,11.71,31.93,11.97c2.62,1.39,3.62,4.65,2.23,7.27
					c-1.39,2.62-4.65,3.62-7.27,2.23c-0.2-0.11-11.88-6.21-30.04-11.19c-16.7-4.58-42.48-9.12-70.48-4.76
					c-39.34,6.13-51.44,29.84-51.56,30.08C698.99,846.69,697.08,847.79,695.1,847.8z" class="st2"></path>
			</g>
			<g>
				<g>
					<path d="M493.94,932.42c-0.05,0-0.11,0-0.16,0c-4.28-0.08-7.37-3-11.65-7.05c-7.52-7.13-20.11-19.05-45.48-22.15
						c-45.66-5.58-67.69-18.9-86.44-40.46c-0.37-0.42-0.69-0.87-0.95-1.35c-0.03-0.06-0.06-0.11-0.07-0.15
						c-0.94-2.23-0.64-4.43,1.63-5.8c2.23-1.35,5.36-0.41,6.89,1.54c0.87,1.03,23.65,27.36,73.82,32.01
						c19.38,1.79,36.43,6.24,49.3,12.86c10.44,5.37,17.9,12.05,20.45,18.34c1.64,4.05,1.03,7.74-1.69,10.11
						C497.58,932.03,495.44,932.42,493.94,932.42z M357.72,857.02C357.72,857.02,357.73,857.02,357.72,857.02
						c0.02,0.03,0.04,0.05,0.06,0.08C357.76,857.07,357.74,857.04,357.72,857.02z" class="st2"></path>
				</g>
				<g>
					<path d="M700.43,930.3c-2.72-2.37-3.34-6.06-1.69-10.11c2.55-6.28,10-12.97,20.45-18.34
						c12.87-6.62,29.92-11.06,49.3-12.86c50.17-4.65,72.96-30.98,73.82-32.01c1.52-1.95,4.66-2.89,6.89-1.54
						c2.27,1.37,2.57,3.57,1.63,5.8c-0.02,0.04-0.04,0.09-0.07,0.15c-0.26,0.48-0.58,0.93-0.95,1.35
						c-18.75,21.56-40.78,34.88-86.44,40.46c-25.37,3.1-37.96,15.03-45.48,22.15c-4.28,4.05-7.37,6.98-11.65,7.05
						c-0.05,0-0.11,0-0.16,0C704.56,932.42,702.42,932.03,700.43,930.3z M842.22,857.09c0.02-0.02,0.04-0.05,0.06-0.07c0,0,0,0,0,0
						C842.26,857.04,842.24,857.07,842.22,857.09z" class="st2"></path>
				</g>
			</g>
		</g>
		<path d="M579.72,1116.88c1.94,8.2,12.38,13.41,20.74,13.41c8.28,0,19.35-4.72,20.59-13.17l1.2-13.55l-44.5,0.98
			L579.72,1116.88z" class="st10"></path>
		<ellipse ry="13.45" rx="3.67" cy="818.23" cx="600" class="st11"></ellipse>
		<g>
			<path d="M622.2,1087.11c-9.73-0.39-17.17,6.67-20.42,10.43c-0.94,1.09-2.63,1.09-3.57,0
				c-3.25-3.75-10.68-10.82-20.42-10.43c-11.73,0.47-15.96,10.1-16.77,12.26c-0.1,0.27-0.15,0.54-0.15,0.83l0,0
				c0,0.75,0.35,1.46,0.95,1.9c17.82,13.05,34.47,11.45,37.66,11.57c0.34,0.01,0.67,0.01,1.01,0c3.19-0.12,19.85,1.48,37.66-11.57
				c0.6-0.44,0.95-1.15,0.95-1.9l0,0c0-0.28-0.05-0.56-0.15-0.83C638.17,1097.21,633.93,1087.58,622.2,1087.11z" class="st10"></path>
			<path d="M643.55,1097.67c-2.66-7.16-9.62-14.98-21.16-15.44h0c-10.04-0.4-17.83,5.41-22.4,10.04
				c-4.57-4.63-12.35-10.44-22.4-10.04c-11.53,0.46-18.49,8.28-21.16,15.44c-0.3,0.81-0.46,1.66-0.46,2.53
				c0,2.31,1.1,4.49,2.95,5.84c5.32,3.89,10.55,6.58,15.41,8.43l0.55,3.18l0.07,0.35c2.54,10.75,14.96,17.17,25.49,17.17
				c9.5,0,23.67-5.38,25.43-17.35l0.31-3.57c4.7-1.84,9.74-4.47,14.86-8.22c1.85-1.35,2.95-3.54,2.95-5.84
				C644.01,1099.33,643.86,1098.48,643.55,1097.67z M600.46,1125.4c-5.76,0-12.89-3.27-15.31-7.89c5.98,1.11,10.65,1.07,13.08,1.04
				c0.46,0,0.82-0.01,1.07,0c0.23,0.01,0.47,0.01,0.7,0.01c0.23,0,0.46,0,0.69-0.01c0.26-0.01,0.62,0,1.07,0
				c2.59,0.03,7.7,0.07,14.24-1.27C614.5,1121.99,606.87,1125.4,600.46,1125.4z M601.87,1108.78c-0.62-0.01-1.12-0.01-1.55,0.01
				c-0.22,0.01-0.42,0.01-0.64,0c-0.22-0.01-0.45-0.01-0.71-0.01c-0.25,0-0.53,0-0.84,0.01c-4.44,0.05-17.6,0.18-31.73-9.44
				c1.48-2.77,4.84-7.07,11.59-7.34c7.82-0.32,14.16,6.01,16.52,8.74c1.38,1.59,3.38,2.51,5.48,2.51c2.11,0,4.1-0.91,5.48-2.51
				c2.36-2.73,8.7-9.04,16.52-8.74c6.75,0.27,10.12,4.57,11.59,7.34C619.46,1108.96,606.3,1108.82,601.87,1108.78z" class="st2"></path>
		</g>
	</g>
</g>
</svg>
