<svg xml:space="preserve" style="enable-background:new 0 0 1200 1200;" viewBox="0 0 1200 1200" y="0px" x="0px" xmlns:xlink="http://www.w3.org/1999/xlink" xmlns="http://www.w3.org/2000/svg" id="图层_1" version="1.1">
<style type="text/css">
	.st0{fill:#536B45;}
	.st1{fill:#ACB487;}
	.st2{fill:#E5DEA8;}
	.st3{fill:#F2EED7;}
	.st4{fill:#605855;}
	.st5{fill:#4A9183;}
	.st6{fill:#75B9AC;}
	.st7{fill:#542D28;}
	.st8{fill:#75614E;}
	.st9{fill:#304456;}
	.st10{fill:#FCF0E6;}
	.st11{fill:#E4E4ED;}
	.st12{fill:#D1C9C7;}
	.st13{fill:#DD725E;}
	.st14{fill:#75614E;stroke:#DD725E;stroke-width:20;stroke-linecap:round;stroke-miterlimit:10;}
</style>
<g>
	<g>
		<circle r="600" cy="600" cx="600" class="st0"></circle>
		<circle r="570" cy="600" cx="600" class="st1"></circle>
		<circle r="546.61" cy="600" cx="600" class="st2"></circle>
		<circle r="495" cy="600" cx="600" class="st3"></circle>
		<circle r="430" cy="600" cx="600" class="st4"></circle>
		<circle r="415" cy="600" cx="600" class="st3"></circle>
		<circle r="375" cy="600" cx="600" class="st5"></circle>
		<circle r="365" cy="600" cx="600" class="st6"></circle>
		<g>
			<g>
				<circle r="42.09" cy="270.92" cx="600" class="st7"></circle>
				<path d="M600,322.58c-28.49,0-51.66-23.17-51.66-51.66s23.17-51.66,51.66-51.66c28.49,0,51.66,23.17,51.66,51.66
					S628.49,322.58,600,322.58z M600,238.4c-17.93,0-32.53,14.59-32.53,32.53s14.59,32.53,32.53,32.53s32.53-14.59,32.53-32.53
					S617.93,238.4,600,238.4z" class="st8"></path>
			</g>
			<g>
				<circle r="42.09" cy="334.54" cx="600" class="st7"></circle>
				<path d="M600,386.2c-28.49,0-51.66-23.17-51.66-51.66s23.17-51.66,51.66-51.66c28.49,0,51.66,23.17,51.66,51.66
					S628.49,386.2,600,386.2z M600,302.01c-17.93,0-32.53,14.59-32.53,32.53c0,17.93,14.59,32.53,32.53,32.53
					s32.53-14.59,32.53-32.53C632.53,316.6,617.93,302.01,600,302.01z" class="st8"></path>
			</g>
			<g>
				<g>
					<path d="M599.98,413.1c0,75.49-63.41-15.42-141.62-15.42s-102.88,91.36-141.62,15.42
						c-34.31-67.24,63.41-120.65,141.62-120.65S599.98,337.61,599.98,413.1z" class="st9"></path>
					<path d="M349.06,452.86c-2.47,0-4.97-0.3-7.52-0.94c-12.32-3.12-22.91-14.07-33.32-34.47
						c-11.55-22.64-10.75-45.89,2.31-67.21c11.86-19.37,34.12-36.86,62.67-49.26c26.86-11.67,57.11-18.09,85.17-18.09
						c41.23,0,78.93,12.13,106.16,34.15c14.21,11.49,25.3,25.36,32.95,41.22c8.02,16.61,12.08,35.07,12.08,54.86
						c0,13.35-1.5,29.56-13.23,36.54c-13.64,8.12-31.44-1.53-53.98-13.74c-23.57-12.77-52.9-28.66-83.98-28.66
						c-29.89,0-51.1,14.62-69.82,27.51C374.6,444.36,362.26,452.86,349.06,452.86z M458.36,302.01
						c-53.76,0-111.53,25.57-131.52,58.21c-9.53,15.57-10.07,31.9-1.58,48.53c7.51,14.72,14.56,23,20.97,24.62
						c7.75,1.96,18.74-5.61,31.46-14.37c19.97-13.76,44.83-30.89,80.67-30.89c35.93,0,67.62,17.17,93.09,30.97
						c9.82,5.32,18.3,9.92,25.19,12.48c7.57,2.82,9.68,1.77,9.89,1.64c0.16-0.09,3.89-2.52,3.89-20.11
						C590.41,347.69,536.11,302.01,458.36,302.01z" class="st8"></path>
				</g>
				<g>
					<path d="M600.02,413.1c0,75.49,63.41-15.42,141.62-15.42s102.88,91.36,141.62,15.42
						c34.31-67.24-63.41-120.65-141.62-120.65S600.02,337.61,600.02,413.1z" class="st9"></path>
					<path d="M850.94,452.86c-13.2,0-25.54-8.5-39.48-18.11c-18.72-12.89-39.93-27.51-69.82-27.51
						c-31.08,0-60.41,15.89-83.98,28.66c-22.54,12.21-40.35,21.86-53.98,13.74c-11.73-6.98-13.23-23.2-13.23-36.54
						c0-19.79,4.06-38.25,12.08-54.86c7.65-15.85,18.74-29.72,32.95-41.22c27.23-22.02,64.93-34.15,106.16-34.15
						c28.06,0,58.3,6.42,85.17,18.09c28.55,12.4,50.81,29.89,62.67,49.26c13.06,21.33,13.86,44.57,2.31,67.21
						c-10.41,20.4-21,31.35-33.32,34.47C855.92,452.57,853.41,452.86,850.94,452.86z M741.64,388.11c35.84,0,60.7,17.13,80.67,30.89
						c12.72,8.76,23.71,16.33,31.46,14.37c6.41-1.62,13.46-9.9,20.97-24.62c8.49-16.63,7.95-32.96-1.58-48.53
						c-19.99-32.64-77.76-58.21-131.52-58.21c-77.75,0-132.05,45.68-132.05,111.09c0,17.59,3.73,20.01,3.89,20.11
						c0.22,0.13,2.32,1.17,9.89-1.64c6.88-2.56,15.36-7.16,25.19-12.48C674.02,405.28,705.71,388.11,741.64,388.11z" class="st8"></path>
				</g>
			</g>
			<g>
				<path d="M946.19,881.98c0-34.92,37.9-114.32,0-114.8c-21.75-0.27-36.13,19.3-44.43,36.04
					c-27.29-102.61-88.2-187.3-143.58-194.6c-127.44-16.8-153.28,32.77-157.69,45.12c-0.16,0.44-0.82,0.44-0.98,0
					c-4.41-12.35-30.25-61.92-157.69-45.12c-55.37,7.3-116.29,91.99-143.58,194.6c-8.3-16.73-22.67-36.31-44.43-36.04
					c-37.9,0.48,0,79.88,0,114.8s-81.4,89.45-51.69,147.32c27.85,54.23,97.36,10.57,91.26-36.84
					c27.27,106.16,115.04,193.84,306.29,197.78v0.01c0.11,0,0.21-0.01,0.32-0.01c0.11,0,0.21,0.01,0.32,0.01v-0.01
					c191.25-3.95,279.02-91.62,306.29-197.78c-6.09,47.41,63.41,91.08,91.26,36.84C1027.59,971.43,946.19,916.9,946.19,881.98z" class="st10"></path>
				<path d="M590.11,1200v-0.45c-87.18-3.09-158.02-23.97-210.68-62.12c-24.64-17.85-45.36-39.59-61.6-64.63
					c-8.89-13.71-16.49-28.5-22.74-44.19c-1.28,2.27-2.71,4.5-4.28,6.67c-8.94,12.36-21.92,21.89-35.62,26.15
					c-11.71,3.64-23.4,3.36-33.8-0.8c-11.48-4.59-21.08-13.91-27.78-26.95c-9.63-18.76-10.13-38.67-1.5-60.84
					c7.05-18.13,19.25-35.13,30.01-50.12c11.37-15.85,22.12-30.81,22.12-40.73c0-10.12-3.95-25.99-7.76-41.34
					c-7.49-30.15-14.57-58.64-2.87-73.8c3.19-4.13,9.26-9.09,20.08-9.23c0.19,0,0.39,0,0.58,0c15.34,0,29.18,7.66,40.77,22.38
					c13.73-43.36,33.52-83.76,56.74-115.47c13.52-18.47,27.75-33.43,42.3-44.47c15.65-11.88,31.29-18.92,46.49-20.92
					c56.11-7.4,100.06-3.15,130.62,12.61c14.06,7.25,23.08,15.91,28.81,23.46c5.73-7.55,14.75-16.2,28.81-23.46
					c30.56-15.76,74.51-20.01,130.62-12.61c15.2,2,30.84,9.04,46.49,20.92c14.54,11.04,28.78,26,42.3,44.47
					c23.22,31.71,43.01,72.12,56.74,115.47c11.58-14.73,25.43-22.39,40.77-22.39c0.19,0,0.39,0,0.58,0
					c10.82,0.14,16.89,5.09,20.08,9.23c11.7,15.16,4.62,43.64-2.87,73.8c-3.82,15.35-7.76,31.22-7.76,41.34
					c0,9.92,10.74,24.89,22.12,40.73c10.76,14.99,22.96,31.99,30.01,50.12c8.62,22.18,8.13,42.08-1.5,60.84
					c-6.7,13.04-16.3,22.36-27.78,26.95c-10.4,4.16-22.08,4.44-33.8,0.8c-13.7-4.25-26.68-13.78-35.62-26.15
					c-1.57-2.17-3-4.4-4.28-6.67c-6.24,15.7-13.84,30.48-22.74,44.19c-16.24,25.04-36.96,46.78-61.6,64.63
					c-52.66,38.15-123.5,59.03-210.68,62.12v0.43l-9.89-0.16l-0.16,0L590.11,1200z M302.66,990.09
					c21.73,84.6,90.93,186.34,297.22,190.6l0.13,0l0.12,0c206.28-4.26,275.49-106,297.22-190.6l18.75,3.6
					c-2.87,22.32,15.46,43.6,34.39,49.47c9.51,2.95,27.2,4.51,38.88-18.22c7.09-13.8,7.31-28.15,0.69-45.17
					c-6.17-15.88-17.13-31.14-27.72-45.9c-13.79-19.22-25.71-35.81-25.71-51.89c0-12.46,4.04-28.73,8.33-45.95
					c3.2-12.88,6.51-26.2,7.87-37.29c1.67-13.63-0.27-18.51-1.58-20.21c-0.4-0.52-1.34-1.74-5.17-1.78c-0.11,0-0.21,0-0.32,0
					c-16.67,0-28.46,16.68-35.42,30.73l-11.29,22.75l-6.53-24.55c-13-48.88-34.21-95-59.73-129.85
					c-24.94-34.07-51.88-54.57-75.85-57.73c-121.4-16-144.11,29.56-147.43,38.85c-1.43,3.99-5.24,6.68-9.5,6.68s-8.07-2.68-9.5-6.68
					c-3.32-9.3-26.02-54.85-147.43-38.85c-23.97,3.16-50.91,23.66-75.85,57.73c-25.52,34.85-46.73,80.97-59.73,129.85l-6.53,24.55
					l-11.29-22.75c-6.97-14.04-18.75-30.73-35.42-30.73c-0.11,0-0.21,0-0.32,0c-3.83,0.05-4.77,1.27-5.17,1.78
					c-1.31,1.7-3.25,6.58-1.58,20.21c1.36,11.09,4.67,24.41,7.87,37.29c4.28,17.22,8.33,33.49,8.33,45.95
					c0,16.08-11.91,32.67-25.71,51.89c-10.6,14.76-21.55,30.02-27.73,45.9c-6.62,17.01-6.4,31.36,0.69,45.17
					c11.67,22.73,29.37,21.17,38.88,18.22c18.92-5.88,37.25-27.16,34.39-49.47L302.66,990.09z" class="st8"></path>
			</g>
			<g>
				<g>
					<path d="M293.41,992.47c0,0-5.46-22.95-3.91-37.78" class="st10"></path>
					<path d="M284.1,994.68c-0.24-1-5.82-24.72-4.12-40.98l19.03,1.99c-1.13,10.83,2.29,28.63,3.7,34.57L284.1,994.68z" class="st8"></path>
				</g>
				<g>
					<path d="M906.59,992.47c0,0,5.46-22.95,3.91-37.78" class="st10"></path>
					<path d="M915.9,994.68l-18.61-4.42c0,0,0,0,0,0l0,0c1.41-5.96,4.83-23.78,3.7-34.57l19.03-1.99
						C921.71,969.96,916.14,993.68,915.9,994.68z" class="st8"></path>
				</g>
			</g>
			<g>
				<path d="M899.66,636.68c2.06-8.87,3.12-17.94,3.12-27.16c0-73.26-67.11-125.8-165.15-150.52
					c-0.9-0.22-1.8-0.45-2.7-0.67c-40.63-9.97-86.45-15.21-134.93-15.21c-48.48,0-94.31,5.24-134.94,15.21
					c-0.9,0.22-1.8,0.44-2.7,0.67c-98.04,24.72-165.15,77.26-165.15,150.52c0,9.22,1.06,18.29,3.12,27.16
					c-24.88,36.98-40.34,80.78-43.63,130.59c20.14,1.41,33.61,19.98,41.53,35.96c9.72-36.56,23.71-70.84,40.2-100.16
					c5.26,0.49,10.6,0.74,16.01,0.74c60.45,0,112.94-31.13,139.24-76.79c27.75,23.88,65.15,38.52,106.31,38.52
					c41.15,0,78.56-14.64,106.3-38.52c26.31,45.66,78.79,76.79,139.24,76.79c5.41,0,10.75-0.25,16.01-0.74
					c16.49,29.32,30.48,63.6,40.2,100.16c7.93-15.98,21.39-34.55,41.53-35.96C940,717.47,924.54,673.67,899.66,636.68z" class="st9"></path>
				<path d="M300.96,830.23l-11.29-22.76c-6.64-13.38-17.86-29.56-33.63-30.66l-9.51-0.66l0.63-9.51
					c3.21-48.65,17.67-92.99,42.98-131.88c-1.65-8.32-2.49-16.79-2.49-25.24c0-19.39,4.38-37.98,13.03-55.23
					c8.23-16.43,20.36-31.71,36.05-45.43c29.49-25.78,72.13-46.23,123.3-59.13c0.93-0.23,1.85-0.46,2.77-0.69
					c41.86-10.27,88.02-15.48,137.21-15.48c49.18,0,95.35,5.21,137.21,15.49c0.83,0.2,1.67,0.41,2.51,0.62l0.23,0.06
					c51.19,12.91,93.83,33.35,123.32,59.14c15.69,13.72,27.82,29,36.05,45.43c8.65,17.26,13.03,35.84,13.03,55.23
					c0,8.43-0.84,16.9-2.49,25.24c25.3,38.89,39.76,83.23,42.97,131.88l0.63,9.51l-9.51,0.66c-15.76,1.1-26.99,17.28-33.63,30.66
					l-11.29,22.75l-6.53-24.54c-8.71-32.73-21.24-64.62-36.37-92.61c-3.52,0.2-7.06,0.31-10.6,0.31c-30.84,0-60.96-7.78-87.12-22.5
					c-22.16-12.48-40.83-29.51-54.52-49.67c-29.29,21.93-65.77,33.9-103.91,33.9c-38.14,0-74.62-11.97-103.91-33.9
					c-13.69,20.15-32.35,37.19-54.52,49.67c-26.15,14.72-56.28,22.5-87.12,22.5c-3.54,0-7.08-0.1-10.6-0.31
					c-15.13,28-27.66,59.88-36.36,92.61L300.96,830.23z M866.85,692.96l3.05,5.41c13.93,24.76,25.89,52.65,35.07,81.64
					c8.29-10.52,17.76-17.46,28.1-20.55c-4.15-43.34-18.04-82.81-41.33-117.44l-2.32-3.45l0.94-4.05c1.91-8.23,2.88-16.64,2.88-25
					c0-32.56-14.31-61.58-42.54-86.26c-27.23-23.81-67.13-42.82-115.38-54.98l-0.21-0.05c-0.8-0.2-1.61-0.4-2.42-0.6
					c-40.39-9.91-85.02-14.94-132.67-14.94c-47.65,0-92.28,5.02-132.66,14.94c-0.89,0.22-1.78,0.44-2.66,0.66
					c-48.24,12.16-88.13,31.17-115.36,54.98c-28.23,24.68-42.54,53.7-42.54,86.26c0,8.38,0.97,16.79,2.87,24.99l0.94,4.05
					l-2.32,3.45c-23.3,34.63-37.18,74.1-41.34,117.45c10.34,3.09,19.81,10.03,28.1,20.55c9.18-28.99,21.14-56.87,35.07-81.64
					l3.05-5.41l6.19,0.58c4.96,0.46,10.04,0.7,15.12,0.7c55.19,0,105.37-27.59,130.95-72l5.77-10.01l8.76,7.54
					c27.12,23.35,62.66,36.2,100.07,36.2c37.41,0,72.94-12.86,100.06-36.2l8.76-7.54l5.77,10.01c25.6,44.41,75.77,72,130.95,72
					c5.07,0,10.16-0.24,15.12-0.7L866.85,692.96z" class="st8"></path>
			</g>
			<g>
				<g>
					<path d="M688.42,531.35c-20.51,26.28-52.49,43.18-88.42,43.18s-67.9-16.9-88.42-43.18
						c2.35-9.4,6.17-18.23,11.19-26.21c20.11,19.11,47.3,30.84,77.22,30.84s57.12-11.73,77.22-30.84
						C682.25,513.13,686.06,521.95,688.42,531.35z" class="st7"></path>
					<path d="M600,584.1c-19.06,0-37.32-4.29-54.26-12.74c-16.15-8.06-30.56-19.85-41.7-34.12l-2.87-3.68l1.13-4.53
						c2.57-10.25,6.73-20,12.37-28.98l6.22-9.89l8.46,8.05c19.14,18.19,44.22,28.21,70.64,28.21c26.41,0,51.5-10.02,70.64-28.21
						l8.46-8.05l6.22,9.89c5.64,8.98,9.81,18.73,12.37,28.98l1.13,4.53l-2.87,3.68c-11.13,14.26-25.55,26.06-41.7,34.12
						C637.32,579.81,619.06,584.1,600,584.1z M522.13,529.15c19.54,22.83,47.65,35.82,77.87,35.82c30.22,0,58.33-12.99,77.87-35.82
						c-0.96-3.08-2.11-6.09-3.43-9.03c-21.24,16.47-47.25,25.42-74.44,25.42c-27.19,0-53.2-8.95-74.44-25.42
						C524.24,523.06,523.09,526.08,522.13,529.15z" class="st8"></path>
				</g>
			</g>
			<g>
				<circle r="79.88" cy="421.12" cx="600" class="st7"></circle>
				<path d="M600,510.56c-49.32,0-89.45-40.13-89.45-89.45s40.13-89.45,89.45-89.45c49.32,0,89.45,40.13,89.45,89.45
					S649.32,510.56,600,510.56z M600,350.8c-38.77,0-70.31,31.54-70.31,70.31s31.54,70.31,70.31,70.31s70.31-31.54,70.31-70.31
					S638.77,350.8,600,350.8z" class="st8"></path>
			</g>
			<g>
				<path d="M274.12,779.75c0-138.33,145.9-250.46,325.88-250.46s325.88,112.14,325.88,250.46v-41.53
					c0-138.33-145.9-250.46-325.88-250.46S274.12,599.89,274.12,738.22V779.75z" class="st11"></path>
				<path d="M933.06,779.75h-14.35c0-64.62-32.9-125.5-92.65-171.41c-60.3-46.35-140.59-71.87-226.06-71.87
					s-165.76,25.52-226.06,71.87c-59.74,45.92-92.65,106.79-92.65,171.41h-14.35v-41.53c0-35.04,8.92-69,26.5-100.95
					c16.89-30.7,41.03-58.23,71.75-81.84c30.58-23.5,66.15-41.94,105.74-54.81c40.89-13.29,84.32-20.03,129.07-20.03
					s88.17,6.74,129.07,20.03c39.59,12.87,75.16,31.31,105.74,54.81c30.72,23.61,54.86,51.14,71.75,81.84
					c17.58,31.95,26.5,65.91,26.5,100.95V779.75z M600,522.11c44.75,0,88.17,6.74,129.07,20.03
					c39.59,12.87,75.16,31.31,105.74,54.81c30.72,23.61,54.86,51.14,71.75,81.84c2.16,3.92,4.18,7.87,6.08,11.84
					c-12.05-46.54-41.76-89.4-86.57-123.84c-60.3-46.35-140.59-71.87-226.06-71.87s-165.76,25.52-226.06,71.87
					c-44.81,34.44-74.52,77.3-86.57,123.84c1.9-3.98,3.92-7.93,6.08-11.84c16.89-30.7,41.03-58.23,71.75-81.84
					c30.58-23.5,66.15-41.94,105.74-54.81C511.83,528.85,555.25,522.11,600,522.11z" class="st8"></path>
			</g>
			<g>
				<circle r="73.18" cy="466.08" cx="600" class="st7"></circle>
				<path d="M600,548.83c-45.63,0-82.75-37.12-82.75-82.75s37.12-82.75,82.75-82.75s82.75,37.12,82.75,82.75
					S645.63,548.83,600,548.83z M600,402.46c-35.08,0-63.62,28.54-63.62,63.62S564.92,529.7,600,529.7
					c35.08,0,63.62-28.54,63.62-63.62S635.08,402.46,600,402.46z" class="st8"></path>
			</g>
			<g>
				<g>
					<circle r="39.22" cy="649.28" cx="291.24" class="st7"></circle>
					<path d="M291.24,698.07c-26.9,0-48.79-21.89-48.79-48.79c0-26.9,21.89-48.79,48.79-48.79
						c26.9,0,48.79,21.89,48.79,48.79C340.03,676.18,318.14,698.07,291.24,698.07z M291.24,619.62c-16.35,0-29.66,13.3-29.66,29.66
						c0,16.35,13.3,29.66,29.66,29.66s29.66-13.3,29.66-29.66C320.9,632.93,307.59,619.62,291.24,619.62z" class="st8"></path>
				</g>
				<g>
					<circle r="39.22" cy="649.28" cx="908.76" class="st7"></circle>
					<path d="M908.76,698.07c-26.9,0-48.79-21.89-48.79-48.79c0-26.9,21.89-48.79,48.79-48.79
						c26.9,0,48.79,21.89,48.79,48.79C957.55,676.18,935.66,698.07,908.76,698.07z M908.76,619.62c-16.35,0-29.66,13.3-29.66,29.66
						c0,16.35,13.3,29.66,29.66,29.66c16.35,0,29.66-13.3,29.66-29.66C938.42,632.93,925.11,619.62,908.76,619.62z" class="st8"></path>
				</g>
			</g>
			<g>
				<g>
					<path d="M289.09,984.19l-66.97,169.99c0,0,65.03,35.41,133.93,0L289.09,984.19z" class="st12"></path>
					<path d="M290.49,1179.46c-9.55,0-19.22-0.86-28.92-2.58c-26.1-4.65-43.31-13.91-44.03-14.3
						c-4.24-2.31-6.1-7.42-4.33-11.91l66.97-169.99c1.44-3.66,4.97-6.06,8.9-6.06c3.93,0,7.46,2.4,8.9,6.06l66.97,169.99
						c1.8,4.57-0.16,9.77-4.53,12.01C338.8,1173.8,315.03,1179.46,290.49,1179.46z M234.35,1149.25c6.79,2.77,17.71,6.56,31.25,8.91
						c27.67,4.8,53.96,1.84,78.28-8.78l-54.79-139.09L234.35,1149.25z" class="st8"></path>
				</g>
				<g>
					<path d="M910.91,984.19l-66.97,169.99c0,0,65.03,35.41,133.93,0L910.91,984.19z" class="st12"></path>
					<path d="M912.32,1179.46c-9.55,0-19.22-0.86-28.92-2.58c-26.1-4.65-43.31-13.91-44.03-14.3
						c-4.24-2.31-6.1-7.42-4.33-11.91l66.97-169.99c1.44-3.66,4.97-6.06,8.9-6.06s7.46,2.4,8.9,6.06l66.97,169.99
						c1.8,4.57-0.16,9.77-4.53,12.01C960.62,1173.8,936.85,1179.46,912.32,1179.46z M856.17,1149.25
						c6.79,2.77,17.71,6.56,31.25,8.91c27.67,4.8,53.96,1.84,78.28-8.78l-54.79-139.09L856.17,1149.25z" class="st8"></path>
				</g>
			</g>
			<g>
				<g>
					<path d="M289.09,949.19l-49.75,126.28c0,0,48.31,26.31,99.49,0L289.09,949.19z" class="st7"></path>
					<path d="M290.14,1096.71c-7.24,0-14.57-0.65-21.92-1.96c-19.78-3.52-32.9-10.58-33.45-10.88
						c-4.24-2.31-6.1-7.42-4.33-11.91l49.75-126.28c1.44-3.66,4.97-6.06,8.9-6.06c3.93,0,7.46,2.4,8.9,6.06l49.75,126.28
						c1.8,4.57-0.16,9.77-4.53,12.01C326.79,1092.42,308.75,1096.71,290.14,1096.71z M251.61,1070.42
						c4.96,1.88,12.08,4.14,20.62,5.61c19.18,3.29,37.43,1.46,54.39-5.46l-37.53-95.28L251.61,1070.42z" class="st8"></path>
				</g>
				<g>
					<path d="M910.91,949.19l-49.75,126.28c0,0,48.31,26.31,99.49,0L910.91,949.19z" class="st7"></path>
					<path d="M911.96,1096.71c-7.24,0-14.57-0.65-21.92-1.96c-19.78-3.52-32.9-10.58-33.45-10.88
						c-4.24-2.31-6.1-7.42-4.33-11.91l49.75-126.28c1.44-3.66,4.97-6.06,8.9-6.06s7.46,2.4,8.9,6.06l49.75,126.28
						c1.8,4.57-0.16,9.77-4.53,12.01C948.61,1092.42,930.57,1096.71,911.96,1096.71z M873.44,1070.42
						c4.96,1.88,12.08,4.14,20.62,5.61c19.18,3.29,37.44,1.46,54.39-5.46l-37.53-95.28L873.44,1070.42z" class="st8"></path>
				</g>
			</g>
			<g>
				<g>
					<rect height="172.2" width="13.39" class="st11" y="791.31" x="286.94"></rect>
					<rect height="186.55" width="27.74" class="st8" y="784.14" x="279.76"></rect>
				</g>
				<g>
					<rect height="172.2" width="13.39" class="st11" y="791.34" x="899.67"></rect>
					<rect height="186.55" width="27.74" class="st8" y="784.17" x="892.5"></rect>
				</g>
			</g>
		</g>
	</g>
	<g>
		<g>
			<g>
				<path d="M504.9,847.8c-1.98,0-3.89-1.1-4.83-3c-0.02-0.03-3.12-6.05-10.97-12.72
					c-7.25-6.16-20.18-14.18-40.59-17.36c-27.99-4.36-53.78,0.18-70.48,4.76c-18.23,5-29.93,11.13-30.05,11.19
					c-2.62,1.39-5.88,0.39-7.27-2.24c-1.39-2.62-0.39-5.88,2.23-7.27c0.51-0.27,12.65-6.66,31.93-11.97
					c17.79-4.91,45.29-9.77,75.29-5.1c44.8,6.98,58.97,34.77,59.55,35.95c1.31,2.66,0.22,5.89-2.45,7.2
					C506.51,847.62,505.7,847.79,504.9,847.8z" class="st8"></path>
				<path d="M695.1,847.8c-0.8,0-1.61-0.18-2.37-0.56c-2.66-1.31-3.76-4.54-2.45-7.2c0.58-1.18,14.76-28.97,59.55-35.95
					c30-4.67,57.5,0.19,75.29,5.1c19.28,5.32,31.42,11.71,31.93,11.97c2.62,1.39,3.62,4.65,2.23,7.27
					c-1.39,2.62-4.65,3.62-7.27,2.23c-0.2-0.11-11.88-6.21-30.04-11.19c-16.7-4.58-42.48-9.12-70.48-4.76
					c-39.34,6.13-51.44,29.84-51.56,30.08C698.99,846.69,697.08,847.79,695.1,847.8z" class="st8"></path>
			</g>
			<g>
				<g>
					<path d="M493.94,932.42c-0.05,0-0.11,0-0.16,0c-4.28-0.08-7.37-3-11.65-7.05c-7.52-7.13-20.11-19.05-45.48-22.15
						c-45.66-5.58-67.69-18.9-86.44-40.46c-0.37-0.42-0.69-0.87-0.95-1.35c-0.03-0.06-0.06-0.11-0.07-0.15
						c-0.94-2.23-0.64-4.43,1.63-5.8c2.23-1.35,5.36-0.41,6.89,1.54c0.87,1.03,23.65,27.36,73.82,32.01
						c19.38,1.79,36.43,6.24,49.3,12.86c10.44,5.37,17.9,12.05,20.45,18.34c1.64,4.05,1.03,7.74-1.69,10.11
						C497.58,932.03,495.44,932.42,493.94,932.42z M357.72,857.02C357.72,857.02,357.73,857.02,357.72,857.02
						c0.02,0.03,0.04,0.05,0.06,0.08C357.76,857.07,357.74,857.04,357.72,857.02z" class="st8"></path>
				</g>
				<g>
					<path d="M700.43,930.3c-2.72-2.37-3.34-6.06-1.69-10.11c2.55-6.28,10-12.97,20.45-18.34
						c12.87-6.62,29.92-11.06,49.3-12.86c50.17-4.65,72.96-30.98,73.82-32.01c1.52-1.95,4.66-2.89,6.89-1.54
						c2.27,1.37,2.57,3.57,1.63,5.8c-0.02,0.04-0.04,0.09-0.07,0.15c-0.26,0.48-0.58,0.93-0.95,1.35
						c-18.75,21.56-40.78,34.88-86.44,40.46c-25.37,3.1-37.96,15.03-45.48,22.15c-4.28,4.05-7.37,6.98-11.65,7.05
						c-0.05,0-0.11,0-0.16,0C704.56,932.42,702.42,932.03,700.43,930.3z M842.22,857.09c0.02-0.02,0.04-0.05,0.06-0.07c0,0,0,0,0,0
						C842.26,857.04,842.24,857.07,842.22,857.09z" class="st8"></path>
				</g>
			</g>
		</g>
		<path d="M579.72,1116.88c1.94,8.2,12.38,13.41,20.74,13.41c8.28,0,19.35-4.72,20.59-13.17l1.2-13.55l-44.5,0.98
			L579.72,1116.88z" class="st13"></path>
		<ellipse ry="13.45" rx="3.67" cy="818.23" cx="600" class="st14"></ellipse>
		<g>
			<path d="M622.2,1087.11c-9.73-0.39-17.17,6.67-20.42,10.43c-0.94,1.09-2.63,1.09-3.57,0
				c-3.25-3.75-10.68-10.82-20.42-10.43c-11.73,0.47-15.96,10.1-16.77,12.26c-0.1,0.27-0.15,0.54-0.15,0.83l0,0
				c0,0.75,0.35,1.46,0.95,1.9c17.82,13.05,34.47,11.45,37.66,11.57c0.34,0.01,0.67,0.01,1.01,0c3.19-0.12,19.85,1.48,37.66-11.57
				c0.6-0.44,0.95-1.15,0.95-1.9l0,0c0-0.28-0.05-0.56-0.15-0.83C638.17,1097.21,633.93,1087.58,622.2,1087.11z" class="st13"></path>
			<path d="M643.55,1097.67c-2.66-7.16-9.62-14.98-21.16-15.44h0c-10.04-0.4-17.83,5.41-22.4,10.04
				c-4.57-4.63-12.35-10.44-22.4-10.04c-11.53,0.46-18.49,8.28-21.16,15.44c-0.3,0.81-0.46,1.66-0.46,2.53
				c0,2.31,1.1,4.49,2.95,5.84c5.32,3.89,10.55,6.58,15.41,8.43l0.55,3.18l0.07,0.35c2.54,10.75,14.96,17.17,25.49,17.17
				c9.5,0,23.67-5.38,25.43-17.35l0.31-3.57c4.7-1.84,9.74-4.47,14.86-8.22c1.85-1.35,2.95-3.54,2.95-5.84
				C644.01,1099.33,643.86,1098.48,643.55,1097.67z M600.46,1125.4c-5.76,0-12.89-3.27-15.31-7.89c5.98,1.11,10.65,1.07,13.08,1.04
				c0.46,0,0.82-0.01,1.07,0c0.23,0.01,0.47,0.01,0.7,0.01c0.23,0,0.46,0,0.69-0.01c0.26-0.01,0.62,0,1.07,0
				c2.59,0.03,7.7,0.07,14.24-1.27C614.5,1121.99,606.87,1125.4,600.46,1125.4z M601.87,1108.78c-0.62-0.01-1.12-0.01-1.55,0.01
				c-0.22,0.01-0.42,0.01-0.64,0c-0.22-0.01-0.45-0.01-0.71-0.01c-0.25,0-0.53,0-0.84,0.01c-4.44,0.05-17.6,0.18-31.73-9.44
				c1.48-2.77,4.84-7.07,11.59-7.34c7.82-0.32,14.16,6.01,16.52,8.74c1.38,1.59,3.38,2.51,5.48,2.51c2.11,0,4.1-0.91,5.48-2.51
				c2.36-2.73,8.7-9.04,16.52-8.74c6.75,0.27,10.12,4.57,11.59,7.34C619.46,1108.96,606.3,1108.82,601.87,1108.78z" class="st8"></path>
		</g>
	</g>
</g>
</svg>
