<svg xml:space="preserve" style="enable-background:new 0 0 1200 1200;" viewBox="0 0 1200 1200" y="0px" x="0px" xmlns:xlink="http://www.w3.org/1999/xlink" xmlns="http://www.w3.org/2000/svg" id="图层_1" version="1.1">
<style type="text/css">
	.st0{fill:#4C73A8;}
	.st1{fill:#688DB5;}
	.st2{fill:#80A0BC;}
	.st3{fill:#C4CED6;}
	.st4{fill:#E6E7E8;}
	.st5{fill:#E4E4ED;}
	.st6{fill:#75614E;}
	.st7{fill:#2B2A2C;}
	.st8{fill:#FCF0E6;}
	.st9{fill:#E5DB80;}
	.st10{fill:#75B9AC;}
	.st11{fill:#F9DB8F;}
	.st12{fill:#753232;}
	.st13{fill:#DD725E;}
	.st14{fill:#75614E;stroke:#DD725E;stroke-width:20;stroke-linecap:round;stroke-miterlimit:10;}
</style>
<g>
	<g>
		<circle r="600" cy="600" cx="600" class="st0"></circle>
		<circle r="580" cy="600" cx="600" class="st1"></circle>
		<circle r="558" cy="600" cx="600" class="st2"></circle>
		<circle r="530" cy="600" cx="600" class="st3"></circle>
		<circle r="475" cy="600" cx="600" class="st4"></circle>
		<g>
			<g>
				<path d="M971.84,770.53c0,0,46.22,73.85,20.01,165.34s-76.24,144.85-6.19,205.84c0,0-66.23,19.54-93.39-20.49
					c-27.16-40.02-32.88-74.33,19.06-136.75c51.94-62.42,40.92-199.98,40.92-199.98L971.84,770.53z" class="st5"></path>
				<path d="M949.87,1153.62c-0.25,0-0.51,0-0.77,0c-28.57-0.17-50.26-9.99-62.75-28.39
					c-16.58-24.44-22.97-43.74-21.34-64.54c1.86-23.88,14.83-49.55,40.82-80.79c49.5-59.49,39.4-193.49,39.29-194.84l-0.32-4.04
					l29.08-20.71l4.03,6.43c0.49,0.79,12.2,19.7,20.66,50.25c4.96,17.9,7.77,36.15,8.36,54.22c0.74,22.63-2.02,45.05-8.2,66.63
					c-6.35,22.15-14.18,42.39-21.09,60.24c-22.17,57.27-36.82,95.11,12.72,138.24l9.83,8.56l-12.5,3.69
					C986.97,1148.77,970.29,1153.62,949.87,1153.62z M959.65,788c0.61,10.4,1.79,39.33-1.26,73.71
					c-2.21,24.96-6.21,47.56-11.88,67.17c-7.21,24.92-17.19,45.16-29.68,60.16c-24,28.85-35.94,51.97-37.56,72.76
					c-1.35,17.3,4.31,33.88,18.92,55.41c17.19,25.33,53.39,23.49,72.7,20.36c-19.31-19.95-28.3-40.8-28.1-64.77
					c0.21-24.83,10.08-50.34,21.52-79.88c7.13-18.43,14.51-37.48,20.68-59.01c13.08-45.66,7.11-86.7-0.2-113.1
					c-5.07-18.3-11.4-32.16-15.32-39.8L959.65,788z" class="st6"></path>
			</g>
			<g>
				<path d="M228.16,770.53c0,0-46.22,73.85-20.01,165.34s76.24,144.85,6.19,205.84c0,0,66.23,19.54,93.39-20.49
					c27.16-40.02,32.88-74.33-19.06-136.75s-40.92-199.98-40.92-199.98L228.16,770.53z" class="st5"></path>
				<path d="M250.13,1153.62c-20.42,0-37.1-4.85-37.81-5.06l-12.5-3.69l9.83-8.56c49.54-43.13,34.89-80.97,12.72-138.24
					c-6.91-17.85-14.74-38.09-21.09-60.24c-6.18-21.58-8.94-44-8.2-66.63c0.59-18.07,3.41-36.32,8.36-54.22
					c8.46-30.55,20.17-49.46,20.66-50.25l4.03-6.43l29.08,20.71l-0.32,4.04c-0.03,0.34-2.67,34.46,1,75.6
					c4.78,53.64,18.02,94.87,38.29,119.23c25.99,31.23,38.96,56.9,40.82,80.79c1.62,20.8-4.76,40.11-21.34,64.54
					c-12.49,18.4-34.18,28.22-62.75,28.39C250.64,1153.62,250.38,1153.62,250.13,1153.62z M229.13,1137.54
					c19.32,3.1,55.55,4.91,72.68-20.34c14.61-21.53,20.27-38.1,18.92-55.41c-1.62-20.79-13.56-43.91-37.56-72.76
					c-12.48-15-22.46-35.24-29.68-60.16c-5.68-19.62-9.67-42.22-11.88-67.17c-3.05-34.38-1.87-63.31-1.26-73.71l-9.81-6.99
					c-3.97,7.74-10.4,21.82-15.46,40.28c-7.21,26.28-13.08,67.16-0.06,112.61c6.17,21.53,13.54,40.59,20.68,59.01
					c11.43,29.54,21.31,55.05,21.52,79.88C257.41,1096.75,248.44,1117.6,229.13,1137.54z" class="st6"></path>
			</g>
		</g>
		<g>
			<path d="M669.7,132.57c83.51,14.53,137.76,103.63,121.16,199.02c-8.34,47.93-32.97,88.32-66.02,114.81
				c23.44-23.06,35.86-55.45,42.2-91.9c14.77-84.88-31.48-154.1-106.94-167.23c-75.47-13.13-142.22,36.52-156.98,121.4
				c-6.34,36.45-5.57,71.04,8.7,100.66c-22.16-36.09-31.71-82.43-23.37-130.36C505.04,183.6,586.19,118.05,669.7,132.57z" class="st7"></path>
			<path d="M646.4,130.56c7.71,0,15.49,0.66,23.3,2.02c83.51,14.53,137.76,103.63,121.16,199.02
				c-8.34,47.93-32.97,88.32-66.02,114.81c23.44-23.06,35.86-55.45,42.2-91.9c14.76-84.88-31.48-154.1-106.94-167.23
				c-8.08-1.41-16.06-2.09-23.89-2.09c-65.28,0-119.91,47.7-133.09,123.49c-6.34,36.45-5.57,71.04,8.7,100.66
				c-22.16-36.09-31.71-82.43-23.37-130.36C503.49,192.51,571.59,130.56,646.4,130.56 M646.41,111.5v19.06V111.5
				c-41.27,0-81.88,16.65-114.38,46.89c-15.86,14.76-29.27,32.22-39.86,51.89c-10.9,20.26-18.47,42.27-22.5,65.44
				c-4.47,25.67-4.37,51.37,0.29,76.37c4.53,24.29,13.14,46.91,25.62,67.22l33.41-18.24c-11.17-23.19-13.49-52.35-7.09-89.13
				c11.21-64.42,57.15-107.7,114.32-107.7c6.78,0,13.72,0.61,20.62,1.81c65.63,11.42,104.08,72.47,91.43,145.18
				c-6.41,36.84-18.44,63.52-36.79,81.58l25.29,28.46c18.6-14.91,34.35-33.29,46.81-54.62c12.83-21.96,21.6-46.12,26.06-71.79
				c4.44-25.55,4.37-51.12-0.22-76.02c-4.46-24.18-12.98-46.72-25.32-66.99c-12.47-20.48-28.21-37.62-46.79-50.95
				c-19.43-13.94-41.07-23.05-64.34-27.1C664.2,112.27,655.27,111.5,646.41,111.5L646.41,111.5z" class="st6"></path>
		</g>
		<g>
			<path d="M853.81,224.02c66.01,53.17,70.3,157.4,9.56,232.8c-30.51,37.89-71.63,61.29-113.38,68.45
				c31.68-8.82,58.23-31.13,81.44-59.94c54.04-67.1,47.13-150.05-12.53-198.1s-142.1-36.96-196.15,30.14
				c-23.21,28.81-39.29,59.45-41.16,92.27c-1.9-42.31,12.2-87.47,42.72-125.36C685.04,188.87,787.79,170.85,853.81,224.02z" class="st7"></path>
			<path d="M764.97,193.48c32.08,0,63.22,9.91,88.84,30.54c66.01,53.17,70.3,157.4,9.56,232.8
				c-30.51,37.89-71.63,61.29-113.38,68.45c31.68-8.82,58.23-31.13,81.44-59.94c54.04-67.1,47.13-150.05-12.53-198.1
				c-24.5-19.73-52.85-29.49-81.49-29.49c-41.1,0-82.81,20.09-114.66,59.63c-23.21,28.81-39.29,59.45-41.16,92.27
				c-1.9-42.31,12.2-87.47,42.72-125.36C661.48,218.13,714.38,193.48,764.97,193.48 M764.98,174.42v19.06V174.42
				c-28.21,0-57.19,6.94-83.8,20.06c-13.47,6.64-26.34,14.85-38.25,24.4c-12.23,9.8-23.49,21.05-33.46,33.44
				c-16.35,20.3-28.71,42.82-36.75,66.95c-7.81,23.44-11.23,47.41-10.16,71.22l38.07,0.23c1.46-25.7,13.56-52.33,36.98-81.4
				c27.28-33.87,62.73-52.53,99.8-52.53c24.97,0,49.02,8.74,69.55,25.28c24.87,20.03,39.73,47.87,41.84,78.38
				c2.17,31.44-9.26,64.44-32.2,92.92c-23.45,29.12-46.91,46.63-71.71,53.54l8.34,37.14c23.49-4.03,46.18-12.48,67.42-25.1
				c21.86-13,41.24-29.88,57.58-50.17c16.27-20.2,28.59-42.61,36.64-66.61c7.81-23.32,11.28-47.16,10.31-70.87
				c-0.98-23.95-6.45-46.58-16.25-67.24c-10.24-21.6-24.76-40.07-43.15-54.88c-14.29-11.51-30.4-20.34-47.86-26.22
				C801.11,177.29,783.31,174.42,764.98,174.42L764.98,174.42z" class="st6"></path>
		</g>
		<g>
			<g>
				<g>
					<path d="M927.97,633.85c0,0,52.95-29.63,93.05-6.47c40.14,23.2,24.74,63.57-7.19,67.43
						C981.9,698.68,927.97,633.85,927.97,633.85z" class="st5"></path>
					<path d="M1010.95,703.86c-15.45,0-34.47-10.34-57.96-31.48c-17.75-15.97-31.27-32.17-31.84-32.85l-6.83-8.21
						l9.32-5.22c2.34-1.31,57.86-31.81,101.83-6.4c21.28,12.3,31.65,31.1,27.72,50.29c-3.64,17.79-19.03,31.31-38.28,33.64
						C1013.61,703.79,1012.29,703.86,1010.95,703.86z M942.47,636.85c5.5,6,13.51,14.34,22.54,22.46
						c20.24,18.19,37.64,27.91,47.76,26.69c11.66-1.41,20.91-9.28,23.02-19.57c2.36-11.51-4.65-22.94-19.21-31.36
						C991.05,620.32,958.65,630.16,942.47,636.85z" class="st6"></path>
				</g>
			</g>
			<g>
				<path d="M947.02,629.07c0,0,107.72,34.33,97.06,89.37c-10.65,55.04-65.1,31.37-65.1,31.37L947.02,629.07z" class="st5"></path>
				<path d="M1004.21,763.73c-15.22,0-27.98-5.44-28.77-5.78l-3.94-1.71L934.3,615.7l15.42,4.91
					c1.14,0.36,28.23,9.08,54.42,24.9c15.78,9.53,27.98,19.72,36.26,30.26c11.17,14.23,15.35,29.16,12.4,44.35
					c-3.57,18.47-12.02,31.32-25.1,38.21C1020.05,762.37,1011.82,763.73,1004.21,763.73z M986.37,743.04
					c6.89,2.19,21.68,5.62,33.11-0.44c8.04-4.27,13.39-12.96,15.88-25.85c4.52-23.34-19.35-43.28-40.17-55.89
					c-12.51-7.58-25.48-13.49-35.2-17.47L986.37,743.04z" class="st6"></path>
			</g>
			<g>
				<path d="M948.98,649.57c0,0,93.16,64.05,67.03,113.64c-26.13,49.6-71.4,11.17-71.4,11.17L948.98,649.57z" class="st5"></path>
				<path d="M980.36,797.45c-22.01,0-40.62-15.56-41.49-16.3l-3.28-2.78l5.08-145.29l13.34,9.17
					c0.99,0.68,24.39,16.87,44.88,39.59c12.35,13.7,21.08,26.97,25.94,39.46c6.57,16.86,6.25,32.35-0.97,46.04
					c-8.77,16.64-20.57,26.5-35.09,29.31C985.93,797.21,983.12,797.45,980.36,797.45z M953.65,770.05
					c5.96,4.09,19.12,11.66,31.82,9.16c8.94-1.75,16.57-8.53,22.68-20.14c11.08-21.03-5.99-47.03-22.27-65.13
					c-9.78-10.87-20.49-20.29-28.64-26.92L953.65,770.05z" class="st6"></path>
			</g>
			<g>
				<g>
					<g>
						<path d="M272.03,633.85c0,0-52.95-29.63-93.05-6.47c-40.14,23.2-24.74,63.57,7.19,67.43
							S272.03,633.85,272.03,633.85z" class="st5"></path>
						<path d="M189.05,703.86c-1.34,0-2.66-0.08-3.95-0.23c-19.26-2.33-34.64-15.85-38.28-33.64
							c-3.93-19.19,6.44-37.99,27.72-50.29c43.97-25.4,99.49,5.09,101.83,6.4l9.32,5.22l-6.83,8.21
							c-0.57,0.68-14.1,16.88-31.84,32.85C223.52,693.52,204.5,703.86,189.05,703.86z M214.33,627.42c-10.47,0-21.2,2.03-30.92,7.65
							c-14.56,8.41-21.56,19.84-19.21,31.36c2.11,10.3,11.36,18.16,23.02,19.57c10.12,1.23,27.52-8.5,47.76-26.69
							c9.03-8.11,17.03-16.44,22.52-22.44C247.49,632.75,231.26,627.42,214.33,627.42z" class="st6"></path>
					</g>
				</g>
				<g>
					<path d="M252.98,629.07c0,0-107.72,34.33-97.06,89.37s65.1,31.37,65.1,31.37L252.98,629.07z" class="st5"></path>
					<path d="M195.79,763.73c-7.61,0-15.83-1.36-23.48-5.39c-13.08-6.89-21.53-19.75-25.1-38.21
						c-2.94-15.2,1.23-30.12,12.4-44.35c8.27-10.54,20.47-20.72,36.26-30.26c26.19-15.82,53.28-24.54,54.42-24.9l15.42-4.91
						l-37.2,140.54l-3.94,1.71C223.77,758.29,211.01,763.73,195.79,763.73z M240.01,643.39c-9.72,3.98-22.7,9.89-35.2,17.47
						c-20.82,12.62-44.69,32.56-40.17,55.89c2.5,12.92,7.86,21.62,15.94,25.88c11.37,5.98,26.16,2.57,33.05,0.4L240.01,643.39z" class="st6"></path>
				</g>
				<g>
					<path d="M251.02,649.57c0,0-93.16,64.05-67.03,113.65c26.13,49.6,71.4,11.17,71.4,11.17L251.02,649.57z" class="st5"></path>
					<path d="M219.64,797.45c-2.76,0-5.57-0.24-8.41-0.79c-14.52-2.81-26.32-12.67-35.09-29.31
						c-7.21-13.69-7.54-29.18-0.97-46.04c4.87-12.49,13.6-25.76,25.94-39.46c20.49-22.73,43.89-38.92,44.88-39.59l13.34-9.17
						l5.08,145.29l-3.28,2.78C260.26,781.9,241.65,797.45,219.64,797.45z M242.75,667.03c-8.15,6.62-18.86,16.04-28.64,26.92
						c-16.27,18.1-33.35,44.1-22.27,65.13c6.13,11.64,13.79,18.42,22.75,20.15c12.61,2.44,25.78-5.11,31.75-9.19L242.75,667.03z
						 M256.05,656.88L256.05,656.88L256.05,656.88z" class="st6"></path>
				</g>
			</g>
		</g>
		<g>
			<path d="M923.04,699.52c0-159.07-144.63-288.02-323.04-288.02S276.96,540.45,276.96,699.52S421.59,953.75,600,953.75
				S923.04,858.59,923.04,699.52z" class="st7"></path>
			<path d="M600,963.28c-45.33,0-88.55-5.97-128.44-17.74c-40.15-11.85-75.7-29.22-105.69-51.62
				c-31.05-23.2-55.26-51.18-71.97-83.16c-17.56-33.62-26.47-71.05-26.47-111.24c0-40.31,8.85-79.4,26.31-116.2
				c16.82-35.45,40.87-67.28,71.5-94.58c30.54-27.23,66.09-48.61,105.66-63.53c40.9-15.43,84.34-23.25,129.1-23.25
				c44.76,0,88.2,7.82,129.1,23.25c39.57,14.92,75.12,36.3,105.66,63.53c30.62,27.3,54.68,59.12,71.5,94.58
				c17.46,36.8,26.31,75.89,26.31,116.2c0,40.2-8.91,77.62-26.47,111.24c-16.71,31.98-40.92,59.96-71.97,83.16
				c-29.98,22.4-65.54,39.77-105.69,51.62C688.55,957.31,645.33,963.28,600,963.28z M600,421.02
				c-172.87,0-313.51,124.93-313.51,278.49c0,144.08,128.92,244.71,313.51,244.71S913.51,843.6,913.51,699.52
				C913.51,545.95,772.87,421.02,600,421.02z" class="st6"></path>
		</g>
		<g>
			<path d="M971.71,1145.58c-29.66-3.1-53.05-21.77-64.16-51.23c-6.38-16.91-8.18-36.51-5.08-55.2
				c3.28-19.75,11.64-37.37,24.19-50.95c28.3-30.66,41.05-68.94,37.9-113.76c-2.37-33.7-13.22-58.3-13.32-58.55l14.61-6.53
				c0.49,1.1,12.11,27.46,14.68,63.95c3.43,48.7-11.13,92.18-42.1,125.74c-20.78,22.51-27.31,59.38-15.9,89.65
				c5.23,13.86,18.78,37.61,50.85,40.96L971.71,1145.58z" class="st6"></path>
			<path d="M228.29,1145.58c29.66-3.1,53.05-21.77,64.16-51.23c6.38-16.91,8.18-36.51,5.08-55.2
				c-3.28-19.75-11.64-37.37-24.19-50.95c-28.3-30.66-41.05-68.94-37.9-113.76c2.37-33.7,13.22-58.3,13.32-58.55l-14.61-6.53
				c-0.49,1.1-12.11,27.46-14.68,63.95c-3.43,48.7,11.13,92.18,42.1,125.74c20.78,22.51,27.31,59.38,15.9,89.65
				c-5.23,13.86-18.78,37.61-50.85,40.96L228.29,1145.58z" class="st6"></path>
		</g>
		<g>
			<path d="M944.84,883.22c0-34.78,37.76-113.88,0-114.35c-21.67-0.27-35.99,19.23-44.26,35.9
				c-27.18-102.21-87.86-186.58-143.02-193.85c-126.95-16.73-152.69,32.64-157.08,44.94c-0.16,0.44-0.82,0.44-0.98,0
				c-4.39-12.3-30.13-61.68-157.08-44.94c-55.16,7.27-115.84,91.63-143.02,193.85c-8.27-16.67-22.59-36.17-44.26-35.9
				c-37.76,0.48,0,79.57,0,114.35c0,34.78-81.09,89.1-51.49,146.75c27.74,54.02,96.98,10.53,90.91-36.7
				c27.16,105.75,114.59,193.09,305.1,197.02v0.01c0.11,0,0.21-0.01,0.32-0.01c0.11,0,0.21,0.01,0.32,0.01v-0.01
				c190.51-3.93,277.94-91.27,305.1-197.02c-6.07,47.23,63.17,90.72,90.91,36.7C1025.93,972.32,944.84,918,944.84,883.22z" class="st8"></path>
			<path d="M590.15,1200v-0.44c-86.84-3.08-157.41-23.88-209.86-61.88c-24.54-17.78-45.19-39.44-61.36-64.38
				c-8.86-13.66-16.43-28.39-22.65-44.02c-1.28,2.27-2.7,4.48-4.26,6.65c-8.9,12.31-21.84,21.81-35.48,26.04
				c-11.67,3.62-23.31,3.35-33.66-0.8c-11.43-4.58-21-13.86-27.67-26.85c-9.6-18.69-10.09-38.52-1.5-60.61
				c7.02-18.06,19.18-34.99,29.9-49.92c11.33-15.78,22.03-30.69,22.03-40.58c0-10.08-3.93-25.89-7.73-41.18
				c-7.47-30.04-14.52-58.41-2.86-73.51c3.18-4.12,9.23-9.05,20-9.19c15.53-0.2,29.5,7.44,41.19,22.29
				c13.67-43.19,33.39-83.44,56.52-115.02c13.47-18.4,27.65-33.3,42.13-44.3c15.59-11.83,31.17-18.84,46.31-20.84
				c55.9-7.37,99.67-3.14,130.11,12.56c14.01,7.23,23,15.84,28.7,23.37c5.71-7.52,14.69-16.14,28.7-23.37
				c30.44-15.7,74.21-19.93,130.11-12.56c15.14,2,30.72,9.01,46.31,20.84c14.49,11,28.66,25.9,42.13,44.3
				c23.13,31.59,42.85,71.84,56.52,115.03c11.54-14.67,25.33-22.3,40.61-22.3c0.19,0,0.39,0,0.58,0c10.77,0.14,16.82,5.07,20,9.19
				c11.66,15.1,4.6,43.47-2.86,73.51c-3.8,15.29-7.73,31.1-7.73,41.18c0,9.88,10.7,24.79,22.03,40.58
				c10.72,14.94,22.87,31.86,29.9,49.92c8.59,22.09,8.1,41.91-1.49,60.61c-6.67,12.99-16.24,22.27-27.67,26.85
				c-10.36,4.15-22,4.42-33.66,0.8c-13.65-4.24-26.58-13.73-35.48-26.04c-1.56-2.16-2.99-4.38-4.26-6.65
				c-6.22,15.64-13.79,30.36-22.65,44.02c-16.17,24.94-36.82,46.6-61.36,64.38c-52.45,38-123.02,58.8-209.86,61.88v0.43l-9.85-0.16
				l-0.16,0L590.15,1200z M303.81,990.9c21.65,84.27,90.58,185.62,296.06,189.86l0.13,0l0.12,0
				c205.48-4.24,274.42-105.59,296.06-189.86l18.68,3.59c-2.86,22.23,15.4,43.43,34.25,49.28c9.47,2.94,27.1,4.5,38.73-18.15
				c7.06-13.75,7.28-28.05,0.69-44.99c-6.15-15.81-17.06-31.02-27.62-45.72c-13.74-19.14-25.61-35.67-25.61-51.69
				c0-12.41,4.03-28.62,8.29-45.78c3.19-12.83,6.49-26.1,7.84-37.14c1.67-13.58-0.27-18.44-1.57-20.13
				c-0.4-0.52-1.33-1.73-5.15-1.78c-0.1,0-0.21,0-0.31,0c-16.61,0-28.34,16.62-35.29,30.61l-11.24,22.66l-6.5-24.45
				c-12.95-48.7-34.08-94.63-59.5-129.35c-24.84-33.93-51.68-54.35-75.56-57.5c-120.93-15.94-143.55,29.44-146.86,38.7
				c-1.41,3.97-5.22,6.65-9.46,6.65c0,0,0,0-0.01,0c-4.24,0-8.04-2.67-9.46-6.65c-3.31-9.26-25.93-54.64-146.86-38.7
				c-23.88,3.15-50.71,23.57-75.56,57.5c-25.42,34.72-46.55,80.65-59.5,129.35l-6.5,24.45L290.88,809
				c-6.98-14.08-18.84-30.8-35.6-30.6c-3.82,0.05-4.75,1.26-5.15,1.78c-1.3,1.69-3.24,6.55-1.57,20.13
				c1.36,11.05,4.65,24.31,7.84,37.14c4.26,17.16,8.29,33.36,8.29,45.78c0,16.01-11.87,32.55-25.61,51.69
				c-10.55,14.7-21.47,29.91-27.62,45.72c-6.59,16.95-6.37,31.24,0.69,44.99c11.63,22.65,29.26,21.09,38.73,18.15
				c18.85-5.85,37.11-27.05,34.25-49.28L303.81,990.9z" class="st6"></path>
		</g>
		<g>
			<g>
				<path d="M294.6,993.27c0,0-5.44-22.86-3.89-37.63" class="st8"></path>
				<path d="M285.33,995.48c-0.24-1-5.79-24.63-4.1-40.82l18.96,1.98c-1.12,10.75,2.28,28.51,3.69,34.44L285.33,995.48z" class="st6"></path>
			</g>
			<g>
				<path d="M905.4,993.27c0,0,5.44-22.86,3.89-37.63" class="st8"></path>
				<path d="M914.67,995.48l-18.54-4.41c0,0,0,0,0,0l0,0c1.41-5.94,4.81-23.69,3.69-34.44l18.96-1.98
					C920.47,970.85,914.91,994.48,914.67,995.48z" class="st6"></path>
			</g>
		</g>
		<g>
			<path d="M939.95,749.01c-6.74-49.53-26.01-92.57-54.79-128.22c-7.44-9.21-15.51-17.94-24.18-26.15
				c-13.41-12.72-28.23-24.22-44.25-34.43c-59.05-37.66-134.51-57.93-216.74-57.93c-82.22,0-157.68,20.27-216.73,57.93
				c-16.02,10.21-30.84,21.71-44.25,34.43c-8.66,8.21-16.73,16.93-24.17,26.14c-28.78,35.65-48.05,78.69-54.79,128.22
				c-0.89,6.53-1.56,13.18-2.01,19.94c20.06,1.4,33.47,19.9,41.37,35.82c4.49-16.88,9.89-33.27,16.03-48.9
				c24.14-7.1,43.66-26.97,49.07-53.34c0.9-4.4,1.37-8.8,1.43-13.13c10.25,5.85,22.12,9.19,34.77,9.19
				c19.54,0,37.2-7.97,49.94-20.83c13.38,28.89,42.63,48.94,76.56,48.94c31.03,0,58.13-16.76,72.78-41.71
				c14.65,24.95,41.76,41.71,72.78,41.71c33.94,0,63.19-20.05,76.57-48.94c12.74,12.86,30.4,20.83,49.93,20.83
				c12.65,0,24.51-3.34,34.77-9.19c0.07,4.34,0.53,8.73,1.43,13.13c5.41,26.36,24.93,46.23,49.07,53.33
				c6.14,15.64,11.55,32.03,16.03,48.9c7.9-15.91,21.31-34.42,41.37-35.82C941.51,762.19,940.84,755.55,939.95,749.01z" class="st7"></path>
			<path d="M897.88,831.65l-6.5-24.44c-3.94-14.81-8.67-29.49-14.08-43.71c-26.12-9.41-45.52-31.65-51.14-59.07
				c-0.06-0.3-0.12-0.61-0.18-0.91c-8.53,3.02-17.56,4.59-26.69,4.59c-17.24,0-33.62-5.42-47.23-15.46
				c-7.18,11.31-16.73,21-28.07,28.39c-15.24,9.93-32.94,15.18-51.2,15.18c-16.66,0-33.04-4.43-47.35-12.8
				c-9.72-5.69-18.34-13.1-25.44-21.79c-7.09,8.7-15.71,16.1-25.43,21.79c-14.31,8.38-30.68,12.8-47.35,12.8
				c-18.26,0-35.96-5.25-51.19-15.18c-11.34-7.39-20.89-17.08-28.07-28.39c-13.61,10.04-30,15.46-47.24,15.46
				c-9.12,0-18.15-1.56-26.68-4.58c-0.06,0.3-0.12,0.6-0.18,0.9c-5.63,27.43-25.02,49.67-51.15,59.08
				c-5.4,14.19-10.13,28.87-14.08,43.7l-6.5,24.44L290.88,809c-6.62-13.33-17.8-29.45-33.5-30.55l-9.47-0.66l0.62-9.47
				c0.45-6.9,1.15-13.83,2.07-20.6c6.8-49.92,25.91-94.64,56.82-132.92c7.62-9.44,16.04-18.55,25.03-27.07
				c13.73-13.02,29.1-24.99,45.69-35.56c30.24-19.29,64.67-34.18,102.33-44.26c37.6-10.07,77.82-15.17,119.52-15.17
				c41.71,0,81.92,5.1,119.53,15.17c37.66,10.08,72.09,24.97,102.34,44.26c16.58,10.57,31.95,22.53,45.68,35.55
				c8.97,8.5,17.39,17.61,25.03,27.08c30.91,38.28,50.02,83,56.82,132.92l0,0c0.92,6.77,1.62,13.7,2.07,20.6l0.62,9.47l-9.47,0.66
				c-15.7,1.1-26.88,17.22-33.5,30.55L897.88,831.65z M843.33,673.13l0.25,16.12c0.06,3.8,0.48,7.62,1.24,11.37
				c4.53,22.07,20.78,39.73,42.42,46.1l4.48,1.32l1.71,4.34c3.76,9.57,7.22,19.36,10.36,29.28c8.26-10.48,17.7-17.39,27.99-20.48
				c-0.35-3.65-0.77-7.29-1.26-10.87l0,0c-6.32-46.43-24.07-87.99-52.76-123.52c-7.11-8.81-14.96-17.3-23.32-25.22
				c-12.85-12.19-27.25-23.39-42.82-33.31c-57.9-36.93-131.07-56.44-211.62-56.44c-80.54,0-153.72,19.52-211.61,56.44
				c-15.56,9.92-29.97,21.13-42.82,33.31c-8.38,7.94-16.22,16.43-23.31,25.22c-28.69,35.53-46.44,77.09-52.76,123.52
				c-0.49,3.59-0.91,7.22-1.26,10.88c10.29,3.08,19.72,9.99,27.99,20.47c3.14-9.92,6.6-19.71,10.36-29.27l1.71-4.34l4.48-1.32
				c21.64-6.36,37.9-24.03,42.43-46.11c0.77-3.74,1.18-7.57,1.24-11.35l0.23-16.14l14.02,7.99c9.11,5.19,19.5,7.94,30.05,7.94
				c16.34,0,31.67-6.4,43.17-18.01l9.65-9.75l5.76,12.45c12.21,26.38,38.87,43.42,67.92,43.42c26.43,0,51.17-14.18,64.56-37l8.22-14
				l8.22,14c13.4,22.83,38.14,37,64.56,37c29.05,0,55.71-17.04,67.92-43.42l5.76-12.45l9.65,9.75
				c11.5,11.61,26.83,18.01,43.16,18.01c10.55,0,20.94-2.75,30.05-7.94L843.33,673.13z" class="st6"></path>
		</g>
		<g>
			<path d="M299.18,662.52C323.74,544.86,449.08,455.3,600,455.3c150.7,0,275.89,89.3,300.71,206.71
				c2.94,13.9,4.47,1.41,4.47,1.41c0-137.79-136.63-249.49-305.18-249.49s-305.18,111.7-305.18,249.49
				C294.82,663.42,296.31,676.26,299.18,662.52z" class="st9"></path>
			<path d="M296.67,676.02c-0.12,0-0.23,0-0.33-0.01c-2.83-0.13-6.52-1.67-8.03-8.29c-0.39-1.69-0.58-3.29-0.6-3.47
				l-0.05-0.41v-0.41c0-34.84,8.34-68.61,24.78-100.4c15.82-30.58,38.44-58.02,67.23-81.55c28.68-23.45,62.05-41.85,99.19-54.69
				c38.38-13.27,79.13-20,121.13-20s82.75,6.73,121.13,20c37.14,12.84,70.51,31.24,99.19,54.69c28.79,23.53,51.41,50.97,67.23,81.55
				c16.44,31.78,24.78,65.56,24.78,100.4v0.44l-0.05,0.43c-0.9,7.37-3.81,11.22-8.63,11.43c-1.65,0.08-5.74-0.34-8.05-5.71
				c-0.67-1.56-1.27-3.63-1.88-6.52C869.1,547,745.57,462.45,600,462.45c-145.87,0-269.44,84.76-293.82,201.53
				c-0.58,2.8-1.16,4.81-1.8,6.33C302.23,675.35,298.49,676.02,296.67,676.02z M600,448.15c37.56,0,74.29,5.42,109.17,16.1
				c33.75,10.34,64.86,25.31,92.47,44.5c40.15,27.91,70.89,63.56,89.65,103.29C862.25,503.01,742.67,421.08,600,421.08
				c-142.66,0-262.23,81.94-291.29,190.97c18.72-39.65,49.37-75.24,89.42-103.12c27.63-19.24,58.77-34.26,92.56-44.62
				C525.6,453.59,562.38,448.15,600,448.15z" class="st6"></path>
		</g>
		<g>
			<path d="M299.18,705.52C323.74,587.86,449.08,498.3,600,498.3c150.7,0,275.89,89.3,300.71,206.71
				c2.94,13.9,4.47,1.41,4.47,1.41c0-137.79-136.63-249.49-305.18-249.49s-305.18,111.7-305.18,249.49
				C294.82,706.42,296.31,719.26,299.18,705.52z" class="st9"></path>
			<path d="M296.67,719.02c-0.12,0-0.23,0-0.33-0.01c-2.83-0.13-6.52-1.67-8.03-8.29c-0.39-1.69-0.58-3.29-0.6-3.47
				l-0.05-0.41v-0.41c0-34.84,8.34-68.61,24.78-100.4c15.82-30.58,38.44-58.02,67.23-81.55c28.68-23.45,62.05-41.85,99.19-54.69
				c38.38-13.27,79.13-20,121.13-20s82.75,6.73,121.13,20c37.14,12.84,70.51,31.24,99.19,54.69c28.79,23.53,51.41,50.97,67.23,81.55
				c16.44,31.78,24.78,65.56,24.78,100.4v0.44l-0.05,0.43c-0.9,7.37-3.81,11.22-8.63,11.43c-1.65,0.08-5.74-0.34-8.05-5.71
				c-0.67-1.56-1.27-3.63-1.88-6.52C869.1,590,745.57,505.45,600,505.45c-145.87,0-269.44,84.76-293.82,201.53
				c-0.58,2.8-1.16,4.81-1.8,6.33C302.23,718.35,298.49,719.02,296.67,719.02z M600,491.15c37.56,0,74.29,5.42,109.17,16.1
				c33.75,10.34,64.86,25.31,92.47,44.5c40.15,27.91,70.89,63.56,89.65,103.29C862.25,546.01,742.67,464.08,600,464.08
				c-142.66,0-262.23,81.94-291.29,190.97c18.72-39.65,49.37-75.24,89.42-103.12c27.63-19.24,58.77-34.26,92.56-44.62
				C525.6,496.59,562.38,491.15,600,491.15z" class="st6"></path>
		</g>
		<g>
			<g>
				<g>
					<g>
						<circle r="55.61" cy="672.38" cx="275.28" class="st9"></circle>
						<path d="M275.28,735.13c-34.6,0-62.76-28.15-62.76-62.75s28.15-62.75,62.76-62.75c34.6,0,62.75,28.15,62.75,62.75
							S309.89,735.13,275.28,735.13z M275.28,623.92c-26.72,0-48.46,21.74-48.46,48.46c0,26.72,21.74,48.46,48.46,48.46
							c26.72,0,48.46-21.74,48.46-48.46C323.74,645.66,302.01,623.92,275.28,623.92z" class="st6"></path>
					</g>
					<g>
						<circle r="24.66" cy="672.38" cx="275.28" class="st10"></circle>
						<path d="M275.28,704.18c-17.54,0-31.8-14.27-31.8-31.8s14.27-31.8,31.8-31.8c17.54,0,31.8,14.27,31.8,31.8
							S292.82,704.18,275.28,704.18z M275.28,654.87c-9.65,0-17.51,7.85-17.51,17.51c0,9.65,7.85,17.51,17.51,17.51
							c9.65,0,17.51-7.85,17.51-17.51C292.79,662.72,284.94,654.87,275.28,654.87z" class="st6"></path>
					</g>
				</g>
			</g>
			<g>
				<g>
					<g>
						<circle r="55.61" cy="672.38" cx="924.72" class="st9"></circle>
						<path d="M924.72,735.13c-34.6,0-62.76-28.15-62.76-62.75s28.15-62.75,62.76-62.75c34.6,0,62.75,28.15,62.75,62.75
							S959.32,735.13,924.72,735.13z M924.72,623.92c-26.72,0-48.46,21.74-48.46,48.46c0,26.72,21.74,48.46,48.46,48.46
							c26.72,0,48.46-21.74,48.46-48.46C973.18,645.66,951.44,623.92,924.72,623.92z" class="st6"></path>
					</g>
					<g>
						<circle r="24.66" cy="672.38" cx="924.72" class="st10"></circle>
						<path d="M924.72,704.18c-17.54,0-31.8-14.27-31.8-31.8s14.27-31.8,31.8-31.8s31.8,14.27,31.8,31.8
							S942.25,704.18,924.72,704.18z M924.72,654.87c-9.65,0-17.51,7.85-17.51,17.51c0,9.65,7.85,17.51,17.51,17.51
							s17.51-7.85,17.51-17.51C942.23,662.72,934.37,654.87,924.72,654.87z" class="st6"></path>
					</g>
				</g>
			</g>
		</g>
		<g>
			<g>
				<g>
					<g>
						
							<ellipse ry="70.85" rx="45.36" cy="436.88" cx="530.43" class="st0" transform="matrix(0.8814 -0.4723 0.4723 0.8814 -143.4483 302.3184)"></ellipse>
						<path d="M549.08,510.1c-8.52,0-17.62-2.57-26.75-7.67c-15.05-8.41-28.61-22.88-38.19-40.75
							c-9.58-17.87-14.11-37.18-12.78-54.37c1.43-18.36,9.32-32.27,22.22-39.19c12.9-6.91,28.86-5.78,44.94,3.2
							c15.05,8.41,28.61,22.88,38.19,40.75l0,0c9.58,17.87,14.11,37.18,12.78,54.37c-1.43,18.36-9.32,32.27-22.22,39.19
							C561.7,508.62,555.56,510.1,549.08,510.1z M511.79,377.97c-4.16,0-8.02,0.91-11.45,2.75c-8.46,4.53-13.69,14.37-14.72,27.7
							c-1.13,14.5,2.82,31.01,11.13,46.51c8.3,15.49,19.86,27.93,32.56,35.02c11.67,6.52,22.76,7.61,31.21,3.08
							c8.46-4.53,13.69-14.37,14.72-27.7c1.13-14.5-2.82-31.01-11.13-46.51l0,0c-8.3-15.49-19.87-27.93-32.56-35.02
							C524.62,379.93,517.89,377.97,511.79,377.97z" class="st6"></path>
					</g>
				</g>
			</g>
			<g>
				<g>
					<g>
						
							<ellipse ry="45.36" rx="70.85" cy="438.78" cx="669.57" class="st0" transform="matrix(0.4723 -0.8814 0.8814 0.4723 -33.4271 821.7315)"></ellipse>
						<path d="M650.92,512.01c-6.47,0-12.62-1.48-18.19-4.47c-12.9-6.91-20.79-20.83-22.22-39.19
							c-1.34-17.19,3.2-36.5,12.78-54.37c9.58-17.87,23.14-32.34,38.19-40.75c16.07-8.98,32.03-10.12,44.94-3.2
							c12.9,6.91,20.79,20.83,22.22,39.19c1.34,17.19-3.2,36.5-12.78,54.37c-9.58,17.87-23.14,32.34-38.19,40.75
							C668.53,509.44,659.44,512.01,650.92,512.01z M688.21,379.88c-6.09,0-12.82,1.96-19.76,5.83
							c-12.7,7.09-24.26,19.53-32.56,35.02c-8.3,15.49-12.25,32.01-11.13,46.51c1.04,13.33,6.26,23.16,14.72,27.7
							c8.46,4.53,19.54,3.44,31.21-3.08c12.69-7.09,24.26-19.53,32.56-35.02c8.3-15.49,12.25-32.01,11.13-46.51
							c-1.04-13.33-6.26-23.16-14.72-27.7C696.23,380.79,692.37,379.88,688.21,379.88z" class="st6"></path>
					</g>
				</g>
			</g>
		</g>
		<g>
			<g>
				<g>
					<ellipse ry="91.96" rx="70.85" cy="403.65" cx="600" class="st9"></ellipse>
					<path d="M600,502.75c-21.19,0-41-10.55-55.76-29.72C529.9,454.42,522,429.78,522,403.65s7.9-50.78,22.24-69.39
						C559,315.1,578.81,304.54,600,304.54c21.19,0,41,10.55,55.76,29.72C670.1,352.87,678,377.52,678,403.65s-7.9,50.78-22.24,69.39
						C641,492.2,621.19,502.75,600,502.75z M600,318.84c-35.13,0-63.71,38.05-63.71,84.81s28.58,84.81,63.71,84.81
						c35.13,0,63.71-38.05,63.71-84.81S635.13,318.84,600,318.84z" class="st6"></path>
				</g>
				<g>
					<ellipse ry="54.79" rx="42.22" cy="403.65" cx="600" class="st10"></ellipse>
					<path d="M600,465.59c-13.54,0-26.16-6.69-35.52-18.83c-8.93-11.59-13.85-26.9-13.85-43.11s4.92-31.52,13.85-43.11
						c9.36-12.14,21.97-18.83,35.52-18.83c13.54,0,26.16,6.69,35.51,18.83c8.93,11.59,13.85,26.9,13.85,43.11
						s-4.92,31.52-13.85,43.11C626.16,458.9,613.54,465.59,600,465.59z M600,356c-9.01,0-17.6,4.71-24.19,13.26
						c-7.02,9.11-10.88,21.32-10.88,34.38s3.86,25.28,10.88,34.38c6.59,8.55,15.18,13.26,24.19,13.26c9.01,0,17.6-4.71,24.19-13.26
						c7.02-9.11,10.88-21.32,10.88-34.38c0-13.07-3.86-25.28-10.88-34.38C617.6,360.71,609.01,356,600,356z" class="st6"></path>
				</g>
			</g>
		</g>
		<g>
			<g>
				<g>
					<g>
						
							<ellipse ry="55.61" rx="36.62" cy="483.29" cx="505.9" class="st11" transform="matrix(0.3158 -0.9488 0.9488 0.3158 -112.4241 810.6719)"></ellipse>
						<path d="M519.34,529.38c-8.86,0-18.15-1.53-27.26-4.57c-15.4-5.13-28.64-13.99-37.28-24.95
							c-9.32-11.83-12.32-24.75-8.44-36.39c3.87-11.64,14.02-20.19,28.57-24.07c13.48-3.6,29.39-2.76,44.8,2.36
							c15.4,5.13,28.64,13.99,37.28,24.95c9.32,11.83,12.32,24.75,8.44,36.39c-3.87,11.64-14.02,20.19-28.57,24.07
							C531.37,528.65,525.45,529.38,519.34,529.38z M492.47,451.48c-4.87,0-9.54,0.57-13.86,1.73c-9.75,2.6-16.39,7.85-18.69,14.78
							c-2.3,6.92-0.13,15.1,6.11,23.03c6.93,8.79,17.78,15.98,30.56,20.24c24.92,8.3,50.24,2.5,55.29-12.66l0,0
							c2.3-6.92,0.13-15.1-6.11-23.03c-6.93-8.79-17.78-15.98-30.56-20.24C507.53,452.77,499.78,451.48,492.47,451.48z" class="st6"></path>
					</g>
				</g>
			</g>
			<g>
				<g>
					<g>
						
							<ellipse ry="36.62" rx="55.61" cy="483.29" cx="694.1" class="st11" transform="matrix(0.9488 -0.3158 0.3158 0.9488 -117.1036 243.9332)"></ellipse>
						<path d="M680.66,529.38c-6.12,0-12.03-0.73-17.53-2.2c-14.55-3.89-24.69-12.44-28.57-24.07l0,0
							c-3.87-11.64-0.87-24.56,8.44-36.39c8.64-10.96,21.88-19.83,37.28-24.95c15.4-5.13,31.31-5.97,44.8-2.36
							c14.55,3.89,24.69,12.44,28.57,24.07c3.87,11.64,0.87,24.56-8.44,36.39c-8.64,10.96-21.88,19.83-37.28,24.95
							C698.81,527.85,689.52,529.38,680.66,529.38z M707.53,451.48c-7.31,0-15.06,1.29-22.73,3.85
							c-12.78,4.25-23.64,11.44-30.56,20.24c-6.24,7.93-8.41,16.11-6.11,23.03l0,0c5.04,15.16,30.36,20.95,55.29,12.66
							c12.78-4.25,23.64-11.44,30.56-20.24c6.24-7.93,8.41-16.11,6.11-23.03c-2.3-6.92-8.94-12.17-18.69-14.78
							C717.07,452.05,712.39,451.48,707.53,451.48z" class="st6"></path>
					</g>
				</g>
			</g>
		</g>
		<g>
			<g>
				<g>
					<g>
						
							<ellipse ry="18.28" rx="27.75" cy="486.62" cx="683.86" class="st10" transform="matrix(0.9488 -0.3158 0.3158 0.9488 -118.6811 240.8687)"></ellipse>
						<path d="M677.12,513.23c-12.62,0-23.1-5.73-26.38-15.58c-2.29-6.89-0.54-14.73,4.8-21.51
							c4.74-6.02,11.94-10.86,20.29-13.64c8.34-2.78,17.02-3.22,24.41-1.24c8.34,2.23,14.44,7.46,16.73,14.34
							c2.29,6.89,0.54,14.73-4.8,21.51c-4.74,6.02-11.94,10.86-20.29,13.64C686.84,512.43,681.83,513.23,677.12,513.23z
							 M690.6,474.34c-3.29,0-6.82,0.58-10.25,1.72c-5.64,1.88-10.59,5.13-13.57,8.92c-2.31,2.94-3.21,5.91-2.47,8.15
							c1.66,4.98,11.88,7.78,23.07,4.05c5.64-1.88,10.59-5.13,13.57-8.92c2.31-2.94,3.21-5.91,2.47-8.15
							c-0.75-2.24-3.25-4.08-6.86-5.05C694.73,474.58,692.71,474.34,690.6,474.34z" class="st6"></path>
					</g>
				</g>
			</g>
			<g>
				<g>
					<g>
						
							<ellipse ry="27.75" rx="18.28" cy="486.62" cx="516.14" class="st10" transform="matrix(0.3158 -0.9488 0.9488 0.3158 -108.5797 822.6738)"></ellipse>
						<path d="M522.85,513.21c-4.81,0-9.83-0.83-14.74-2.46c-8.34-2.78-15.55-7.62-20.29-13.64
							c-5.34-6.78-7.09-14.62-4.8-21.51c2.29-6.89,8.39-12.11,16.73-14.34c7.4-1.98,16.07-1.53,24.41,1.24
							c8.34,2.78,15.55,7.62,20.29,13.64c5.34,6.78,7.09,14.62,4.8,21.51v0c0,0,0,0,0,0c-2.29,6.89-8.39,12.11-16.73,14.34
							C529.48,512.8,526.22,513.21,522.85,513.21z M509.41,474.34c-2.12,0-4.13,0.24-5.96,0.73c-3.61,0.97-6.11,2.8-6.86,5.05
							c-0.75,2.24,0.15,5.21,2.47,8.15c2.98,3.79,7.93,7.04,13.57,8.92c5.64,1.88,11.55,2.24,16.21,0.99
							c3.61-0.96,6.11-2.8,6.86-5.05v0c0.75-2.24-0.15-5.21-2.47-8.15c-2.98-3.79-7.93-7.04-13.57-8.92
							C516.22,474.92,512.69,474.34,509.41,474.34z" class="st6"></path>
					</g>
				</g>
			</g>
		</g>
		<g>
			<g>
				<g>
					<circle r="55.61" cy="495.61" cx="600" class="st9"></circle>
					<path d="M600,558.36c-34.6,0-62.76-28.15-62.76-62.75s28.15-62.75,62.76-62.75c34.6,0,62.75,28.15,62.75,62.75
						S634.6,558.36,600,558.36z M600,447.15c-26.72,0-48.46,21.74-48.46,48.46s21.74,48.46,48.46,48.46
						c26.72,0,48.46-21.74,48.46-48.46S626.72,447.15,600,447.15z" class="st6"></path>
				</g>
				<g>
					<circle r="41.79" cy="481.79" cx="600" class="st9"></circle>
					<path d="M600,530.73c-26.98,0-48.94-21.95-48.94-48.94s21.95-48.94,48.94-48.94c26.98,0,48.94,21.95,48.94,48.94
						S626.98,530.73,600,530.73z M600,447.15c-19.1,0-34.64,15.54-34.64,34.64s15.54,34.64,34.64,34.64
						c19.1,0,34.64-15.54,34.64-34.64S619.1,447.15,600,447.15z" class="st6"></path>
				</g>
				<g>
					<circle r="24.66" cy="444.63" cx="600" class="st12"></circle>
					<path d="M600,476.43c-17.54,0-31.8-14.27-31.8-31.8c0-17.54,14.27-31.8,31.8-31.8s31.8,14.27,31.8,31.8
						C631.8,462.16,617.54,476.43,600,476.43z M600,427.12c-9.65,0-17.51,7.85-17.51,17.51c0,9.65,7.85,17.51,17.51,17.51
						s17.51-7.85,17.51-17.51C617.51,434.97,609.65,427.12,600,427.12z" class="st6"></path>
				</g>
			</g>
		</g>
	</g>
	<g>
		<g>
			<g>
				<path d="M504.9,847.8c-1.98,0-3.89-1.1-4.83-3c-0.02-0.03-3.12-6.05-10.97-12.72
					c-7.25-6.16-20.18-14.18-40.59-17.36c-27.99-4.36-53.78,0.18-70.48,4.76c-18.23,5-29.93,11.13-30.05,11.19
					c-2.62,1.39-5.88,0.39-7.27-2.24c-1.39-2.62-0.39-5.88,2.23-7.27c0.51-0.27,12.65-6.66,31.93-11.97
					c17.79-4.91,45.29-9.77,75.29-5.1c44.8,6.98,58.97,34.77,59.55,35.95c1.31,2.66,0.22,5.89-2.45,7.2
					C506.51,847.62,505.7,847.79,504.9,847.8z" class="st6"></path>
				<path d="M695.1,847.8c-0.8,0-1.61-0.18-2.37-0.56c-2.66-1.31-3.76-4.54-2.45-7.2c0.58-1.18,14.76-28.97,59.55-35.95
					c30-4.67,57.5,0.19,75.29,5.1c19.28,5.32,31.42,11.71,31.93,11.97c2.62,1.39,3.62,4.65,2.23,7.27
					c-1.39,2.62-4.65,3.62-7.27,2.23c-0.2-0.11-11.88-6.21-30.04-11.19c-16.7-4.58-42.48-9.12-70.48-4.76
					c-39.34,6.13-51.44,29.84-51.56,30.08C698.99,846.69,697.08,847.79,695.1,847.8z" class="st6"></path>
			</g>
			<g>
				<g>
					<path d="M493.94,932.42c-0.05,0-0.11,0-0.16,0c-4.28-0.08-7.37-3-11.65-7.05c-7.52-7.13-20.11-19.05-45.48-22.15
						c-45.66-5.58-67.69-18.9-86.44-40.46c-0.37-0.42-0.69-0.87-0.95-1.35c-0.03-0.06-0.06-0.11-0.07-0.15
						c-0.94-2.23-0.64-4.43,1.63-5.8c2.23-1.35,5.36-0.41,6.89,1.54c0.87,1.03,23.65,27.36,73.82,32.01
						c19.38,1.79,36.43,6.24,49.3,12.86c10.44,5.37,17.9,12.05,20.45,18.34c1.64,4.05,1.03,7.74-1.69,10.11
						C497.58,932.03,495.44,932.42,493.94,932.42z M357.72,857.02C357.72,857.02,357.73,857.02,357.72,857.02
						c0.02,0.03,0.04,0.05,0.06,0.08C357.76,857.07,357.74,857.04,357.72,857.02z" class="st6"></path>
				</g>
				<g>
					<path d="M700.43,930.3c-2.72-2.37-3.34-6.06-1.69-10.11c2.55-6.28,10-12.97,20.45-18.34
						c12.87-6.62,29.92-11.06,49.3-12.86c50.17-4.65,72.96-30.98,73.82-32.01c1.52-1.95,4.66-2.89,6.89-1.54
						c2.27,1.37,2.57,3.57,1.63,5.8c-0.02,0.04-0.04,0.09-0.07,0.15c-0.26,0.48-0.58,0.93-0.95,1.35
						c-18.75,21.56-40.78,34.88-86.44,40.46c-25.37,3.1-37.96,15.03-45.48,22.15c-4.28,4.05-7.37,6.98-11.65,7.05
						c-0.05,0-0.11,0-0.16,0C704.56,932.42,702.42,932.03,700.43,930.3z M842.22,857.09c0.02-0.02,0.04-0.05,0.06-0.07c0,0,0,0,0,0
						C842.26,857.04,842.24,857.07,842.22,857.09z" class="st6"></path>
				</g>
			</g>
		</g>
		<path d="M579.72,1116.88c1.94,8.2,12.38,13.41,20.74,13.41c8.28,0,19.35-4.72,20.59-13.17l1.2-13.55l-44.5,0.98
			L579.72,1116.88z" class="st13"></path>
		<ellipse ry="13.45" rx="3.67" cy="818.23" cx="600" class="st14"></ellipse>
		<g>
			<path d="M622.2,1087.11c-9.73-0.39-17.17,6.67-20.42,10.43c-0.94,1.09-2.63,1.09-3.57,0
				c-3.25-3.75-10.68-10.82-20.42-10.43c-11.73,0.47-15.96,10.1-16.77,12.26c-0.1,0.27-0.15,0.54-0.15,0.83l0,0
				c0,0.75,0.35,1.46,0.95,1.9c17.82,13.05,34.47,11.45,37.66,11.57c0.34,0.01,0.67,0.01,1.01,0c3.19-0.12,19.85,1.48,37.66-11.57
				c0.6-0.44,0.95-1.15,0.95-1.9l0,0c0-0.28-0.05-0.56-0.15-0.83C638.17,1097.21,633.93,1087.58,622.2,1087.11z" class="st13"></path>
			<path d="M643.55,1097.67c-2.66-7.16-9.62-14.98-21.16-15.44h0c-10.04-0.4-17.83,5.41-22.4,10.04
				c-4.57-4.63-12.35-10.44-22.4-10.04c-11.53,0.46-18.49,8.28-21.16,15.44c-0.3,0.81-0.46,1.66-0.46,2.53
				c0,2.31,1.1,4.49,2.95,5.84c5.32,3.89,10.55,6.58,15.41,8.43l0.55,3.18l0.07,0.35c2.54,10.75,14.96,17.17,25.49,17.17
				c9.5,0,23.67-5.38,25.43-17.35l0.31-3.57c4.7-1.84,9.74-4.47,14.86-8.22c1.85-1.35,2.95-3.54,2.95-5.84
				C644.01,1099.33,643.86,1098.48,643.55,1097.67z M600.46,1125.4c-5.76,0-12.89-3.27-15.31-7.89c5.98,1.11,10.65,1.07,13.08,1.04
				c0.46,0,0.82-0.01,1.07,0c0.23,0.01,0.47,0.01,0.7,0.01c0.23,0,0.46,0,0.69-0.01c0.26-0.01,0.62,0,1.07,0
				c2.59,0.03,7.7,0.07,14.24-1.27C614.5,1121.99,606.87,1125.4,600.46,1125.4z M601.87,1108.78c-0.62-0.01-1.12-0.01-1.55,0.01
				c-0.22,0.01-0.42,0.01-0.64,0c-0.22-0.01-0.45-0.01-0.71-0.01c-0.25,0-0.53,0-0.84,0.01c-4.44,0.05-17.6,0.18-31.73-9.44
				c1.48-2.77,4.84-7.07,11.59-7.34c7.82-0.32,14.16,6.01,16.52,8.74c1.38,1.59,3.38,2.51,5.48,2.51c2.11,0,4.1-0.91,5.48-2.51
				c2.36-2.73,8.7-9.04,16.52-8.74c6.75,0.27,10.12,4.57,11.59,7.34C619.46,1108.96,606.3,1108.82,601.87,1108.78z" class="st6"></path>
		</g>
	</g>
</g>
</svg>
