<svg xml:space="preserve" style="enable-background:new 0 0 1200 1200;" viewBox="0 0 1200 1200" y="0px" x="0px" xmlns:xlink="http://www.w3.org/1999/xlink" xmlns="http://www.w3.org/2000/svg" id="图层_1" version="1.1">
<style type="text/css">
	.st0{fill:#4C73A8;}
	.st1{fill:#75B9AC;}
	.st2{fill:#B1C68D;}
	.st3{fill:#D5D8BF;}
	.st4{fill:#E5DCD6;}
	.st5{fill:#333333;}
	.st6{fill:#75614E;}
	.st7{fill:#E4E4ED;}
	.st8{fill:#4880AA;}
	.st9{fill:#FCF0E6;}
	.st10{fill:#DD725E;}
	.st11{fill:#75614E;stroke:#DD725E;stroke-width:20;stroke-linecap:round;stroke-miterlimit:10;}
</style>
<g>
	<g>
		<circle r="600" cy="600" cx="600" class="st0"></circle>
		<circle r="584" cy="600" cx="600" class="st1"></circle>
		<circle r="557.38" cy="600" cx="600" class="st2"></circle>
		<circle r="531.38" cy="600" cx="600" class="st3"></circle>
		<circle r="470.33" cy="600" cx="600" class="st4"></circle>
		<g>
			<g>
				<g>
					<g>
						<path d="M215.37,865.96c0,0-1.98,177.85-99.42,212.71c0,0,6.73,42.38,68.92,37.63c0,0,49.91-38.82,53.08-219.05
							L215.37,865.96z" class="st5"></path>
						<path d="M175.56,1123.76c-28.69,0-44.89-10.38-53.63-19.62c-10.84-11.47-12.91-23.84-12.99-24.36
							c-0.54-3.37,1.41-6.65,4.62-7.8c47.41-16.96,70.64-71.64,81.77-114.53c12.32-47.43,12.94-91.14,12.94-91.58
							c0.03-3.07,2.03-5.76,4.95-6.69c2.92-0.93,6.11,0.13,7.9,2.61l22.58,31.29c0.9,1.24,1.37,2.75,1.34,4.28
							c-3.19,181.54-53.67,222.86-55.82,224.53c-1.1,0.86-2.43,1.37-3.82,1.48C181.98,1123.64,178.69,1123.76,175.56,1123.76z
							 M124.65,1082.86c4.06,9.69,17.2,28.78,57.22,26.52c3.5-3.61,12.94-14.9,22.54-39.64c11.09-28.55,24.61-81.2,26.4-170.26
							l-9.41-13.05c-1.42,17.81-4.71,45.3-12.32,74.59c-7.55,29.08-17.82,53.82-30.51,73.54
							C163.79,1057.51,145.68,1073.73,124.65,1082.86z" class="st6"></path>
					</g>
					<g>
						<path d="M255.38,876.65c0,0-20.6,178.65-78.03,237.27c0,0,33.27,28.52,74.47,12.28c0,0,22.97-38.03,26.14-218.26
							L255.38,876.65z" class="st5"></path>
						<path d="M225.84,1138.28c-9.73,0-19.56-1.83-29.22-5.49c-14.46-5.48-23.51-13.15-23.89-13.48
							c-1.49-1.28-2.39-3.12-2.47-5.08c-0.09-1.96,0.65-3.87,2.02-5.28c55.1-56.24,75.85-231.35,76.05-233.12
							c0.34-2.91,2.43-5.32,5.26-6.06c2.84-0.74,5.83,0.34,7.55,2.72l22.58,31.29c0.9,1.24,1.37,2.75,1.34,4.28
							c-3.17,180.07-26.19,220.19-27.17,221.8c-0.8,1.33-2.03,2.36-3.47,2.93C245.17,1136.45,235.55,1138.28,225.84,1138.28z
							 M187.98,1112.75c3.46,2.15,8.29,4.77,14.13,6.94c15.13,5.62,30.1,5.9,44.56,0.86c1.86-4.31,6.11-15.88,10.53-39.68
							c5.31-28.63,11.96-81.42,13.63-170.68l-10.8-14.97c-2.65,17.95-7.58,47.57-15.21,79.73
							C229.41,1039.88,210.32,1086.17,187.98,1112.75z" class="st6"></path>
					</g>
				</g>
				<g>
					<g>
						<path d="M984.63,865.96c0,0,1.98,177.85,99.42,212.71c0,0-6.73,42.38-68.92,37.63c0,0-49.91-38.82-53.08-219.05
							L984.63,865.96z" class="st5"></path>
						<path d="M1024.44,1123.76c-3.13,0-6.42-0.12-9.86-0.39c-1.39-0.11-2.72-0.62-3.82-1.48
							c-2.15-1.67-52.63-42.99-55.82-224.53c-0.03-1.53,0.44-3.04,1.34-4.28l22.58-31.29c1.79-2.49,4.98-3.54,7.9-2.61
							c2.92,0.93,4.92,3.62,4.95,6.69l0,0c0.01,0.44,0.65,44.4,13.01,91.84c11.14,42.78,34.36,97.33,81.7,114.27
							c3.22,1.15,5.16,4.43,4.62,7.8c-0.08,0.52-2.15,12.9-12.99,24.36C1069.33,1113.38,1053.13,1123.76,1024.44,1123.76z
							 M1018.13,1109.38c22.03,1.24,39.16-3.93,49.62-14.99c3.9-4.13,6.23-8.35,7.58-11.54c-21.02-9.13-39.13-25.34-53.89-48.28
							c-12.7-19.72-22.96-44.47-30.51-73.54c-7.61-29.29-10.9-56.78-12.32-74.59l-9.41,13.05c1.78,89.06,15.31,141.71,26.4,170.26
							C1005.19,1094.48,1014.63,1105.77,1018.13,1109.38z" class="st6"></path>
					</g>
					<g>
						<path d="M944.62,876.65c0,0,20.6,178.65,78.03,237.27c0,0-33.27,28.52-74.47,12.28c0,0-22.97-38.03-26.14-218.26
							L944.62,876.65z" class="st5"></path>
						<path d="M974.16,1138.28c-9.72,0-19.33-1.82-28.59-5.47c-1.45-0.57-2.67-1.6-3.47-2.93
							c-0.98-1.62-24-41.73-27.17-221.8c-0.03-1.53,0.44-3.04,1.34-4.28l22.58-31.29c1.71-2.38,4.71-3.45,7.55-2.72
							c2.84,0.74,4.93,3.15,5.26,6.06c0.2,1.76,20.98,176.91,76.05,233.12c1.38,1.4,2.11,3.31,2.02,5.28
							c-0.09,1.96-0.98,3.8-2.47,5.08c-0.38,0.32-9.43,8-23.89,13.48C993.72,1136.45,983.89,1138.28,974.16,1138.28z
							 M953.33,1120.54c26.03,9.06,48.41-1.4,58.69-7.79c-22.34-26.58-41.43-72.87-56.83-137.81
							c-7.62-32.15-12.55-61.77-15.21-79.73l-10.8,14.97c1.67,89.26,8.32,142.05,13.63,170.68
							C947.22,1104.66,951.48,1116.23,953.33,1120.54z" class="st6"></path>
					</g>
				</g>
			</g>
			<g>
				<g>
					<circle r="78.57" cy="1052.63" cx="292.1" class="st7"></circle>
					<path d="M292.1,1138.3c-47.24,0-85.67-38.43-85.67-85.67c0-47.24,38.43-85.67,85.67-85.67s85.67,38.43,85.67,85.67
						C377.77,1099.87,339.34,1138.3,292.1,1138.3z M292.1,981.15c-39.41,0-71.47,32.06-71.47,71.47s32.06,71.47,71.47,71.47
						s71.47-32.06,71.47-71.47S331.51,981.15,292.1,981.15z" class="st6"></path>
				</g>
				<g>
					<circle r="78.57" cy="1052.63" cx="907.9" class="st7"></circle>
					<path d="M907.9,1138.3c-47.24,0-85.67-38.43-85.67-85.67c0-47.24,38.43-85.67,85.67-85.67s85.67,38.43,85.67,85.67
						C993.58,1099.87,955.14,1138.3,907.9,1138.3z M907.9,981.15c-39.41,0-71.47,32.06-71.47,71.47s32.06,71.47,71.47,71.47
						c39.41,0,71.47-32.06,71.47-71.47S947.32,981.15,907.9,981.15z" class="st6"></path>
				</g>
			</g>
			<g>
				<ellipse ry="86.68" rx="145.31" cy="357.31" cx="600" class="st0"></ellipse>
				<path d="M600,453.47c-40.5,0-78.71-9.49-107.6-26.73c-14.48-8.64-25.93-18.8-34.01-30.21
					c-8.73-12.32-13.16-25.51-13.16-39.22c0-13.7,4.43-26.9,13.16-39.22c8.09-11.4,19.53-21.57,34.01-30.21
					c28.89-17.23,67.1-26.73,107.6-26.73s78.71,9.49,107.6,26.73c14.48,8.64,25.93,18.8,34.01,30.21
					c8.73,12.32,13.16,25.51,13.16,39.22c0,13.7-4.43,26.9-13.16,39.22c-8.09,11.4-19.53,21.57-34.01,30.21
					C678.71,443.97,640.5,453.47,600,453.47z M600,280.1c-37.13,0-71.9,8.54-97.9,24.05c-24.47,14.6-37.94,33.48-37.94,53.17
					c0,19.69,13.48,38.57,37.94,53.17c26,15.51,60.77,24.05,97.9,24.05s71.9-8.54,97.9-24.05c24.47-14.6,37.94-33.48,37.94-53.17
					c0-19.69-13.48-38.57-37.94-53.17C671.9,288.64,637.13,280.1,600,280.1z" class="st6"></path>
			</g>
			<g>
				<path d="M792.41,426.93c-4.66,3.99-9.81,7.82-15.42,11.47c-40.52-45.25-104.72-74.49-176.99-74.49
					s-136.48,29.23-176.99,74.49c-5.61-3.65-10.76-7.48-15.42-11.47c38.33-56.27,110.14-94.15,192.41-94.15
					S754.08,370.66,792.41,426.93z" class="st7"></path>
				<path d="M424.23,447.68l-5.1-3.33c-5.86-3.82-11.3-7.87-16.16-12.03l-4.83-4.14l3.58-5.26
					c19.82-29.1,48.33-53.49,82.42-70.53c34.99-17.48,75.05-26.72,115.86-26.72s80.87,9.24,115.86,26.72
					c34.1,17.04,62.6,41.43,82.42,70.53l3.58,5.26l-4.83,4.14c-4.86,4.16-10.3,8.21-16.16,12.03l-5.1,3.33l-4.06-4.54
					c-41.04-45.83-103.62-72.12-171.7-72.12s-130.67,26.29-171.7,72.12L424.23,447.68z M600,356.82c36.31,0,71.04,7.01,103.21,20.85
					c28.75,12.36,54.51,30.08,74.85,51.43c1.62-1.15,3.19-2.31,4.72-3.48c-39.06-53.04-108.42-85.73-182.78-85.73
					s-143.72,32.69-182.78,85.73c1.52,1.17,3.1,2.34,4.72,3.48c20.34-21.35,46.1-39.07,74.85-51.43
					C528.96,363.83,563.69,356.82,600,356.82z" class="st6"></path>
			</g>
			<g>
				<ellipse ry="140.33" rx="235.25" cy="509.75" cx="600" class="st0"></ellipse>
				<path d="M600,659.55c-64.52,0-125.32-15.07-171.19-42.44c-22.74-13.57-40.67-29.47-53.29-47.26
					c-13.42-18.93-20.23-39.15-20.23-60.1c0-20.95,6.81-41.17,20.23-60.1c12.62-17.79,30.54-33.69,53.29-47.26
					c45.88-27.37,106.68-42.44,171.19-42.44s125.32,15.07,171.19,42.44c22.74,13.57,40.67,29.47,53.29,47.26
					c13.42,18.93,20.23,39.15,20.23,60.1c0,20.95-6.81,41.17-20.23,60.1c-12.62,17.79-30.54,33.69-53.29,47.26
					C725.32,644.48,664.52,659.55,600,659.55z M600,378.88c-61.15,0-118.51,14.12-161.5,39.77c-41.46,24.73-64.29,57.08-64.29,91.1
					s22.83,66.37,64.29,91.1c42.99,25.64,100.34,39.77,161.5,39.77s118.51-14.12,161.5-39.77c41.46-24.73,64.29-57.08,64.29-91.1
					s-22.83-66.37-64.29-91.1C718.51,393.01,661.15,378.88,600,378.88z" class="st6"></path>
			</g>
			<g>
				<g>
					<circle r="31.71" cy="930.03" cx="980.8" class="st7"></circle>
					<path d="M980.8,968.85c-21.4,0-38.81-17.41-38.81-38.81c0-21.4,17.41-38.81,38.81-38.81
						c21.4,0,38.81,17.41,38.81,38.81C1019.61,951.44,1002.2,968.85,980.8,968.85z M980.8,905.42c-13.57,0-24.61,11.04-24.61,24.61
						c0,13.57,11.04,24.61,24.61,24.61c13.57,0,24.61-11.04,24.61-24.61C1005.41,916.46,994.37,905.42,980.8,905.42z" class="st6"></path>
				</g>
				<g>
					<circle r="31.71" cy="930.03" cx="219.2" class="st7"></circle>
					<path d="M219.2,968.85c-21.4,0-38.81-17.41-38.81-38.81c0-21.4,17.41-38.81,38.81-38.81s38.81,17.41,38.81,38.81
						C258.02,951.44,240.6,968.85,219.2,968.85z M219.2,905.42c-13.57,0-24.61,11.04-24.61,24.61c0,13.57,11.04,24.61,24.61,24.61
						c13.57,0,24.61-11.04,24.61-24.61C243.82,916.46,232.77,905.42,219.2,905.42z" class="st6"></path>
				</g>
			</g>
			<g>
				<g>
					<circle r="31.71" cy="988.03" cx="1009.8" class="st7"></circle>
					<path d="M1009.8,1026.85c-21.4,0-38.81-17.41-38.81-38.81c0-21.4,17.41-38.81,38.81-38.81
						c21.4,0,38.81,17.41,38.81,38.81C1048.61,1009.44,1031.2,1026.85,1009.8,1026.85z M1009.8,963.42
						c-13.57,0-24.61,11.04-24.61,24.61c0,13.57,11.04,24.61,24.61,24.61c13.57,0,24.61-11.04,24.61-24.61
						C1034.41,974.46,1023.37,963.42,1009.8,963.42z" class="st6"></path>
				</g>
				<g>
					<circle r="31.71" cy="988.03" cx="191.2" class="st7"></circle>
					<path d="M191.2,1026.85c-21.4,0-38.81-17.41-38.81-38.81c0-21.4,17.41-38.81,38.81-38.81s38.81,17.41,38.81,38.81
						C230.02,1009.44,212.6,1026.85,191.2,1026.85z M191.2,963.42c-13.57,0-24.61,11.04-24.61,24.61
						c0,13.57,11.04,24.61,24.61,24.61c13.57,0,24.61-11.04,24.61-24.61C215.82,974.46,204.77,963.42,191.2,963.42z" class="st6"></path>
				</g>
			</g>
			<g>
				<g>
					<g>
						<path d="M916.19,757.75c0,0,51.36-28.74,90.25-6.27c38.93,22.5,24,61.65-6.97,65.4S916.19,757.75,916.19,757.75z" class="st5"></path>
						<path d="M996.8,824.14c-14.51,0-33.1-10.12-55.34-30.14c-17.13-15.42-30.18-31.05-30.73-31.71l-5.46-6.57
							l7.45-4.17c0.56-0.31,13.89-7.7,32.3-12.26c24.98-6.18,47.44-4.09,64.96,6.04c20.05,11.59,29.83,29.22,26.16,47.16
							c-3.4,16.62-17.8,29.25-35.83,31.43C999.17,824.07,998,824.14,996.8,824.14z M927.71,760.12c5.34,5.9,13.76,14.79,23.37,23.43
							c20.26,18.21,37.14,27.54,47.53,26.28c11.96-1.45,21.45-9.56,23.63-20.18c2.42-11.84-4.63-23.52-19.35-32.02
							C976.59,742.44,942.9,753.6,927.71,760.12z" class="st6"></path>
					</g>
				</g>
				<g>
					<path d="M934.66,753.12c0,0,104.47,33.29,94.14,86.68c-10.33,53.38-63.14,30.42-63.14,30.42L934.66,753.12z" class="st5"></path>
					<path d="M990.11,882.22c-14.42,0-26.54-5.16-27.29-5.49l-3.15-1.37l-35.19-132.93l12.33,3.93
						c1.1,0.35,27.21,8.75,52.46,24.01c15.15,9.15,26.85,18.91,34.76,28.99c10.55,13.45,14.5,27.51,11.74,41.8
						c-3.38,17.44-11.3,29.55-23.57,36.01C1005.02,880.94,997.28,882.22,990.11,882.22z M971.58,864.83
						c6.51,2.16,22.03,6.1,34.06-0.27c8.23-4.36,13.68-13.15,16.19-26.12c1.98-10.21-0.96-20.13-8.96-30.33
						c-6.85-8.73-17.25-17.34-30.93-25.6c-13.41-8.1-27.3-14.22-36.92-18.05L971.58,864.83z" class="st6"></path>
				</g>
				<g>
					<path d="M936.56,772.99c0,0,90.36,62.12,65.01,110.22c-25.35,48.11-69.25,10.84-69.25,10.84L936.56,772.99z" class="st5"></path>
					<path d="M966.97,914.92c-20.77,0-38.41-14.75-39.24-15.45l-2.62-2.22l4.81-137.43l10.67,7.33
						c0.95,0.65,23.51,16.26,43.26,38.17c11.85,13.15,20.22,25.87,24.88,37.81c6.21,15.93,5.91,30.53-0.87,43.4
						c-8.28,15.71-19.38,25.02-32.98,27.65C972.2,914.69,969.56,914.92,966.97,914.92z M939.55,890.62
						c5.61,3.95,19.32,12.22,32.68,9.6c9.14-1.79,16.9-8.62,23.06-20.31c4.83-9.17,4.91-19.49,0.24-31.54
						c-4-10.31-11.43-21.54-22.08-33.38c-10.51-11.68-22.11-21.64-30.27-28.13L939.55,890.62z" class="st6"></path>
				</g>
				<g>
					<g>
						<g>
							<path d="M283.81,757.75c0,0-51.36-28.74-90.25-6.27c-38.93,22.5-24,61.65,6.97,65.4S283.81,757.75,283.81,757.75
								z" class="st5"></path>
							<path d="M203.2,824.14c-1.2,0-2.37-0.07-3.51-0.21c-18.03-2.18-32.43-14.81-35.83-31.43
								c-3.67-17.95,6.11-35.58,26.16-47.16c17.52-10.12,39.99-12.21,64.96-6.04c18.42,4.55,31.74,11.95,32.3,12.26l7.45,4.17
								l-5.46,6.57c-0.55,0.66-13.6,16.29-30.73,31.71C236.3,814.01,217.7,824.14,203.2,824.14z M227.84,750.02
								c-10.38,0-21.05,2.02-30.72,7.61c-14.72,8.51-21.78,20.18-19.35,32.02c2.17,10.62,11.67,18.73,23.63,20.18
								c10.4,1.26,27.28-8.08,47.53-26.28c9.61-8.64,18.02-17.52,23.37-23.43C262.69,756,245.69,750.02,227.84,750.02z" class="st6"></path>
						</g>
					</g>
					<g>
						<path d="M265.34,753.12c0,0-104.47,33.29-94.14,86.68c10.33,53.38,63.14,30.42,63.14,30.42L265.34,753.12z" class="st5"></path>
						<path d="M209.89,882.22c-7.17,0-14.9-1.28-22.09-5.06c-12.26-6.46-20.19-18.57-23.57-36.01
							c-2.77-14.29,1.18-28.35,11.74-41.8c7.91-10.08,19.61-19.83,34.76-28.99c25.25-15.25,51.36-23.66,52.46-24.01l12.33-3.93
							l-35.19,132.93l-3.15,1.37C236.43,877.05,224.3,882.22,209.89,882.22z M254.99,764.47c-9.69,3.85-23.67,10.02-37.11,18.16
							c-13.62,8.25-23.98,16.85-30.8,25.56c-7.96,10.18-10.87,20.07-8.9,30.25c2.52,13,7.98,21.8,16.24,26.15
							c11.94,6.29,27.49,2.37,34.01,0.23L254.99,764.47z" class="st6"></path>
					</g>
					<g>
						<path d="M263.44,772.99c0,0-90.36,62.12-65.01,110.22s69.25,10.84,69.25,10.84L263.44,772.99z" class="st5"></path>
						<path d="M233.03,914.92c-2.59,0-5.23-0.23-7.89-0.74c-13.61-2.63-24.7-11.93-32.98-27.65
							c-6.78-12.88-7.08-27.48-0.87-43.4c4.65-11.94,13.02-24.66,24.88-37.81c19.75-21.91,42.31-37.51,43.26-38.17l10.67-7.33
							l4.81,137.43l-2.62,2.23C271.44,900.17,253.8,914.92,233.03,914.92z M256.82,786.86c-8.16,6.49-19.76,16.44-30.27,28.13
							c-10.65,11.84-18.08,23.07-22.08,33.38c-4.67,12.05-4.6,22.36,0.24,31.54c6.16,11.69,13.92,18.52,23.06,20.31
							c13.35,2.61,27.06-5.65,32.68-9.6L256.82,786.86z" class="st6"></path>
					</g>
				</g>
			</g>
			<g>
				<path d="M940.36,791.82c0,178.29-152.39,322.81-340.36,322.81S259.64,970.11,259.64,791.82
					S412.02,506.87,600,506.87S940.36,613.53,940.36,791.82z" class="st8"></path>
				<path d="M600,1124.1c-47.16,0-92.92-8.76-136.01-26.05c-41.64-16.71-79.05-40.63-111.18-71.1
					c-32.16-30.51-57.42-66.04-75.07-105.62c-18.29-41.02-27.57-84.59-27.57-129.51c0-44.77,9.33-86.46,27.72-123.91
					c17.52-35.68,42.94-66.92,75.55-92.83c31.55-25.07,68.98-44.52,111.24-57.79c42.03-13.2,87.56-19.89,135.32-19.89
					s93.29,6.69,135.32,19.89c42.27,13.27,79.69,32.71,111.24,57.79c32.61,25.91,58.03,57.15,75.55,92.83
					c18.39,37.45,27.72,79.14,27.72,123.91c0,44.92-9.28,88.49-27.57,129.51c-17.65,39.58-42.91,75.12-75.07,105.62
					c-32.13,30.47-69.53,54.39-111.18,71.1C692.92,1115.34,647.16,1124.1,600,1124.1z M600,516.34
					c-194.83,0-330.9,113.28-330.9,275.48c0,172.78,148.44,313.35,330.9,313.35S930.9,964.6,930.9,791.82
					C930.9,629.62,794.83,516.34,600,516.34z" class="st6"></path>
			</g>
			<g>
				<path d="M942.57,885.3c0-34.55,37.51-113.13,0-113.6c-21.53-0.27-35.75,19.1-43.97,35.66
					c-27-101.54-87.28-185.35-142.08-192.57c-126.11-16.62-151.68-5.44-156.04,6.78c-0.15,0.43-0.81,0.43-0.97,0
					c-4.36-12.22-29.93-23.4-156.04-6.78c-54.8,7.22-115.07,91.03-142.08,192.57c-8.21-16.56-22.44-35.93-43.97-35.66
					c-37.51,0.47,0,79.05,0,113.6c0,34.55-80.56,88.51-51.15,145.79c27.56,53.67,96.34,10.46,90.31-36.46
					c26.98,105.05,113.84,191.81,303.09,195.72v0.01c0.11,0,0.21-0.01,0.32-0.01c0.11,0,0.21,0.01,0.32,0.01v-0.01
					c189.25-3.91,276.11-90.67,303.09-195.72c-6.03,46.92,62.75,90.13,90.31,36.46C1023.13,973.82,942.57,919.86,942.57,885.3z" class="st9"></path>
				<path d="M590.21,1200v-0.44c-86.27-3.06-156.37-23.72-208.48-61.47c-24.38-17.66-44.89-39.18-60.96-63.95
					c-8.8-13.57-16.32-28.2-22.5-43.73c-1.27,2.25-2.68,4.45-4.23,6.6c-8.85,12.23-21.69,21.66-35.25,25.87
					c-11.59,3.6-23.15,3.32-33.44-0.79c-11.36-4.55-20.86-13.77-27.49-26.67c-9.53-18.57-10.02-38.26-1.49-60.21
					c6.98-17.94,19.05-34.76,29.7-49.6c11.26-15.68,21.89-30.49,21.89-40.31c0-10.01-3.9-25.72-7.68-40.91
					c-7.42-29.84-14.42-58.02-2.84-73.03c3.16-4.09,9.17-9,19.87-9.13c15.42-0.21,29.31,7.39,40.92,22.15
					c13.58-42.9,33.17-82.89,56.15-114.27c13.38-18.28,27.46-33.08,41.86-44.01c15.48-11.75,30.96-18.72,46.01-20.7
					c58.06-7.65,99.23-10.09,125.85-7.46c10.26,1.02,23.19,3.12,31.92,9.5c8.73-6.37,21.66-8.48,31.92-9.5
					c26.62-2.63,67.78-0.19,125.85,7.46c15.04,1.98,30.52,8.95,46.01,20.7c14.39,10.93,28.48,25.73,41.86,44.01
					c22.98,31.38,42.56,71.36,56.15,114.27c11.46-14.57,25.16-22.15,40.34-22.15c0.19,0,0.38,0,0.58,0
					c10.7,0.13,16.71,5.04,19.87,9.13c11.58,15,4.57,43.19-2.84,73.03c-3.78,15.19-7.68,30.9-7.68,40.91
					c0,9.82,10.63,24.63,21.89,40.31c10.65,14.84,22.72,31.65,29.7,49.6c8.54,21.94,8.05,41.64-1.49,60.21
					c-6.63,12.9-16.13,22.13-27.49,26.67c-10.29,4.12-21.85,4.39-33.44,0.79c-13.56-4.21-26.4-13.64-35.25-25.87
					c-1.55-2.15-2.97-4.35-4.23-6.6c-6.18,15.53-13.7,30.16-22.5,43.73c-16.07,24.78-36.57,46.29-60.96,63.95
					c-52.11,37.75-122.21,58.41-208.48,61.47v0.43l-9.79-0.16l-0.16,0L590.21,1200z M305.76,992.28
					c21.5,83.72,89.98,184.4,294.12,188.61l0.13,0l0.12,0c204.13-4.21,272.61-104.89,294.12-188.61l18.56,3.56
					c-2.84,22.08,15.3,43.14,34.03,48.96c9.41,2.92,26.92,4.47,38.47-18.03c7.01-13.66,7.23-27.86,0.68-44.7
					c-6.11-15.71-16.95-30.81-27.44-45.42c-13.65-19.02-25.44-35.44-25.44-51.35c0-12.33,4-28.43,8.24-45.48
					c3.17-12.74,6.44-25.92,7.79-36.9c1.66-13.49-0.27-18.32-1.56-19.99c-0.4-0.51-1.33-1.72-5.12-1.77c-0.1,0-0.21,0-0.31,0
					c-16.5,0-28.16,16.51-35.05,30.4l-11.17,22.52l-6.46-24.29c-12.86-48.37-33.86-94.01-59.11-128.5
					c-24.68-33.71-51.34-54-75.06-57.12c-55.82-7.36-96.7-9.84-121.51-7.39c-16.48,1.63-23.43,5.31-24.38,7.97
					c-1.41,3.95-5.19,6.61-9.4,6.61c0,0,0,0,0,0c-4.21,0-7.99-2.66-9.4-6.61c-0.95-2.65-7.9-6.33-24.38-7.96
					c-24.81-2.45-65.69,0.03-121.51,7.39c-23.72,3.13-50.38,23.41-75.06,57.12c-25.25,34.49-46.24,80.12-59.11,128.5l-6.46,24.29
					l-11.17-22.52c-6.89-13.9-18.56-30.4-35.05-30.4c-0.1,0-0.21,0-0.31,0c-3.79,0.05-4.72,1.25-5.12,1.77
					c-1.3,1.68-3.22,6.51-1.56,19.99c1.35,10.97,4.62,24.15,7.79,36.9c4.24,17.05,8.24,33.14,8.24,45.48
					c0,15.91-11.79,32.33-25.44,51.35c-10.48,14.61-21.33,29.71-27.44,45.42c-6.55,16.83-6.33,31.04,0.68,44.7
					c11.55,22.5,29.06,20.95,38.47,18.03c18.72-5.81,36.87-26.87,34.03-48.96L305.76,992.28z M608.42,618.37
					c0,0.01,0.01,0.02,0.01,0.02C608.43,618.38,608.43,618.37,608.42,618.37z" class="st6"></path>
			</g>
			<g>
				<g>
					<path d="M296.61,994.63c0,0-5.4-22.71-3.87-37.38" class="st9"></path>
					<path d="M287.4,996.82c-0.19-0.78-3.67-15.6-4.3-29.73c-0.25-5.75,4.72-10.36,10.44-9.76l0,0
						c4.65,0.49,8.26,4.29,8.47,8.95c0.45,9.98,2.73,21.6,3.81,26.15L287.4,996.82z" class="st6"></path>
				</g>
				<g>
					<path d="M903.39,994.63c0,0,5.4-22.71,3.87-37.38" class="st9"></path>
					<path d="M912.6,996.82l-18.42-4.38c1.08-4.57,3.36-16.19,3.81-26.16c0.21-4.67,3.82-8.47,8.47-8.95l0,0
						c5.72-0.6,10.69,4.01,10.44,9.76C916.27,981.22,912.79,996.04,912.6,996.82z" class="st6"></path>
				</g>
			</g>
			<g>
				<g>
					<path d="M397.89,500.72c-26.14,0-47.33,21.19-47.33,47.33c0,0.5,0.01,1,0.03,1.5c-3.79-0.98-7.76-1.5-11.86-1.5
						c-26.14,0-47.33,21.19-47.33,47.33c0,26.14,21.19,47.33,47.33,47.33c26.14,0,47.33-21.19,47.33-47.33c0-0.5-0.01-1-0.03-1.5
						c3.79,0.98,7.76,1.5,11.86,1.5c26.14,0,47.33-21.19,47.33-47.33C445.22,521.91,424.03,500.72,397.89,500.72z" class="st0"></path>
					<path d="M338.72,652.19c-31.32,0-56.8-25.48-56.8-56.8c0-31.32,25.48-56.8,56.8-56.8c1.05,0,2.1,0.03,3.14,0.09
						c4.48-26.87,27.9-47.42,56.03-47.42c31.32,0,56.8,25.48,56.8,56.8c0,31.32-25.48,56.8-56.8,56.8c-1.05,0-2.1-0.03-3.14-0.09
						C390.26,631.64,366.84,652.19,338.72,652.19z M338.72,557.52c-20.88,0-37.87,16.99-37.87,37.87s16.99,37.87,37.87,37.87
						c20.88,0,37.87-16.99,37.87-37.87c0-0.4-0.01-0.8-0.02-1.2l-0.39-12.61l12.22,3.15c3.08,0.8,6.27,1.2,9.49,1.2
						c20.88,0,37.87-16.99,37.87-37.87c0-20.88-16.99-37.87-37.87-37.87c-20.88,0-37.87,16.99-37.87,37.87c0,0.4,0.01,0.8,0.02,1.2
						l0.39,12.61l-12.22-3.15C345.13,557.92,341.94,557.52,338.72,557.52z" class="st6"></path>
				</g>
				<g>
					<path d="M861.28,548.05c-4.1,0-8.07,0.52-11.86,1.5c0.02-0.5,0.03-1,0.03-1.5c0-26.14-21.19-47.33-47.33-47.33
						s-47.33,21.19-47.33,47.33c0,26.14,21.19,47.33,47.33,47.33c4.1,0,8.07-0.52,11.86-1.5c-0.02,0.5-0.03,1-0.03,1.5
						c0,26.14,21.19,47.33,47.33,47.33s47.33-21.19,47.33-47.33C908.61,569.24,887.42,548.05,861.28,548.05z" class="st0"></path>
					<path d="M861.28,652.19c-28.13,0-51.54-20.55-56.03-47.42c-1.04,0.06-2.09,0.09-3.14,0.09
						c-31.32,0-56.8-25.48-56.8-56.8c0-31.32,25.48-56.8,56.8-56.8c28.13,0,51.54,20.55,56.03,47.42c1.04-0.06,2.09-0.09,3.14-0.09
						c31.32,0,56.8,25.48,56.8,56.8C918.08,626.71,892.6,652.19,861.28,652.19z M823.83,581.57l-0.39,12.61
						c-0.01,0.4-0.02,0.8-0.02,1.2c0,20.88,16.99,37.87,37.87,37.87s37.87-16.99,37.87-37.87s-16.99-37.87-37.87-37.87
						c-3.22,0-6.41,0.4-9.49,1.2l-12.22,3.15l0.39-12.61c0.01-0.4,0.02-0.8,0.02-1.2c0-20.88-16.99-37.87-37.87-37.87
						s-37.87,16.99-37.87,37.87c0,20.88,16.99,37.87,37.87,37.87c3.22,0,6.41-0.4,9.49-1.2L823.83,581.57z" class="st6"></path>
				</g>
			</g>
			<g>
				<g>
					<g>
						<circle r="50.17" cy="257.9" cx="600" class="st7"></circle>
						<path d="M600,315.17c-31.58,0-57.27-25.69-57.27-57.27s25.69-57.27,57.27-57.27s57.27,25.69,57.27,57.27
							S631.58,315.17,600,315.17z M600,214.83c-23.75,0-43.07,19.32-43.07,43.07c0,23.75,19.32,43.07,43.07,43.07
							s43.07-19.32,43.07-43.07C643.07,234.15,623.75,214.83,600,214.83z" class="st6"></path>
					</g>
					<g>
						<circle r="22.25" cy="257.9" cx="600" class="st7"></circle>
						<path d="M600,287.25c-16.18,0-29.35-13.17-29.35-29.35s13.16-29.35,29.35-29.35s29.35,13.17,29.35,29.35
							S616.18,287.25,600,287.25z M600,242.75c-8.35,0-15.15,6.79-15.15,15.15s6.79,15.15,15.15,15.15s15.15-6.79,15.15-15.15
							S608.35,242.75,600,242.75z" class="st6"></path>
					</g>
				</g>
			</g>
			<g>
				<g>
					<g>
						<g>
							<circle r="50.17" cy="1052.63" cx="907.67" class="st7"></circle>
							<path d="M907.67,1109.9c-31.58,0-57.27-25.69-57.27-57.27c0-31.58,25.69-57.27,57.27-57.27
								c31.58,0,57.27,25.69,57.27,57.27C964.94,1084.21,939.25,1109.9,907.67,1109.9z M907.67,1009.55
								c-23.75,0-43.07,19.32-43.07,43.07s19.32,43.07,43.07,43.07c23.75,0,43.07-19.32,43.07-43.07S931.42,1009.55,907.67,1009.55z" class="st6"></path>
						</g>
						<g>
							<circle r="22.25" cy="1052.63" cx="907.67" class="st7"></circle>
							<path d="M907.67,1081.97c-16.18,0-29.35-13.17-29.35-29.35s13.16-29.35,29.35-29.35
								c16.18,0,29.35,13.17,29.35,29.35S923.85,1081.97,907.67,1081.97z M907.67,1037.48c-8.35,0-15.15,6.79-15.15,15.15
								s6.79,15.15,15.15,15.15c8.35,0,15.15-6.79,15.15-15.15S916.02,1037.48,907.67,1037.48z" class="st6"></path>
						</g>
					</g>
				</g>
				<g>
					<circle r="50.17" cy="1052.63" cx="292.33" class="st7"></circle>
					<path d="M292.33,1109.9c-31.58,0-57.27-25.69-57.27-57.27c0-31.58,25.69-57.27,57.27-57.27
						s57.27,25.69,57.27,57.27C349.61,1084.21,323.91,1109.9,292.33,1109.9z M292.33,1009.55c-23.75,0-43.07,19.32-43.07,43.07
						s19.32,43.07,43.07,43.07c23.75,0,43.07-19.32,43.07-43.07S316.08,1009.55,292.33,1009.55z" class="st6"></path>
				</g>
				<g>
					<circle r="22.25" cy="1052.63" cx="292.33" class="st7"></circle>
					<path d="M292.33,1081.97c-16.18,0-29.35-13.17-29.35-29.35s13.16-29.35,29.35-29.35
						c16.18,0,29.35,13.17,29.35,29.35S308.51,1081.97,292.33,1081.97z M292.33,1037.48c-8.35,0-15.15,6.79-15.15,15.15
						s6.79,15.15,15.15,15.15c8.35,0,15.15-6.79,15.15-15.15S300.68,1037.48,292.33,1037.48z" class="st6"></path>
				</g>
			</g>
			<g>
				<path d="M950.03,725.32c0-15.15-9.19-28.16-22.3-33.75c0.96-3.98,1.47-8.13,1.47-12.4
					c0-29.02-23.52-52.54-52.54-52.54c-1.17,0-2.32,0.04-3.47,0.12c0.71-3.51,1.09-7.13,1.1-10.85
					c0.08-29.74-23.87-54.36-53.6-55.05c-9.66-0.22-18.77,2.05-26.73,6.22c-6.29-24.8-28.76-43.15-55.52-43.15
					c-11.54,0-22.29,3.42-31.28,9.29c-13.08-14.43-31.97-23.49-52.97-23.49c-21.67,0-41.09,9.65-54.2,24.88
					c-13.11-15.23-32.52-24.88-54.2-24.88c-21.01,0-39.9,9.06-52.97,23.49c-8.99-5.87-19.74-9.29-31.28-9.29
					c-26.76,0-49.23,18.35-55.52,43.15c-7.97-4.17-17.08-6.44-26.75-6.22c-29.72,0.7-53.67,25.33-53.58,55.06
					c0.01,3.71,0.39,7.33,1.1,10.84c-1.15-0.07-2.3-0.12-3.47-0.12c-29.02,0-52.54,23.52-52.54,52.54c0,4.27,0.51,8.42,1.48,12.4
					c-13.11,5.59-22.3,18.6-22.3,33.75c0,11.8,5.58,22.29,14.23,29c-1.24,3.68-1.92,7.61-1.92,11.71c0,8.92,3.18,17.09,8.48,23.45
					c7.25,8.71,13.76,17.99,19.21,27.93c3.69,6.73,8.75,12.76,14.44,12.76c12.29,0,71.47-121.98,71.47-150.99
					c0-3-0.25-5.93-0.74-8.79c1.8,0.18,3.62,0.27,5.47,0.27c25.01,0,46.12-16.73,52.74-39.6c8.32,4.72,17.95,7.41,28.2,7.41
					c11.54,0,22.29-3.42,31.28-9.29c13.08,14.43,31.97,23.49,52.97,23.49c21.67,0,41.09-9.65,54.2-24.88
					c13.11,15.23,32.53,24.88,54.2,24.88c21.01,0,39.9-9.06,52.97-23.49c8.99,5.87,19.74,9.29,31.28,9.29
					c10.25,0,19.87-2.7,28.2-7.41c6.63,22.88,27.73,39.6,52.74,39.6c1.85,0,3.67-0.09,5.47-0.27c-0.48,2.86-0.74,5.79-0.74,8.79
					c0,29.02,59.19,150.99,71.47,150.99c5.89,0,11.1-6.45,14.82-13.46c5.06-9.54,11.22-18.47,18.31-26.62
					c5.6-6.44,8.99-14.85,8.99-24.05c0-4.1-0.68-8.03-1.92-11.71C944.46,747.6,950.03,737.11,950.03,725.32z" class="st0"></path>
				<path d="M895.6,839.63c-6.15,0-12.12-3.93-24.43-24.04c-7.28-11.89-15.96-28.21-24.46-45.96
					c-5.29-11.06-31.45-66.81-32.05-89.69c-12.48-0.89-24.25-5.34-34.28-12.99c-8.01-6.11-14.51-14.11-18.91-23.12
					c-7.34,2.69-15.15,4.09-23.03,4.09c-10.38,0-20.51-2.39-29.69-6.96c-14.84,13.53-34.33,21.16-54.56,21.16
					c-20.15,0-39.41-7.49-54.2-20.83c-14.79,13.34-34.04,20.83-54.2,20.83c-20.23,0-39.72-7.63-54.56-21.16
					c-9.18,4.57-19.31,6.96-29.69,6.96c-7.88,0-15.68-1.4-23.02-4.09c-4.39,9.01-10.89,17-18.91,23.12
					c-10.03,7.65-21.8,12.1-34.28,12.99c-0.6,22.87-26.75,78.63-32.05,89.69c-8.5,17.75-17.18,34.07-24.46,45.96
					c-12.3,20.1-18.27,24.04-24.43,24.04c-5.96,0-14.74-3.07-22.74-17.68c-4.88-8.91-11-17.8-18.18-26.42
					c-6.88-8.26-10.67-18.74-10.67-29.5c0-2.86,0.26-5.7,0.79-8.5c-8.39-8.57-13.1-20-13.1-32.21c0-15.93,8.14-30.48,21.25-38.87
					c-0.28-2.41-0.43-4.85-0.43-7.28c0-31.8,24.06-58.08,54.93-61.61c-0.02-0.54-0.02-1.08-0.03-1.63
					c-0.05-16.87,6.45-32.87,18.29-45.04c11.85-12.18,27.66-19.11,44.53-19.51c7.25-0.17,14.46,0.88,21.31,3.08
					c10.45-24.01,34.28-40.02,61.18-40.02c10.38,0,20.51,2.39,29.69,6.96c14.84-13.53,34.33-21.16,54.56-21.16
					c20.15,0,39.41,7.49,54.2,20.83c14.79-13.34,34.04-20.83,54.2-20.83c20.23,0,39.72,7.63,54.56,21.16
					c9.18-4.57,19.31-6.96,29.69-6.96c26.91,0,50.73,16.01,61.18,40.02c6.84-2.2,14.05-3.26,21.28-3.08
					c16.87,0.39,32.69,7.31,44.54,19.49c11.85,12.17,18.35,28.17,18.31,45.05c0,0.55-0.01,1.09-0.03,1.64
					c30.87,3.52,54.93,29.81,54.93,61.61c0,2.43-0.14,4.87-0.43,7.28c13.11,8.39,21.25,22.94,21.25,38.87
					c0,12.2-4.71,23.63-13.1,32.21c0.52,2.8,0.79,5.64,0.79,8.5c0,11.13-4.02,21.88-11.32,30.27c-6.65,7.65-12.4,16.01-17.09,24.84
					C910.67,836.42,901.7,839.63,895.6,839.63z M895.33,820.72L895.33,820.72C895.33,820.72,895.33,820.72,895.33,820.72z
					 M304.67,820.72C304.67,820.72,304.67,820.72,304.67,820.72C304.67,820.72,304.67,820.72,304.67,820.72z M836.25,659.73
					l-2.06,12.22c-0.4,2.38-0.6,4.81-0.6,7.22c0,10.73,11.16,41.73,27.76,77.13c16.31,34.77,29.72,56.57,35.54,63.3
					c1.26-1.19,3.1-3.44,5.17-7.34c5.36-10.11,11.93-19.67,19.53-28.4c4.3-4.94,6.67-11.28,6.67-17.84c0-2.96-0.48-5.88-1.43-8.69
					l-2.15-6.38l5.32-4.12c6.71-5.21,10.56-13.05,10.56-21.52c0-10.93-6.5-20.76-16.55-25.05l-7.37-3.14l1.88-7.79
					c0.8-3.32,1.21-6.74,1.21-10.17c0-23.75-19.32-43.07-43.07-43.07c-0.91,0-1.87,0.03-2.85,0.1L861.45,637l2.47-12.14
					c0.6-2.94,0.9-5.96,0.91-8.99c0.07-24.55-19.83-44.99-44.36-45.56c-7.7-0.17-15.35,1.6-22.12,5.14l-10.62,5.56l-2.95-11.62
					c-5.38-21.2-24.43-36.01-46.34-36.01c-9.31,0-18.34,2.68-26.1,7.75l-6.77,4.42l-5.43-5.99c-11.74-12.95-28.49-20.38-45.96-20.38
					c-18.08,0-35.22,7.87-47.02,21.59l-7.18,8.34l-7.18-8.34c-11.8-13.72-28.94-21.59-47.02-21.59c-17.47,0-34.22,7.43-45.96,20.38
					l-5.43,5.99l-6.77-4.42c-7.76-5.07-16.79-7.75-26.1-7.75c-21.91,0-40.96,14.81-46.34,36.01l-2.95,11.62l-10.62-5.56
					c-6.77-3.54-14.43-5.31-22.14-5.14c-24.52,0.58-44.41,21.02-44.34,45.57c0.01,3.02,0.32,6.04,0.91,8.98l2.47,12.14l-12.36-0.81
					c-0.99-0.06-1.95-0.1-2.85-0.1c-23.75,0-43.07,19.32-43.07,43.07c0,3.43,0.41,6.85,1.21,10.17l1.88,7.79l-7.37,3.14
					c-10.05,4.29-16.55,14.12-16.55,25.05c0,8.47,3.85,16.31,10.56,21.52l5.32,4.12l-2.15,6.38c-0.95,2.81-1.43,5.73-1.43,8.69
					c0,6.35,2.23,12.52,6.28,17.39c7.96,9.56,14.77,19.46,20.24,29.44c1.94,3.54,3.66,5.62,4.85,6.75
					c5.82-6.73,19.23-28.53,35.54-63.3c16.6-35.4,27.76-66.4,27.76-77.13c0-2.41-0.2-4.84-0.6-7.22l-2.06-12.22l12.33,1.22
					c1.5,0.15,3.03,0.22,4.54,0.22c20.11,0,38.06-13.47,43.65-32.77l3.33-11.51l10.43,5.91c7.14,4.05,15.27,6.18,23.53,6.18
					c9.31,0,18.34-2.68,26.1-7.75l6.77-4.42l5.43,5.99c11.74,12.95,28.49,20.38,45.96,20.38c18.08,0,35.22-7.87,47.02-21.59
					l7.18-8.34l7.18,8.34c11.81,13.72,28.94,21.59,47.02,21.59c17.47,0,34.22-7.43,45.96-20.38l5.43-5.99l6.77,4.42
					c7.76,5.07,16.79,7.75,26.1,7.75c8.26,0,16.39-2.14,23.53-6.18l10.43-5.91l3.33,11.51c5.59,19.29,23.54,32.77,43.65,32.77
					c1.51,0,3.03-0.08,4.54-0.22L836.25,659.73z" class="st6"></path>
			</g>
			<g>
				<path d="M870.51,592.34c-6.55,5.61-13.79,10.99-21.68,16.13C791.87,544.84,701.61,503.75,600,503.75
					s-191.87,41.1-248.83,104.72c-7.88-5.14-15.12-10.52-21.68-16.13C383.38,513.23,484.34,459.97,600,459.97
					S816.62,513.23,870.51,592.34z" class="st7"></path>
				<path d="M847.61,617.74l-4.06-4.54C785.31,548.15,696.54,510.85,600,510.85S414.69,548.15,356.45,613.2l-4.06,4.54
					l-5.1-3.33c-8.13-5.3-15.67-10.91-22.41-16.68l-4.83-4.14l3.58-5.26c27.6-40.51,67.29-74.47,114.78-98.2
					c48.79-24.38,104.67-37.27,161.59-37.27s112.81,12.89,161.59,37.27c47.5,23.73,87.19,57.69,114.78,98.2l3.58,5.26l-4.83,4.14
					c-6.74,5.77-14.28,11.38-22.41,16.68L847.61,617.74z M600,496.65c25.41,0,50.69,2.54,75.16,7.56
					c23.79,4.88,46.94,12.12,68.8,21.52c40.87,17.58,77.39,42.9,105.98,73.44c3.84-2.65,7.51-5.37,10.98-8.13
					C805.79,514.41,706.49,467.07,600,467.07s-205.79,47.34-260.93,123.97c3.47,2.76,7.14,5.48,10.98,8.13
					c28.59-30.54,65.11-55.87,105.98-73.44c21.86-9.4,45.01-16.64,68.8-21.52C549.31,499.19,574.59,496.65,600,496.65z" class="st6"></path>
			</g>
			<g>
				<path d="M879.98,620.57c-6.78,5.61-14.28,10.99-22.43,16.13C798.59,573.08,705.16,531.98,600,531.98
					s-198.59,41.1-257.54,104.72c-8.16-5.14-15.65-10.52-22.43-16.13C375.8,541.46,480.29,488.2,600,488.2
					S824.2,541.46,879.98,620.57z" class="st7"></path>
				<path d="M856.34,645.85l-4.01-4.32C792.01,576.42,700.03,539.08,600,539.08s-192.01,37.34-252.34,102.45l-4.01,4.32
					l-4.99-3.14c-8.41-5.3-16.21-10.9-23.17-16.66l-5.07-4.19l3.79-5.37c28.55-40.5,69.61-74.44,118.73-98.15
					c50.44-24.35,108.2-37.22,167.05-37.22s116.61,12.87,167.05,37.22c49.12,23.72,90.18,57.66,118.73,98.15l3.79,5.37l-5.07,4.19
					c-6.97,5.76-14.76,11.37-23.17,16.66L856.34,645.85z M600,524.88c26.26,0,52.4,2.54,77.7,7.55c24.6,4.87,48.53,12.1,71.13,21.49
					c42.37,17.6,80.21,42.99,109.82,73.61c4.06-2.7,7.94-5.47,11.61-8.29C813.12,542.63,710.29,495.3,600,495.3
					s-213.12,47.33-270.25,123.94c3.67,2.82,7.55,5.58,11.61,8.29c29.61-30.62,67.45-56.01,109.82-73.61
					c22.6-9.39,46.53-16.62,71.13-21.49C547.6,527.42,573.74,524.88,600,524.88z" class="st6"></path>
			</g>
			<g>
				<g>
					<g>
						<g>
							<circle r="50.17" cy="445.81" cx="479.3" class="st7"></circle>
							<path d="M479.3,503.09c-31.58,0-57.27-25.69-57.27-57.27s25.69-57.27,57.27-57.27s57.27,25.69,57.27,57.27
								S510.88,503.09,479.3,503.09z M479.3,402.74c-23.75,0-43.07,19.32-43.07,43.07c0,23.75,19.32,43.07,43.07,43.07
								c23.75,0,43.07-19.32,43.07-43.07C522.37,422.06,503.05,402.74,479.3,402.74z" class="st6"></path>
						</g>
						<g>
							<circle r="22.25" cy="445.81" cx="479.3" class="st7"></circle>
							<path d="M479.3,475.16c-16.18,0-29.35-13.17-29.35-29.35s13.16-29.35,29.35-29.35
								c16.18,0,29.35,13.17,29.35,29.35S495.48,475.16,479.3,475.16z M479.3,430.67c-8.35,0-15.15,6.79-15.15,15.15
								s6.79,15.15,15.15,15.15c8.35,0,15.15-6.79,15.15-15.15S487.65,430.67,479.3,430.67z" class="st6"></path>
						</g>
					</g>
				</g>
				<g>
					<g>
						<g>
							<circle r="50.17" cy="445.81" cx="720.7" class="st7"></circle>
							<path d="M720.7,503.09c-31.58,0-57.27-25.69-57.27-57.27s25.69-57.27,57.27-57.27
								c31.58,0,57.27,25.69,57.27,57.27S752.28,503.09,720.7,503.09z M720.7,402.74c-23.75,0-43.07,19.32-43.07,43.07
								c0,23.75,19.32,43.07,43.07,43.07c23.75,0,43.07-19.32,43.07-43.07C763.77,422.06,744.45,402.74,720.7,402.74z" class="st6"></path>
						</g>
						<g>
							<circle r="22.25" cy="445.81" cx="720.7" class="st7"></circle>
							<path d="M720.7,475.16c-16.18,0-29.35-13.17-29.35-29.35s13.16-29.35,29.35-29.35
								c16.18,0,29.35,13.17,29.35,29.35S736.88,475.16,720.7,475.16z M720.7,430.67c-8.35,0-15.15,6.79-15.15,15.15
								s6.79,15.15,15.15,15.15c8.35,0,15.15-6.79,15.15-15.15S729.05,430.67,720.7,430.67z" class="st6"></path>
						</g>
					</g>
				</g>
			</g>
			<g>
				<g>
					<g>
						<circle r="71" cy="418.83" cx="600" class="st7"></circle>
						<path d="M600,496.93c-43.06,0-78.1-35.04-78.1-78.1s35.04-78.1,78.1-78.1s78.1,35.04,78.1,78.1
							S643.06,496.93,600,496.93z M600,354.93c-35.23,0-63.9,28.67-63.9,63.9s28.67,63.9,63.9,63.9s63.9-28.67,63.9-63.9
							S635.23,354.93,600,354.93z" class="st6"></path>
					</g>
					<g>
						<circle r="31.48" cy="418.83" cx="600" class="st7"></circle>
						<path d="M600,457.41c-21.27,0-38.58-17.31-38.58-38.58c0-21.27,17.31-38.58,38.58-38.58s38.58,17.31,38.58,38.58
							C638.58,440.11,621.27,457.41,600,457.41z M600,394.45c-13.44,0-24.38,10.94-24.38,24.38s10.94,24.38,24.38,24.38
							s24.38-10.94,24.38-24.38S613.44,394.45,600,394.45z" class="st6"></path>
					</g>
				</g>
			</g>
			<g>
				<g>
					<g>
						<circle r="30.06" cy="637.28" cx="880.44" class="st7"></circle>
						<path d="M880.44,674.43c-20.49,0-37.16-16.67-37.16-37.16c0-20.49,16.67-37.16,37.16-37.16
							c20.49,0,37.16,16.67,37.16,37.16C917.6,657.76,900.93,674.43,880.44,674.43z M880.44,614.32c-12.66,0-22.96,10.3-22.96,22.96
							c0,12.66,10.3,22.96,22.96,22.96c12.66,0,22.96-10.3,22.96-22.96C903.4,624.62,893.1,614.32,880.44,614.32z" class="st6"></path>
					</g>
					<g>
						<circle r="27.69" cy="682.72" cx="920.68" class="st7"></circle>
						<path d="M920.68,717.51c-19.18,0-34.79-15.61-34.79-34.79s15.61-34.79,34.79-34.79
							c19.18,0,34.79,15.61,34.79,34.79S939.86,717.51,920.68,717.51z M920.68,662.13c-11.35,0-20.59,9.24-20.59,20.59
							s9.24,20.59,20.59,20.59c11.35,0,20.59-9.24,20.59-20.59S932.03,662.13,920.68,662.13z" class="st6"></path>
					</g>
					<g>
						<circle r="27.69" cy="735.26" cx="939.61" class="st7"></circle>
						<path d="M939.61,770.05c-19.18,0-34.79-15.61-34.79-34.79s15.61-34.79,34.79-34.79s34.79,15.61,34.79,34.79
							S958.79,770.05,939.61,770.05z M939.61,714.67c-11.35,0-20.59,9.24-20.59,20.59s9.24,20.59,20.59,20.59
							s20.59-9.24,20.59-20.59S950.96,714.67,939.61,714.67z" class="st6"></path>
					</g>
				</g>
				<g>
					<g>
						<circle r="30.06" cy="637.28" cx="312.44" class="st7"></circle>
						<path d="M312.44,674.43c-20.49,0-37.16-16.67-37.16-37.16c0-20.49,16.67-37.16,37.16-37.16
							s37.16,16.67,37.16,37.16C349.6,657.76,332.93,674.43,312.44,674.43z M312.44,614.32c-12.66,0-22.96,10.3-22.96,22.96
							c0,12.66,10.3,22.96,22.96,22.96s22.96-10.3,22.96-22.96C335.4,624.62,325.1,614.32,312.44,614.32z" class="st6"></path>
					</g>
					<g>
						<circle r="27.69" cy="682.72" cx="272.21" class="st7"></circle>
						<path d="M272.21,717.51c-19.18,0-34.79-15.61-34.79-34.79s15.61-34.79,34.79-34.79S307,663.53,307,682.72
							S291.39,717.51,272.21,717.51z M272.21,662.13c-11.35,0-20.59,9.24-20.59,20.59s9.24,20.59,20.59,20.59
							s20.59-9.24,20.59-20.59S283.56,662.13,272.21,662.13z" class="st6"></path>
					</g>
					<g>
						<circle r="27.69" cy="735.26" cx="253.27" class="st7"></circle>
						<path d="M253.27,770.05c-19.18,0-34.79-15.61-34.79-34.79s15.61-34.79,34.79-34.79
							c19.18,0,34.79,15.61,34.79,34.79S272.46,770.05,253.27,770.05z M253.27,714.67c-11.35,0-20.59,9.24-20.59,20.59
							s9.24,20.59,20.59,20.59s20.59-9.24,20.59-20.59S264.63,714.67,253.27,714.67z" class="st6"></path>
					</g>
				</g>
			</g>
		</g>
	</g>
	<g>
		<g>
			<g>
				<path d="M504.9,847.8c-1.98,0-3.89-1.1-4.83-3c-0.02-0.03-3.12-6.05-10.97-12.72
					c-7.25-6.16-20.18-14.18-40.59-17.36c-27.99-4.36-53.78,0.18-70.48,4.76c-18.23,5-29.93,11.13-30.05,11.19
					c-2.62,1.39-5.88,0.39-7.27-2.24c-1.39-2.62-0.39-5.88,2.23-7.27c0.51-0.27,12.65-6.66,31.93-11.97
					c17.79-4.91,45.29-9.77,75.29-5.1c44.8,6.98,58.97,34.77,59.55,35.95c1.31,2.66,0.22,5.89-2.45,7.2
					C506.51,847.62,505.7,847.79,504.9,847.8z" class="st6"></path>
				<path d="M695.1,847.8c-0.8,0-1.61-0.18-2.37-0.56c-2.66-1.31-3.76-4.54-2.45-7.2c0.58-1.18,14.76-28.97,59.55-35.95
					c30-4.67,57.5,0.19,75.29,5.1c19.28,5.32,31.42,11.71,31.93,11.97c2.62,1.39,3.62,4.65,2.23,7.27
					c-1.39,2.62-4.65,3.62-7.27,2.23c-0.2-0.11-11.88-6.21-30.04-11.19c-16.7-4.58-42.48-9.12-70.48-4.76
					c-39.34,6.13-51.44,29.84-51.56,30.08C698.99,846.69,697.08,847.79,695.1,847.8z" class="st6"></path>
			</g>
			<g>
				<g>
					<path d="M493.94,932.42c-0.05,0-0.11,0-0.16,0c-4.28-0.08-7.37-3-11.65-7.05c-7.52-7.13-20.11-19.05-45.48-22.15
						c-45.66-5.58-67.69-18.9-86.44-40.46c-0.37-0.42-0.69-0.87-0.95-1.35c-0.03-0.06-0.06-0.11-0.07-0.15
						c-0.94-2.23-0.64-4.43,1.63-5.8c2.23-1.35,5.36-0.41,6.89,1.54c0.87,1.03,23.65,27.36,73.82,32.01
						c19.38,1.79,36.43,6.24,49.3,12.86c10.44,5.37,17.9,12.05,20.45,18.34c1.64,4.05,1.03,7.74-1.69,10.11
						C497.58,932.03,495.44,932.42,493.94,932.42z M357.72,857.02C357.72,857.02,357.73,857.02,357.72,857.02
						c0.02,0.03,0.04,0.05,0.06,0.08C357.76,857.07,357.74,857.04,357.72,857.02z" class="st6"></path>
				</g>
				<g>
					<path d="M700.43,930.3c-2.72-2.37-3.34-6.06-1.69-10.11c2.55-6.28,10-12.97,20.45-18.34
						c12.87-6.62,29.92-11.06,49.3-12.86c50.17-4.65,72.96-30.98,73.82-32.01c1.52-1.95,4.66-2.89,6.89-1.54
						c2.27,1.37,2.57,3.57,1.63,5.8c-0.02,0.04-0.04,0.09-0.07,0.15c-0.26,0.48-0.58,0.93-0.95,1.35
						c-18.75,21.56-40.78,34.88-86.44,40.46c-25.37,3.1-37.96,15.03-45.48,22.15c-4.28,4.05-7.37,6.98-11.65,7.05
						c-0.05,0-0.11,0-0.16,0C704.56,932.42,702.42,932.03,700.43,930.3z M842.22,857.09c0.02-0.02,0.04-0.05,0.06-0.07c0,0,0,0,0,0
						C842.26,857.04,842.24,857.07,842.22,857.09z" class="st6"></path>
				</g>
			</g>
		</g>
		<path d="M579.72,1116.88c1.94,8.2,12.38,13.41,20.74,13.41c8.28,0,19.35-4.72,20.59-13.17l1.2-13.55l-44.5,0.98
			L579.72,1116.88z" class="st10"></path>
		<ellipse ry="13.45" rx="3.67" cy="818.23" cx="600" class="st11"></ellipse>
		<g>
			<path d="M622.2,1087.11c-9.73-0.39-17.17,6.67-20.42,10.43c-0.94,1.09-2.63,1.09-3.57,0
				c-3.25-3.75-10.68-10.82-20.42-10.43c-11.73,0.47-15.96,10.1-16.77,12.26c-0.1,0.27-0.15,0.54-0.15,0.83l0,0
				c0,0.75,0.35,1.46,0.95,1.9c17.82,13.05,34.47,11.45,37.66,11.57c0.34,0.01,0.67,0.01,1.01,0c3.19-0.12,19.85,1.48,37.66-11.57
				c0.6-0.44,0.95-1.15,0.95-1.9l0,0c0-0.28-0.05-0.56-0.15-0.83C638.17,1097.21,633.93,1087.58,622.2,1087.11z" class="st10"></path>
			<path d="M643.55,1097.67c-2.66-7.16-9.62-14.98-21.16-15.44h0c-10.04-0.4-17.83,5.41-22.4,10.04
				c-4.57-4.63-12.35-10.44-22.4-10.04c-11.53,0.46-18.49,8.28-21.16,15.44c-0.3,0.81-0.46,1.66-0.46,2.53
				c0,2.31,1.1,4.49,2.95,5.84c5.32,3.89,10.55,6.58,15.41,8.43l0.55,3.18l0.07,0.35c2.54,10.75,14.96,17.17,25.49,17.17
				c9.5,0,23.67-5.38,25.43-17.35l0.31-3.57c4.7-1.84,9.74-4.47,14.86-8.22c1.85-1.35,2.95-3.54,2.95-5.84
				C644.01,1099.33,643.86,1098.48,643.55,1097.67z M600.46,1125.4c-5.76,0-12.89-3.27-15.31-7.89c5.98,1.11,10.65,1.07,13.08,1.04
				c0.46,0,0.82-0.01,1.07,0c0.23,0.01,0.47,0.01,0.7,0.01c0.23,0,0.46,0,0.69-0.01c0.26-0.01,0.62,0,1.07,0
				c2.59,0.03,7.7,0.07,14.24-1.27C614.5,1121.99,606.87,1125.4,600.46,1125.4z M601.87,1108.78c-0.62-0.01-1.12-0.01-1.55,0.01
				c-0.22,0.01-0.42,0.01-0.64,0c-0.22-0.01-0.45-0.01-0.71-0.01c-0.25,0-0.53,0-0.84,0.01c-4.44,0.05-17.6,0.18-31.73-9.44
				c1.48-2.77,4.84-7.07,11.59-7.34c7.82-0.32,14.16,6.01,16.52,8.74c1.38,1.59,3.38,2.51,5.48,2.51c2.11,0,4.1-0.91,5.48-2.51
				c2.36-2.73,8.7-9.04,16.52-8.74c6.75,0.27,10.12,4.57,11.59,7.34C619.46,1108.96,606.3,1108.82,601.87,1108.78z" class="st6"></path>
		</g>
	</g>
</g>
</svg>
