<svg xml:space="preserve" style="enable-background:new 0 0 1200 1200;" viewBox="0 0 1200 1200" y="0px" x="0px" xmlns:xlink="http://www.w3.org/1999/xlink" xmlns="http://www.w3.org/2000/svg" id="图层_1" version="1.1">
<style type="text/css">
	.st0{fill:#312725;}
	.st1{fill:#574D49;}
	.st2{fill:#508266;}
	.st3{fill:#90816C;}
	.st4{fill:#895040;}
	.st5{fill:#36664A;}
	.st6{fill:#3A3A31;}
	.st7{fill:#75614E;}
	.st8{fill:#FCF0E6;}
</style>
<g>
	<g>
		<circle r="600" cy="600" cx="600" class="st0"></circle>
		<circle r="584" cy="600" cx="600" class="st1"></circle>
		<circle r="540" cy="600" cx="600" class="st2"></circle>
		<path d="M289.22,661.38l-3.26-19.99c0,0-11.02-10.77-18.02-2.77s-61,96-86,84s-24-94-42-123s-59-9-64,24
			s-7.66,77.33-7.66,77.33s30.39,114.36,44.53,129.01s-0.86-44.34,11.14-46.34s55,73,67,62s13-82,41-71s26-25,26-25L289.22,661.38z" class="st3"></path>
		<path d="M547.94,387.63c0,0-121.14-48.07,5-111c140.96-70.32,71-324-231-136l-95,61.9c0,0,238.75-117.29,291.18-45.27
			s-76.18,159.24-76.18,199.37s25.9,46.6,49.31,61L547.94,387.63z" class="st4"></path>
		<path d="M210,222.47c0,0,193.94-116.84,263.94-98.84s114,60,73,110s-126,90-110,124s57.22,62,57.22,62l-26.22,80
			l-54.14,29.81c0,0-16.86-30.81-74.86-7.81s-91-5-64-59s116-114,101-154s-88-68-120-36s-129,71-167,157
			C88.94,429.63,139.07,287.31,210,222.47z" class="st3"></path>
		<path d="M68.28,498.61c6.66-60.98,108.66-172.98,184.66-184.98c71.29-11.26,75.47,32.01,23,89c-58,63-49,110-41,127
			c0,0,1-52,31-75s143-164,78-176s-218,43-258,152L68.28,498.61z" class="st5"></path>
		<path d="M407.52,548.08l9.14-6.3c-1.26-19.95-13.27-43.99-55.6-34.64s-113.32-42.45-18.19-121.9
			s85.46-172.31-30.32-147.84S118.89,372.67,118.89,372.67l-30.17,43.4l3.69,13.12c0,0,100.49-160.86,212.73-135.52
			c112.24,25.34-66.79,120.58-72.67,208.71c-5.88,88.12,82.62,39.61,109.39,25.52C368.64,513.81,406.76,513.31,407.52,548.08z" class="st0"></path>
		<path d="M88.94,774.84c-23-61.21-14-118.21,10-169.21s0.98,129,87,129c46,0,88-143,98.33-70.5l18.45-30.91
			c0,0,9.22-22.59-22.78-18.59s-75,92-84,72s-31-62-30-123s-68-61-98,36l-8,40l14,94L88.94,774.84z" class="st0"></path>
		<path d="M60,614.73c0,0,16.94-138.1,88.94-158.1s13,103,37,172s59-32,94-29s22.78,33.59,22.78,33.59l-23.05,40.55
			c0,0,38.28-41.14,0.28-45.14s-48,83-94,67s-14-143-44-166s-81.34,80-78.17,134.5L60,614.73z" class="st4"></path>
		<path d="M160.94,908.63c-28-35-32.55-96.12-18-79c17,20,36,46,55.53,32.79c14.29-9.67-16.53-9.79-22.53-30.79
			s-36-45-47-35s-14,39-5,60S160.94,908.63,160.94,908.63z" class="st5"></path>
		<path d="M119.81,845.46c-16.87-31.83-28.87-89.83,0.13-92.83s34,56,54,54s21-43,60-40l3.64,32.36
			c0,0-9.64-17.36-23.64-0.36s5,56-18,65s-50-59-64-56s-4.92,68.36,17.54,90.18L119.81,845.46z" class="st0"></path>
		<path d="M910.55,661.38l3.26-19.99c0,0,11.02-10.77,18.02-2.77s61,96,86,84c25-12,24-94,42-123s59-9,64,24
			s7.66,77.33,7.66,77.33s-30.39,114.36-44.53,129.01c-14.14,14.66,0.86-44.34-11.14-46.34s-55,73-67,62s-13-82-41-71s-26-25-26-25
			L910.55,661.38z" class="st3"></path>
		<path d="M651.83,387.63c0,0,121.14-48.07-5-111c-140.96-70.32-71-324,231-136l95,61.9c0,0-238.75-117.29-291.18-45.27
			s76.18,159.24,76.18,199.37s-25.9,46.6-49.31,61L651.83,387.63z" class="st4"></path>
		<path d="M989.76,222.47c0,0-193.94-116.84-263.94-98.84s-114,60-73,110s126,90,110,124s-57.22,62-57.22,62l26.22,80
			l54.14,29.81c0,0,16.86-30.81,74.86-7.81s91-5,64-59s-116-114-101-154s88-68,120-36s129,71,167,157
			C1110.83,429.63,1060.7,287.31,989.76,222.47z" class="st3"></path>
		<path d="M1131.49,498.61c-6.66-60.98-108.66-172.98-184.66-184.98c-71.29-11.26-75.47,32.01-23,89
			c58,63,49,110,41,127c0,0-1-52-31-75s-143-164-78-176s218,43,258,152L1131.49,498.61z" class="st5"></path>
		<path d="M975.83,208.63c0,0-328-213.69-371.22-45.13c-34.38,134.07,246.22,139.13,96.22,249.13
			c-1.29,0.95,5.92,5.79,4.78,7c0,0,147.22-19,0.22-160c-66.59-63.88-19.91-128.1,66-114c201,33,262,140,262,140l-34.34-54.02
			L975.83,208.63z" class="st0"></path>
		<path d="M792.24,548.08l-9.14-6.3c1.26-19.95,13.27-43.99,55.6-34.64c42.33,9.35,113.32-42.45,18.19-121.9
			s-85.46-172.31,30.32-147.84s193.67,135.27,193.67,135.27l30.17,43.4l-3.69,13.12c0,0-100.49-160.86-212.73-135.52
			c-112.24,25.34,66.79,120.58,72.67,208.71c5.88,88.12-82.62,39.61-109.39,25.52C831.13,513.81,793.01,513.31,792.24,548.08z" class="st0"></path>
		<path d="M1110.83,774.84c23-61.21,14-118.21-10-169.21s-0.98,129-87,129c-46,0-88-143-98.33-70.5l-18.45-30.91
			c0,0-9.22-22.59,22.78-18.59s75,92,84,72s31-62,30-123s68-61,98,36l8,40l-14,94L1110.83,774.84z" class="st0"></path>
		<path d="M1139.77,614.73c0,0-16.94-138.1-88.94-158.1s-13,103-37,172c-24,69-59-32-94-29s-22.78,33.59-22.78,33.59
			l23.05,40.55c0,0-38.28-41.14-0.28-45.14s48,83,94,67c46-16,14-143,44-166s81.34,80,78.17,134.5L1139.77,614.73z" class="st4"></path>
		<path d="M1038.83,908.63c28-35,32.55-96.12,18-79c-17,20-36,46-55.53,32.79c-14.29-9.67,16.53-9.79,22.53-30.79
			c6-21,36-45,47-35s14,39,5,60S1038.83,908.63,1038.83,908.63z" class="st5"></path>
		<path d="M1079.95,845.46c16.87-31.83,28.87-89.83-0.13-92.83s-34,56-54,54c-20-2-21-43-60-40l-3.64,32.36
			c0,0,9.64-17.36,23.64-0.36s-5,56,18,65c23,9,50-59,64-56s4.92,68.36-17.54,90.18L1079.95,845.46z" class="st0"></path>
		<g>
			<path d="M600,64.18c72.34,0,142.51,14.17,208.56,42.1c31.75,13.43,62.37,30.05,91.01,49.4
				c28.38,19.17,55.06,41.19,79.31,65.43c24.25,24.25,46.27,50.93,65.43,79.31c19.35,28.64,35.97,59.27,49.4,91.01
				c27.94,66.05,42.1,136.22,42.1,208.56s-14.17,142.51-42.1,208.56c-13.43,31.75-30.05,62.37-49.4,91.01
				c-19.17,28.38-41.19,55.06-65.43,79.31c-24.25,24.25-50.93,46.27-79.31,65.43c-28.64,19.35-59.27,35.97-91.01,49.4
				c-66.05,27.94-136.22,42.1-208.56,42.1s-142.51-14.17-208.56-42.1c-31.75-13.43-62.37-30.05-91.01-49.4
				c-28.38-19.17-55.06-41.19-79.31-65.43c-24.25-24.25-46.27-50.93-65.43-79.31c-19.35-28.64-35.97-59.27-49.4-91.01
				C78.34,742.51,64.18,672.34,64.18,600s14.17-142.51,42.1-208.56c13.43-31.75,30.05-62.37,49.4-91.01
				c19.17-28.38,41.19-55.06,65.43-79.31c24.25-24.25,50.93-46.27,79.31-65.43c28.64-19.35,59.27-35.97,91.01-49.4
				C457.49,78.34,527.66,64.18,600,64.18 M600,54.18C298.55,54.18,54.18,298.55,54.18,600S298.55,1145.82,600,1145.82
				S1145.82,901.45,1145.82,600S901.45,54.18,600,54.18L600,54.18z" class="st0"></path>
		</g>
		<g>
			<g>
				<path d="M741.62,501.59c0,75.49-63.41,136.69-141.62,136.69s-141.62-61.2-141.62-136.69S521.78,380.94,600,380.94
					S741.62,426.1,741.62,501.59z" class="st6"></path>
				<path d="M600,647.84c-40.32,0-78.24-15.17-106.79-42.72c-28.63-27.64-44.4-64.41-44.4-103.54
					c0-19.79,4.06-38.25,12.08-54.86c7.65-15.85,18.74-29.72,32.95-41.22c27.23-22.02,64.93-34.15,106.16-34.15
					s78.93,12.13,106.16,34.15c14.21,11.5,25.3,25.36,32.95,41.22c8.02,16.61,12.08,35.07,12.08,54.86
					c0,39.13-15.77,75.9-44.4,103.54C678.24,632.67,640.32,647.84,600,647.84z M600,390.5c-77.75,0-132.05,45.68-132.05,111.09
					c0,70.09,59.24,127.12,132.05,127.12s132.05-57.03,132.05-127.12C732.05,436.18,677.75,390.5,600,390.5z" class="st7"></path>
			</g>
			<g>
				<path d="M794.72,568.08c0,75.49-87.18,136.69-194.72,136.69s-194.72-61.2-194.72-136.69S492.46,447.43,600,447.43
					S794.72,492.59,794.72,568.08z" class="st6"></path>
				<path d="M600,714.33c-53.96,0-104.81-14.83-143.18-41.77c-18.98-13.32-33.93-28.91-44.43-46.34
					c-11.06-18.36-16.67-37.92-16.67-58.14c0-20.25,5.68-39.09,16.9-55.99c10.48-15.79,25.57-29.55,44.85-40.89
					c36.55-21.5,87.17-33.34,142.53-33.34c55.37,0,105.99,11.84,142.53,33.34c19.28,11.34,34.37,25.1,44.85,40.89
					c11.21,16.9,16.9,35.73,16.9,55.99c0,20.22-5.61,39.78-16.67,58.14c-10.5,17.43-25.45,33.02-44.43,46.34
					C704.81,699.5,653.96,714.33,600,714.33z M600,456.99c-109.01,0-185.15,45.68-185.15,111.09c0,33.3,18.81,64.85,52.96,88.82
					c35.18,24.7,82.13,38.3,132.19,38.3c50.06,0,97.01-13.6,132.19-38.3c34.15-23.97,52.96-55.52,52.96-88.82
					C785.15,502.67,709.01,456.99,600,456.99z" class="st7"></path>
			</g>
			<g>
				<path d="M943.95,787.52c0,180.17-153.99,326.22-343.95,326.22S256.05,967.68,256.05,787.52
					S410.04,499.56,600,499.56S943.95,607.35,943.95,787.52z" class="st6"></path>
				<path d="M600,1123.3c-47.66,0-93.9-8.86-137.44-26.32c-42.08-16.88-79.88-41.06-112.35-71.85
					c-32.5-30.83-58.03-66.74-75.87-106.74c-18.49-41.45-27.86-85.48-27.86-130.88c0-45.24,9.42-87.37,28.01-125.22
					c17.71-36.06,43.4-67.62,76.35-93.81c31.88-25.34,69.7-44.98,112.42-58.4C505.72,496.76,551.73,490,600,490
					c48.27,0,94.28,6.76,136.75,20.1c42.71,13.41,80.53,33.06,112.42,58.4c32.95,26.19,58.64,57.75,76.35,93.81
					c18.59,37.84,28.01,79.97,28.01,125.22c0,45.39-9.37,89.42-27.86,130.88c-17.84,40-43.36,75.91-75.87,106.74
					c-32.47,30.79-70.27,54.97-112.35,71.85C693.9,1114.44,647.66,1123.3,600,1123.3z M600,509.13
					c-196.88,0-334.39,114.48-334.39,278.39c0,174.6,150.01,316.65,334.39,316.65s334.39-142.05,334.39-316.65
					C934.39,623.61,796.88,509.13,600,509.13z" class="st7"></path>
			</g>
			<g>
				<path d="M946.19,881.98c0-34.92,37.9-114.32,0-114.8c-21.75-0.27-36.13,19.3-44.43,36.04
					c-27.29-102.61-88.2-187.3-143.58-194.6c-127.44-16.8-153.28,32.77-157.69,45.12c-0.16,0.44-0.82,0.44-0.98,0
					c-4.41-12.35-30.25-61.92-157.69-45.12c-55.37,7.3-116.29,91.99-143.58,194.6c-8.3-16.73-22.67-36.31-44.43-36.04
					c-37.9,0.48,0,79.88,0,114.8s-81.4,89.45-51.69,147.32c27.85,54.23,97.36,10.57,91.26-36.84
					c27.27,106.16,115.04,193.84,306.29,197.78v0.01c0.11,0,0.21-0.01,0.32-0.01c0.11,0,0.21,0.01,0.32,0.01v-0.01
					c191.25-3.95,279.02-91.62,306.29-197.78c-6.09,47.41,63.41,91.08,91.26,36.84C1027.59,971.43,946.19,916.9,946.19,881.98z" class="st8"></path>
				<path d="M590.11,1200v-0.45c-87.18-3.09-158.02-23.97-210.68-62.12c-24.64-17.85-45.36-39.59-61.6-64.63
					c-8.89-13.71-16.49-28.5-22.74-44.19c-1.28,2.27-2.71,4.5-4.28,6.67c-8.94,12.36-21.92,21.89-35.62,26.15
					c-11.71,3.64-23.4,3.36-33.8-0.8c-11.48-4.59-21.08-13.91-27.78-26.95c-9.64-18.76-10.13-38.67-1.5-60.84
					c7.05-18.13,19.25-35.13,30.01-50.12c11.37-15.85,22.12-30.81,22.12-40.73c0-10.12-3.95-25.99-7.76-41.34
					c-7.5-30.15-14.57-58.64-2.87-73.8c3.19-4.13,9.26-9.09,20.08-9.23c15.57-0.21,29.62,7.47,41.35,22.38
					c13.73-43.36,33.52-83.76,56.74-115.47c13.52-18.47,27.75-33.43,42.3-44.47c15.65-11.88,31.29-18.92,46.49-20.92
					c56.11-7.4,100.06-3.15,130.62,12.61c14.06,7.25,23.08,15.91,28.81,23.46c5.73-7.55,14.75-16.2,28.81-23.46
					c30.56-15.76,74.5-20.01,130.62-12.61c15.2,2,30.84,9.04,46.49,20.92c14.54,11.04,28.78,26,42.3,44.47
					c23.22,31.71,43.01,72.12,56.74,115.47c11.73-14.91,25.77-22.6,41.35-22.38c10.82,0.14,16.89,5.09,20.08,9.23
					c11.7,15.16,4.62,43.64-2.87,73.8c-3.82,15.35-7.76,31.22-7.76,41.34c0,9.92,10.74,24.89,22.12,40.73
					c10.76,14.99,22.96,31.99,30.01,50.12c8.62,22.18,8.13,42.08-1.5,60.84c-6.7,13.04-16.3,22.36-27.78,26.95
					c-10.4,4.16-22.08,4.44-33.8,0.8c-13.7-4.25-26.68-13.78-35.62-26.15c-1.57-2.17-3-4.4-4.28-6.67
					c-6.24,15.7-13.84,30.48-22.74,44.19c-16.24,25.04-36.96,46.78-61.6,64.63c-52.66,38.15-123.5,59.03-210.68,62.12v0.43
					l-9.89-0.16l-0.16,0L590.11,1200z M302.66,990.09c21.73,84.6,90.93,186.34,297.22,190.6l0.13,0l0.12,0
					c206.28-4.26,275.49-106,297.22-190.6l18.75,3.6c-2.87,22.32,15.46,43.6,34.39,49.47c9.51,2.95,27.2,4.51,38.88-18.22
					c7.09-13.8,7.31-28.15,0.69-45.17c-6.17-15.88-17.13-31.14-27.72-45.9c-13.79-19.22-25.71-35.81-25.71-51.89
					c0-12.46,4.04-28.73,8.33-45.95c3.2-12.88,6.51-26.2,7.87-37.29c1.67-13.63-0.27-18.51-1.58-20.21
					c-0.4-0.52-1.34-1.74-5.17-1.78c-0.11,0-0.21,0-0.32,0c-16.67,0-28.46,16.68-35.42,30.72l-11.29,22.75l-6.53-24.55
					c-13-48.88-34.21-95-59.73-129.85c-24.94-34.07-51.88-54.57-75.85-57.73c-121.4-16-144.11,29.56-147.43,38.85
					c-1.43,3.99-5.24,6.68-9.5,6.68c-4.26,0-8.07-2.68-9.5-6.68c-3.32-9.3-26.02-54.85-147.43-38.85
					c-23.97,3.16-50.91,23.66-75.85,57.73c-25.52,34.85-46.73,80.97-59.73,129.85l-6.53,24.55l-11.29-22.75
					c-6.97-14.04-18.75-30.72-35.42-30.72c-0.11,0-0.21,0-0.32,0c-3.83,0.05-4.77,1.27-5.17,1.78c-1.31,1.7-3.25,6.58-1.58,20.21
					c1.36,11.09,4.67,24.41,7.87,37.29c4.28,17.22,8.33,33.49,8.33,45.95c0,16.08-11.91,32.67-25.71,51.89
					c-10.59,14.76-21.55,30.02-27.72,45.9c-6.62,17.01-6.4,31.36,0.69,45.17c11.67,22.73,29.37,21.17,38.88,18.22
					c18.92-5.88,37.25-27.16,34.39-49.47L302.66,990.09z" class="st7"></path>
			</g>
			<g>
				<g>
					<path d="M293.41,992.47c0,0-5.46-22.95-3.91-37.78" class="st8"></path>
					<path d="M284.1,994.68c-0.19-0.79-3.71-15.77-4.34-30.04c-0.26-5.81,4.76-10.47,10.55-9.87l0,0
						c4.7,0.49,8.35,4.33,8.56,9.05c0.45,10.09,2.75,21.82,3.85,26.43L284.1,994.68z" class="st7"></path>
				</g>
				<g>
					<path d="M906.59,992.47c0,0,5.46-22.95,3.91-37.78" class="st8"></path>
					<path d="M915.9,994.68l-18.61-4.42c0,0,0,0,0,0l0,0c1.09-4.62,3.39-16.36,3.85-26.43
						c0.21-4.72,3.86-8.56,8.56-9.05l0,0c5.79-0.6,10.81,4.06,10.55,9.87C919.61,978.91,916.09,993.89,915.9,994.68z" class="st7"></path>
				</g>
			</g>
		</g>
		<path d="M223.94,208.63c0,0,328-213.69,371.22-45.13c34.38,134.07-246.22,139.13-96.22,249.13
			c1.29,0.95-5.92,5.79-4.78,7c0,0-147.22-19-0.22-160c66.59-63.88,19.91-128.1-66-114c-201,33-262,140-262,140l34.34-54.02
			L223.94,208.63z" class="st0"></path>
	</g>
</g>
</svg>
