<svg xml:space="preserve" style="enable-background:new 0 0 1200 1200;" viewBox="0 0 1200 1200" y="0px" x="0px" xmlns:xlink="http://www.w3.org/1999/xlink" xmlns="http://www.w3.org/2000/svg" id="图层_1" version="1.1">
<style type="text/css">
	.st0{fill:#90816C;}
	.st1{fill:#E5D6D1;}
	.st2{fill:#6B5B51;}
	.st3{fill:#682727;}
	.st4{fill:#753232;}
	.st5{fill:#4E2F2A;}
	.st6{fill:#2B2A2C;}
	.st7{fill:#75614E;}
	.st8{fill:#503E37;}
	.st9{fill:#6D5C5A;}
	.st10{fill:#FCF0E6;}
	.st11{fill:#F9DB8F;}
	.st12{fill:#DD725E;}
	.st13{fill:#75614E;stroke:#DD725E;stroke-width:20;stroke-linecap:round;stroke-miterlimit:10;}
</style>
<g>
	<circle r="600" cy="600" cx="600" class="st0"></circle>
	<g>
		<g>
			<path d="M318.97,805.55c0.68,2.3,1.29,4.63,1.83,7c7.65,33.86-1.05,69.76-23.86,98.5
				c-27.09,34.14-69.61,49.37-108.32,38.8c-37.35-10.2-64.49-41.77-74.46-86.57c-20.2-90.79,35.43-143.83,37.81-146.05
				c6.33-5.9,16.19-5.14,22.01,1.69c5.82,6.83,5.41,17.15-0.93,23.05c-1.77,1.68-44.49,43.26-28.56,114.83
				c7.26,32.63,25.4,54.43,51.09,61.44c27.22,7.43,55.45-5.08,67.57-34.29c17.99-43.37-1.98-71.48-1.55-62.45
				c0.79,16.52-5.74,38.97-21.56,43.11c-13.26,3.47-35.5-16.4-47.31-39.55c-10.85-21.27-3.44-38.34,13.42-56.88
				c17.12-18.82,42.41-22.48,67.66-9.79C296.96,770.02,311.19,779.46,318.97,805.55z" class="st1"></path>
			<path d="M251,577.48c7.78,26.1,2.32,47.54-10.68,69.94c-14.19,24.44-37.36,35.23-61.98,28.85
				c-24.26-6.29-41.1-22.28-43.66-46.02c-2.79-25.84,10.11-39.7,23.11-44.05c15.5-5.19,27.38,1.1,35.76,15.36
				c4.58,7.78,11.71-34.06-28.34-57.84c-27.19-16.15-60.44-14.12-79.15,6.99c-17.66,19.93-20.9,48.12-9.13,79.39
				c25.85,68.61,84.36,80.03,86.83,80.48c8.53,1.47,14.49,9.87,13.35,18.77c-1.13,8.9-9,14.93-17.53,13.46
				c-3.2-0.55-78.79-14.5-111.58-101.53c-16.19-42.97-10.75-84.23,14.93-113.21c26.62-30.04,70.54-40.57,111.89-26.83
				c34.82,11.57,61.75,36.86,73.88,69.38C249.55,572.89,250.32,575.18,251,577.48z" class="st1"></path>
			<path d="M330.78,820.21c0.76,2.57,1.45,5.17,2.04,7.81c8.56,37.89-1.2,78.11-26.77,110.33
				c-30.36,38.26-77.97,55.33-121.3,43.5c-41.73-11.39-72.08-46.72-83.24-96.92c-22.74-102.19,39.78-161.81,42.45-164.29
				c6.33-5.9,16.19-5.14,22.01,1.69c5.82,6.83,5.41,17.15-0.93,23.05c-0.08,0.08-13.28,12.73-23.86,35.54
				c-13.93,30.01-17.07,62.83-9.35,97.54c8.48,38.07,29.73,63.57,59.87,71.79c31.83,8.69,67.21-4.37,90.14-33.26
				c19.42-24.48,26.95-54.5,20.66-82.38c-5.11-22.66-19.04-41.17-38.22-50.8c-19.95-10.03-32.24-3.22-39.04,4.26
				c-9.49,10.43-12.57,27.13-7.01,38.03c2.07,4.06,6.29,10.69,11.22,9.4c3.05-0.8,5.39-3.97,5.29-6.05
				c-0.43-9.02,6.19-16.47,14.78-16.64c8.59-0.17,15.9,7,16.34,16.03c0.83,17.49-11.2,33.99-27.98,38.39
				c-14.31,3.75-34.18-1.22-47.03-26.41c-11.93-23.39-7.08-55.22,11.52-75.68c18.84-20.72,46.75-24.72,74.64-10.71
				C302.84,767.37,322.1,791.09,330.78,820.21z" class="st2"></path>
			<path d="M253.31,560.22c8.68,29.12,5.53,59.51-8.96,84.48c-15.67,27-41.21,38.92-68.32,31.89
				c-26.77-6.94-48.25-30.93-51.07-57.03c-3.04-28.11,10.87-43.15,24.9-47.84c16.45-5.51,35.55,1.72,44.43,16.81
				c4.58,7.79,2.39,17.8-4.9,22.36c-7.28,4.56-16.9,1.95-21.48-5.84c-1.06-1.8-4.75-3.17-7.74-2.17c-4.84,1.62-4.74,9.47-4.25,14.01
				c1.32,12.17,13.04,24.45,26.69,27.99c9.78,2.53,23.79,1.5,35-17.81c10.77-18.56,12.31-41.66,4.18-63.44
				c-9.99-26.77-32.73-47.78-62.38-57.63c-35-11.63-71.76-3.19-93.64,21.5c-20.72,23.38-24.57,56.34-10.81,92.86
				c12.54,33.28,33.13,59.02,61.21,76.52c21.34,13.3,39.3,16.66,39.48,16.69c8.53,1.47,14.49,9.87,13.36,18.77
				c-1.13,8.9-9,14.93-17.53,13.46c-3.6-0.62-88.55-16.29-125.45-114.26c-18.14-48.14-12.08-94.3,16.61-126.68
				c29.79-33.62,78.98-45.38,125.33-29.98c39.03,12.97,69.21,41.28,82.79,77.68C251.69,555.1,252.55,557.66,253.31,560.22z" class="st2"></path>
		</g>
		<g>
			<path d="M948.56,578.3c0.73-2.28,1.53-4.56,2.42-6.82c12.72-32.3,40.09-57.1,75.11-68.04
				c41.6-13,85.32-1.68,111.39,28.83c25.15,29.43,29.85,70.8,12.9,113.46c-34.34,86.43-110.17,99.02-113.38,99.52
				c-8.55,1.31-16.28-4.85-17.25-13.77c-0.97-8.92,5.17-17.22,13.72-18.54c2.41-0.4,61.11-10.76,88.19-78.9
				c12.34-31.06,9.6-59.29-7.7-79.54c-18.33-21.45-48.71-26.98-75.16-9.64c-39.26,25.75-38.55,60.23-33.83,52.52
				c8.64-14.1,26.66-29,42.07-23.53c12.92,4.58,20.14,33.52,16.89,59.3c-2.99,23.68-18.71,33.64-43.08,39.49
				c-24.73,5.94-47.71-5.26-61.46-29.95C946.79,620.06,940.32,604.26,948.56,578.3z" class="st1"></path>
			<path d="M876.52,805.12c8.24-25.96,24.81-40.62,48.16-51.83c25.48-12.24,50.7-8.12,67.48,11
				c16.53,18.84,21.46,41.54,10.23,62.61c-12.22,22.94-30.68,27.14-43.88,23.43c-15.74-4.43-22.02-16.3-20.94-32.81
				c0.59-9.01-28.84,21.58-9.08,63.76c13.41,28.64,42.04,45.66,69.39,38.72c25.81-6.55,44.34-28.04,52.18-60.52
				c17.2-71.27-24.76-113.61-26.55-115.38c-6.23-6.01-6.43-16.31-0.49-23.03c5.94-6.73,15.84-7.28,22.06-1.27
				c2.34,2.26,57.01,56.29,35.18,146.7c-10.77,44.64-38.48,75.7-76,85.22c-38.9,9.87-81.14-6.11-107.61-40.73
				c-22.29-29.15-30.34-65.2-22.09-98.91C875.15,809.73,875.8,807.41,876.52,805.12z" class="st1"></path>
			<path d="M947.03,559.54c0.81-2.55,1.71-5.09,2.7-7.61c14.23-36.15,44.91-63.92,84.17-76.18
				c46.61-14.57,95.59-1.92,124.77,32.23c28.1,32.88,33.33,79.16,14.34,126.96c-38.66,97.29-123.87,111.44-127.48,112
				c-8.55,1.31-16.28-4.85-17.25-13.78c-0.97-8.93,5.17-17.22,13.72-18.54c0.11-0.02,18.14-3.06,39.71-15.97
				c28.39-16.99,49.44-42.36,62.57-75.41c14.4-36.25,11.15-69.28-9.14-93.03c-21.44-25.08-58.04-34.18-93.24-23.18
				c-29.83,9.32-52.94,29.92-63.4,56.51c-8.52,21.62-7.4,44.75,3.04,63.5c10.86,19.51,24.85,20.79,34.68,18.43
				c13.71-3.29,25.65-15.36,27.18-27.51c0.57-4.53,0.81-12.38-4-14.08c-2.98-1.06-6.69,0.25-7.78,2.03
				c-4.72,7.7-14.38,10.14-21.58,5.45c-7.2-4.69-9.22-14.73-4.5-22.44c9.14-14.93,28.37-21.81,44.72-16.01
				c13.94,4.95,27.58,20.23,24.04,48.28c-3.28,26.05-25.19,49.65-52.08,56.1c-27.23,6.54-52.56-5.84-67.74-33.11
				C940.43,618.94,937.84,588.5,947.03,559.54z" class="st2"></path>
			<path d="M864.92,818.09c9.2-28.96,28.88-52.32,54.91-64.82c28.14-13.51,55.96-9.01,74.43,12.04
				c18.24,20.79,22.51,52.71,10.16,75.87c-13.3,24.96-33.25,29.57-47.49,25.56c-16.7-4.7-28.43-21.41-27.29-38.88
				c0.59-9.02,8.03-16.06,16.62-15.74c8.59,0.32,15.07,7.89,14.48,16.9c-0.14,2.09,2.15,5.29,5.18,6.15
				c4.91,1.38,9.25-5.17,11.39-9.19c5.75-10.8,2.97-27.55-6.33-38.15c-6.66-7.6-18.83-14.62-38.96-4.96
				c-19.34,9.29-33.6,27.53-39.12,50.11c-6.79,27.76,0.2,57.91,19.18,82.73c22.41,29.3,57.55,42.99,89.53,34.87
				c30.28-7.69,51.99-32.78,61.15-70.71c8.34-34.57,5.79-67.44-7.6-97.69c-10.17-22.99-23.14-35.88-23.27-36
				c-6.23-6.01-6.43-16.3-0.49-23.04c5.94-6.72,15.83-7.28,22.06-1.28c2.63,2.54,64.06,63.26,39.5,165.03
				c-12.07,50.01-43.04,84.77-84.96,95.42c-43.53,11.05-90.83-6.88-120.5-45.67c-24.99-32.67-34.02-73.05-24.78-110.79
				C863.38,823.24,864.11,820.64,864.92,818.09z" class="st2"></path>
		</g>
	</g>
	<g>
		<g>
			<path d="M306.03,404.41c-1.95,1.4-3.95,2.74-6.01,4.03c-29.47,18.34-66.24,21.91-100.87,9.8
				c-41.14-14.38-69.48-49.54-72.21-89.58c-2.63-38.62,18.28-74.63,57.33-98.76c79.12-48.89,147.49-13.76,150.37-12.24
				c7.65,4.05,10.17,13.6,5.63,21.35c-4.54,7.74-14.42,10.74-22.07,6.69c-2.17-1.12-55.47-27.82-117.85,10.72
				c-28.43,17.57-43.07,41.86-41.26,68.43c1.92,28.15,23,50.71,54.57,52.57c46.87,2.76,66.87-25.34,58.48-21.97
				c-15.35,6.17-38.69,7.37-47.8-6.21c-7.64-11.39,3.83-38.92,21.82-57.67c16.53-17.23,35.08-15.84,58.13-5.99
				c23.39,9.99,35.15,32.68,31.46,60.7C332.37,371.95,328.13,388.5,306.03,404.41z" class="st1"></path>
			<path d="M499.15,265.33c-22.1,15.92-44.15,17.81-69.57,12.88c-27.75-5.38-45.54-23.72-47.6-49.08
				c-2.03-24.98,7.56-46.14,29.13-56.35c23.49-11.12,40.81-3.48,49.19,7.37c9.99,12.94,7.95,26.22-2.77,38.82
				c-5.85,6.88,36.01-0.12,45.33-45.76c6.32-30.99-6.5-61.73-32.59-72.47c-24.63-10.14-52.32-3.94-77.98,17.44
				c-56.32,46.94-47.9,105.95-47.51,108.44c1.41,8.54-4.57,16.92-13.35,18.78c-8.78,1.85-17.05-3.6-18.47-12.14
				c-0.53-3.21-12.18-79.19,59.27-138.73c35.28-29.4,76.04-37.81,111.83-23.07c37.11,15.28,61.48,53.31,62.07,96.88
				c0.5,36.69-14.54,70.43-41.28,92.56C503.01,262.46,501.09,263.94,499.15,265.33z" class="st1"></path>
			<path d="M296.07,420.38c-2.17,1.56-4.41,3.06-6.71,4.5c-32.98,20.52-74.17,24.51-113,10.94
				c-46.1-16.12-77.86-55.48-80.92-100.29c-2.94-43.16,20.47-83.42,64.22-110.45c89.06-55.03,165.9-15.55,169.12-13.84
				c7.65,4.05,10.17,13.6,5.63,21.35c-4.54,7.75-14.42,10.74-22.07,6.69c-0.1-0.05-16.38-8.36-41.4-10.87
				c-32.92-3.3-64.95,4.5-95.2,23.2c-33.18,20.51-50.28,48.95-48.16,80.12c2.24,32.92,26.19,62.05,61.01,74.22
				c29.5,10.31,60.33,7.57,84.59-7.53c19.73-12.27,32.63-31.5,35.44-52.78c2.92-22.13-7.54-31.51-16.84-35.48
				c-12.97-5.54-29.75-2.97-38.23,5.86c-3.16,3.29-8.03,9.45-5.19,13.69c1.76,2.62,5.52,3.79,7.46,3.01
				c8.38-3.37,17.59,0.44,20.57,8.5c2.98,8.06-1.39,17.32-9.78,20.69c-16.24,6.53-35.78,0.58-45.44-13.83
				c-8.24-12.29-10.07-32.69,9.51-53.09c18.18-18.95,49.83-24.82,75.27-13.96c25.76,11,38.7,36.04,34.62,66.99
				C336.8,376.64,320.72,402.62,296.07,420.38z" class="st2"></path>
			<path d="M516.2,261.85c-24.66,17.76-54.39,24.76-82.74,19.27c-30.64-5.94-50.29-26.15-52.56-54.07
				c-2.24-27.56,13.38-55.73,37.1-66.96c25.56-12.1,44.33-3.9,53.37,7.81c10.6,13.73,10.05,34.15-1.29,47.48
				c-5.85,6.88-16.03,8.1-22.73,2.71s-7.39-15.32-1.54-22.2c1.35-1.59,1.44-5.53-0.49-8.03c-3.12-4.04-10.5-1.37-14.63,0.58
				c-11.06,5.24-18.82,20.34-17.68,34.4c0.82,10.07,6.39,22.97,28.31,27.22c21.06,4.08,43.39-2.05,61.29-16.88
				c22.01-18.22,34.38-46.6,33.96-77.84c-0.5-36.88-20.55-68.83-51.05-81.39c-28.89-11.89-61.28-4.71-91.26,20.28
				c-27.32,22.77-44.87,50.67-52.18,82.94c-5.55,24.52-2.83,42.59-2.8,42.77c1.41,8.54-4.56,16.92-13.35,18.78
				c-8.78,1.85-17.05-3.6-18.47-12.14c-0.6-3.6-13.68-88.99,66.74-156.01c39.52-32.94,85.11-42.37,125.11-25.9
				c41.53,17.1,68.8,59.7,69.47,108.54c0.56,41.13-16.27,78.92-46.19,103.7C520.51,258.64,518.38,260.28,516.2,261.85z" class="st2"></path>
		</g>
		<g>
			<path d="M893.97,404.41c1.95,1.4,3.95,2.74,6.01,4.03c29.47,18.34,66.24,21.91,100.87,9.8
				c41.14-14.38,69.48-49.54,72.21-89.58c2.63-38.62-18.28-74.63-57.33-98.76c-79.12-48.89-147.49-13.76-150.37-12.24
				c-7.65,4.05-10.17,13.6-5.63,21.35c4.54,7.74,14.42,10.74,22.07,6.69c2.17-1.12,55.47-27.82,117.85,10.72
				c28.43,17.57,43.07,41.86,41.26,68.43c-1.92,28.15-23,50.71-54.57,52.57c-46.87,2.76-66.87-25.34-58.48-21.97
				c15.35,6.17,38.69,7.37,47.8-6.21c7.64-11.39-3.83-38.92-21.82-57.67c-16.53-17.23-35.08-15.84-58.13-5.99
				c-23.39,9.99-35.15,32.68-31.46,60.7C867.63,371.95,871.87,388.5,893.97,404.41z" class="st1"></path>
			<path d="M700.85,265.33c22.1,15.92,44.15,17.81,69.57,12.88c27.75-5.38,45.54-23.72,47.6-49.08
				c2.03-24.98-7.56-46.14-29.13-56.35c-23.49-11.12-40.81-3.48-49.19,7.37c-9.99,12.94-7.95,26.22,2.77,38.82
				c5.85,6.88-36.01-0.12-45.33-45.76c-6.32-30.99,6.5-61.73,32.59-72.47c24.63-10.14,52.32-3.94,77.98,17.44
				c56.32,46.94,47.9,105.95,47.51,108.44c-1.41,8.54,4.57,16.92,13.35,18.78c8.78,1.85,17.05-3.6,18.47-12.14
				c0.53-3.21,12.18-79.19-59.27-138.73c-35.28-29.4-76.04-37.81-111.83-23.07c-37.11,15.28-61.48,53.31-62.07,96.88
				c-0.5,36.69,14.54,70.43,41.28,92.56C696.99,262.46,698.91,263.94,700.85,265.33z" class="st1"></path>
			<path d="M903.93,420.38c2.17,1.56,4.41,3.06,6.71,4.5c32.98,20.52,74.17,24.51,113,10.94
				c46.1-16.12,77.86-55.48,80.92-100.29c2.94-43.16-20.47-83.42-64.22-110.45c-89.06-55.03-165.9-15.55-169.12-13.84
				c-7.65,4.05-10.17,13.6-5.63,21.35c4.54,7.75,14.42,10.74,22.07,6.69c0.1-0.05,16.38-8.36,41.4-10.87
				c32.92-3.3,64.95,4.5,95.2,23.2c33.18,20.51,50.28,48.95,48.16,80.12c-2.24,32.92-26.19,62.05-61.01,74.22
				c-29.5,10.31-60.33,7.57-84.59-7.53c-19.73-12.27-32.63-31.5-35.44-52.78c-2.92-22.13,7.54-31.51,16.84-35.48
				c12.97-5.54,29.75-2.97,38.23,5.86c3.16,3.29,8.03,9.45,5.19,13.69c-1.76,2.62-5.52,3.79-7.46,3.01
				c-8.38-3.37-17.59,0.44-20.57,8.5c-2.98,8.06,1.39,17.32,9.78,20.69c16.24,6.53,35.78,0.58,45.44-13.83
				c8.24-12.29,10.07-32.69-9.51-53.09c-18.18-18.95-49.83-24.82-75.27-13.96c-25.76,11-38.7,36.04-34.62,66.99
				C863.2,376.64,879.28,402.62,903.93,420.38z" class="st2"></path>
			<path d="M683.8,261.85c24.66,17.76,54.39,24.76,82.74,19.27c30.64-5.94,50.29-26.15,52.56-54.07
				c2.24-27.56-13.38-55.73-37.1-66.96c-25.56-12.1-44.33-3.9-53.37,7.81c-10.6,13.73-10.05,34.15,1.29,47.48
				c5.85,6.88,16.03,8.1,22.73,2.71s7.39-15.32,1.54-22.2c-1.35-1.59-1.44-5.53,0.49-8.03c3.12-4.04,10.5-1.37,14.63,0.58
				c11.06,5.24,18.82,20.34,17.68,34.4c-0.82,10.07-6.39,22.97-28.31,27.22c-21.07,4.08-43.39-2.05-61.29-16.88
				c-22.01-18.22-34.38-46.6-33.96-77.84c0.5-36.88,20.55-68.83,51.05-81.39c28.89-11.89,61.28-4.71,91.26,20.28
				c27.32,22.77,44.87,50.67,52.18,82.94c5.55,24.52,2.83,42.59,2.8,42.77c-1.41,8.54,4.56,16.92,13.35,18.78
				c8.78,1.85,17.05-3.6,18.47-12.14c0.6-3.6,13.68-88.99-66.74-156.01c-39.52-32.94-85.11-42.37-125.11-25.9
				c-41.53,17.1-68.8,59.7-69.47,108.54c-0.56,41.13,16.27,78.92,46.19,103.7C679.49,258.64,681.62,260.28,683.8,261.85z" class="st2"></path>
		</g>
	</g>
	<g>
		<ellipse ry="185" rx="288.1" cy="570.5" cx="601.27" class="st3"></ellipse>
		<ellipse ry="166.16" rx="273.1" cy="570.5" cx="601.27" class="st4"></ellipse>
		<ellipse ry="159.18" rx="247.89" cy="570.5" cx="601.27" class="st5"></ellipse>
		<ellipse ry="125.22" rx="229.1" cy="560.5" cx="601.27" class="st4"></ellipse>
		<ellipse ry="118.47" rx="216.76" cy="560.5" cx="601.27" class="st5"></ellipse>
		<ellipse ry="99.08" rx="221.1" cy="570.58" cx="601.27" class="st4"></ellipse>
		<g>
			<path d="M850.54,652.89c0,99.94-111.57,180.95-249.21,180.95s-249.21-81.01-249.21-180.95
				S463.7,493.16,601.33,493.16S850.54,552.95,850.54,652.89z" class="st6"></path>
			<path d="M601.33,505.83c-136.82,0-232.37,60.47-232.37,147.06c0,92.79,104.24,168.28,232.37,168.28
				S833.7,745.68,833.7,652.89C833.7,566.3,738.15,505.83,601.33,505.83z" class="st6"></path>
		</g>
		<g>
			<path d="M264.91,672.01c70.74-21.78,146.7,21.04,169.66,95.62c22.96,74.59-15.77,152.7-86.52,174.48
				s-131.67-25.66-154.63-100.25S194.17,693.79,264.91,672.01z" class="st6"></path>
			<path d="M438.33,766.48c5.76,18.71,7.87,37.94,6.28,57.15c-1.54,18.56-6.46,36.33-14.63,52.8
				c-8.18,16.49-19.19,30.85-32.74,42.69c-14.04,12.27-30.2,21.27-48.02,26.76c-17.76,5.47-35.44,6.86-52.55,4.14
				c-16.3-2.59-31.8-8.87-46.06-18.64c-13.8-9.46-26.09-21.93-36.52-37.08c-10.37-15.06-18.58-32.31-24.42-51.26
				c-5.83-18.95-8.74-37.83-8.64-56.12c0.1-18.39,3.25-35.62,9.34-51.2c6.3-16.1,15.59-30,27.61-41.32
				c12.61-11.87,28.02-20.66,45.78-26.13c17.82-5.49,36.24-7.13,54.75-4.88c17.86,2.17,35.05,7.85,51.08,16.89
				c16.02,9.03,30.08,20.95,41.79,35.43C423.5,730.68,432.57,747.76,438.33,766.48z M205.99,837.99
				c22,71.47,78.92,108.6,138.42,90.28c63.38-19.51,98.19-89.84,77.58-156.77c-20.6-66.93-88.93-105.51-152.32-86
				C210.18,703.81,183.99,766.52,205.99,837.99z" class="st7"></path>
		</g>
		<g>
			<path d="M287.24,447.7c68.08,29.05,98.43,110.79,67.79,182.57S244.38,736.68,176.3,707.63S92.33,603,122.97,531.23
				S219.16,418.65,287.24,447.7z" class="st6"></path>
			<path d="M358.65,631.81c-7.69,18.01-18.49,34.05-32.11,47.69c-13.17,13.18-28.39,23.56-45.27,30.87
				c-16.89,7.31-34.58,11.16-52.56,11.45c-18.64,0.3-36.79-3.26-53.94-10.58c-17.1-7.3-31.49-17.65-42.8-30.78
				c-10.77-12.51-18.55-27.3-23.13-43.98c-4.43-16.13-5.76-33.59-3.94-51.89c1.81-18.2,6.68-36.67,14.46-54.91
				s17.76-34.53,29.65-48.43c11.96-13.98,25.48-25.1,40.19-33.06c15.21-8.23,31.28-12.84,47.76-13.72
				c17.3-0.92,34.73,2.31,51.83,9.61c17.15,7.32,32.28,17.96,44.96,31.63c12.24,13.19,21.69,28.63,28.1,45.88
				c6.4,17.23,9.44,35.42,9.03,54.04C370.44,594.9,366.33,613.8,358.65,631.81z M135.06,536.39
				c-29.35,68.78-9.86,133.88,47.4,158.32c61,26.03,132.98-5.19,160.47-69.6s0.23-137.99-60.76-164.03
				C224.91,436.64,164.42,467.61,135.06,536.39z" class="st7"></path>
		</g>
		<g>
			<g>
				<circle r="77.31" cy="673.19" cx="280.61" class="st7"></circle>
				<circle r="60.59" cy="673.19" cx="280.61" class="st8"></circle>
				<circle r="40.01" cy="673.19" cx="280.61" class="st9"></circle>
				<circle r="22" cy="673.19" cx="280.61" class="st8"></circle>
			</g>
			<g>
				<circle r="77.31" cy="555.71" cx="340.06" class="st7"></circle>
				<circle r="60.59" cy="555.71" cx="340.06" class="st8"></circle>
				<circle r="40.01" cy="555.71" cx="340.06" class="st9"></circle>
				<circle r="22" cy="555.71" cx="340.06" class="st8"></circle>
			</g>
		</g>
		<g>
			<g>
				<path d="M962.24,888.7c68.08,29.05,98.43,110.79,67.79,182.57c-30.63,71.78-110.65,106.41-178.73,77.36
					c-68.08-29.05-83.97-104.62-53.34-176.4C828.6,900.45,894.16,859.65,962.24,888.7z" class="st6"></path>
				<path d="M1033.65,1072.81c-7.69,18.01-18.49,34.05-32.11,47.69c-13.17,13.18-28.39,23.56-45.27,30.87
					c-16.89,7.31-34.58,11.16-52.56,11.45c-18.64,0.3-36.79-3.26-53.94-10.58c-17.1-7.3-31.49-17.65-42.8-30.78
					c-10.77-12.51-18.55-27.3-23.13-43.98c-4.43-16.13-5.76-33.59-3.94-51.89c1.81-18.2,6.68-36.67,14.46-54.91
					s17.76-34.53,29.65-48.43c11.96-13.98,25.48-25.1,40.19-33.06c15.21-8.23,31.28-12.84,47.76-13.72
					c17.3-0.92,34.73,2.31,51.83,9.61c17.15,7.32,32.28,17.96,44.96,31.63c12.24,13.19,21.69,28.63,28.1,45.88
					c6.4,17.23,9.44,35.42,9.03,54.04C1045.44,1035.9,1041.33,1054.8,1033.65,1072.81z M810.06,977.39
					c-29.35,68.78-9.86,133.88,47.4,158.32c61,26.03,132.98-5.19,160.47-69.6c27.49-64.41,0.23-137.99-60.76-164.03
					C899.91,877.64,839.42,908.61,810.06,977.39z" class="st7"></path>
			</g>
			<g>
				<path d="M945.28,787.52c0,180.17-153.99,326.22-343.95,326.22S257.38,967.68,257.38,787.52
					s153.99-287.95,343.95-287.95S945.28,607.35,945.28,787.52z" class="st6"></path>
				<path d="M601.33,1123.3c-47.66,0-93.9-8.86-137.44-26.32c-42.08-16.88-79.88-41.06-112.35-71.85
					c-32.5-30.83-58.03-66.74-75.87-106.74c-18.49-41.45-27.86-85.48-27.86-130.88c0-45.24,9.42-87.37,28.01-125.22
					c17.71-36.06,43.4-67.62,76.35-93.81c31.88-25.34,69.7-44.98,112.42-58.4c42.47-13.33,88.48-20.1,136.75-20.1
					c48.27,0,94.28,6.76,136.75,20.1c42.71,13.41,80.53,33.06,112.42,58.4c32.95,26.19,58.64,57.75,76.35,93.81
					c18.59,37.84,28.01,79.97,28.01,125.22c0,45.39-9.37,89.42-27.86,130.88c-17.84,40-43.36,75.91-75.87,106.74
					c-32.47,30.79-70.27,54.97-112.35,71.85C695.23,1114.44,648.99,1123.3,601.33,1123.3z M601.33,509.13
					c-196.88,0-334.39,114.48-334.39,278.39c0,174.6,150.01,316.65,334.39,316.65s334.39-142.05,334.39-316.65
					C935.72,623.61,798.21,509.13,601.33,509.13z" class="st7"></path>
			</g>
			<g>
				<path d="M947.52,881.98c0-34.92,37.9-114.32,0-114.8c-21.75-0.27-36.13,19.3-44.43,36.04
					c-27.29-102.61-88.2-187.3-143.58-194.6c-127.44-16.8-153.28,32.77-157.69,45.12c-0.16,0.44-0.82,0.44-0.98,0
					c-4.41-12.35-30.25-61.92-157.69-45.12c-55.37,7.3-116.29,91.99-143.58,194.6c-8.3-16.73-22.67-36.31-44.43-36.04
					c-37.9,0.48,0,79.88,0,114.8s-81.4,89.45-51.69,147.32c27.85,54.23,97.36,10.57,91.26-36.84
					c27.27,106.16,115.04,193.84,306.29,197.78v0.01c0.11,0,0.21-0.01,0.32-0.01c0.11,0,0.21,0.01,0.32,0.01v-0.01
					c191.25-3.95,279.02-91.62,306.29-197.78c-6.09,47.41,63.41,91.08,91.26,36.84C1028.92,971.43,947.52,916.9,947.52,881.98z" class="st10"></path>
				<path d="M591.44,1200v-0.45c-87.18-3.09-158.02-23.97-210.68-62.12c-24.64-17.85-45.36-39.59-61.6-64.63
					c-8.89-13.71-16.49-28.5-22.74-44.19c-1.28,2.27-2.71,4.5-4.28,6.67c-8.94,12.36-21.92,21.89-35.62,26.15
					c-11.71,3.64-23.4,3.36-33.8-0.8c-11.48-4.59-21.08-13.91-27.78-26.95c-9.64-18.76-10.13-38.67-1.5-60.84
					c7.05-18.13,19.25-35.13,30.01-50.12c11.37-15.85,22.12-30.81,22.12-40.73c0-10.12-3.95-25.99-7.76-41.34
					c-7.5-30.15-14.57-58.64-2.87-73.8c3.19-4.13,9.26-9.09,20.08-9.23c15.57-0.21,29.62,7.47,41.35,22.38
					c13.73-43.36,33.52-83.76,56.74-115.47c13.52-18.47,27.75-33.43,42.3-44.47c15.65-11.88,31.29-18.92,46.49-20.92
					c56.11-7.4,100.06-3.15,130.62,12.61c14.06,7.25,23.08,15.91,28.81,23.46c5.73-7.55,14.75-16.2,28.81-23.46
					c30.56-15.76,74.5-20.01,130.62-12.61c15.2,2,30.84,9.04,46.49,20.92c14.54,11.04,28.78,26,42.3,44.47
					c23.22,31.71,43.01,72.12,56.74,115.47c11.73-14.91,25.77-22.6,41.35-22.38c10.82,0.14,16.89,5.09,20.08,9.23
					c11.7,15.16,4.62,43.64-2.87,73.8c-3.82,15.35-7.76,31.22-7.76,41.34c0,9.92,10.74,24.89,22.12,40.73
					c10.76,14.99,22.96,31.99,30.01,50.12c8.62,22.18,8.13,42.08-1.5,60.84c-6.7,13.04-16.3,22.36-27.78,26.95
					c-10.4,4.16-22.08,4.44-33.8,0.8c-13.7-4.25-26.68-13.78-35.62-26.15c-1.57-2.17-3-4.4-4.28-6.67
					c-6.24,15.7-13.84,30.48-22.74,44.19c-16.24,25.04-36.96,46.78-61.6,64.63c-52.66,38.15-123.5,59.03-210.68,62.12v0.43
					l-9.89-0.16l-0.16,0L591.44,1200z M303.99,990.09c21.73,84.6,90.93,186.34,297.22,190.6l0.13,0l0.12,0
					c206.28-4.26,275.49-106,297.22-190.6l18.75,3.6c-2.87,22.32,15.46,43.6,34.39,49.47c9.51,2.95,27.2,4.51,38.88-18.22
					c7.09-13.8,7.31-28.15,0.69-45.17c-6.17-15.88-17.13-31.14-27.72-45.9c-13.79-19.22-25.71-35.81-25.71-51.89
					c0-12.46,4.04-28.73,8.33-45.95c3.2-12.88,6.51-26.2,7.87-37.29c1.67-13.63-0.27-18.51-1.58-20.21
					c-0.4-0.52-1.34-1.74-5.17-1.78c-0.11,0-0.21,0-0.32,0c-16.67,0-28.46,16.68-35.42,30.72l-11.29,22.75l-6.53-24.55
					c-13-48.88-34.21-95-59.73-129.85c-24.94-34.07-51.88-54.57-75.85-57.73c-121.4-16-144.11,29.56-147.43,38.85
					c-1.43,3.99-5.24,6.68-9.5,6.68c-4.26,0-8.07-2.68-9.5-6.68c-3.32-9.3-26.02-54.85-147.43-38.85
					c-23.97,3.16-50.91,23.66-75.85,57.73c-25.52,34.85-46.73,80.97-59.73,129.85l-6.53,24.55l-11.29-22.75
					c-6.97-14.04-18.75-30.72-35.42-30.72c-0.11,0-0.21,0-0.32,0c-3.83,0.05-4.77,1.27-5.17,1.78c-1.31,1.7-3.25,6.58-1.58,20.21
					c1.36,11.09,4.67,24.41,7.87,37.29c4.28,17.22,8.33,33.49,8.33,45.95c0,16.08-11.91,32.67-25.71,51.89
					c-10.59,14.76-21.55,30.02-27.72,45.9c-6.62,17.01-6.4,31.36,0.69,45.17c11.67,22.73,29.37,21.17,38.88,18.22
					c18.92-5.88,37.25-27.16,34.39-49.47L303.99,990.09z" class="st7"></path>
			</g>
			<g>
				<g>
					<path d="M294.74,992.47c0,0-5.46-22.95-3.91-37.78" class="st10"></path>
					<path d="M285.43,994.68c-0.19-0.79-3.71-15.77-4.34-30.04c-0.26-5.81,4.76-10.47,10.55-9.87l0,0
						c4.7,0.49,8.35,4.33,8.56,9.05c0.45,10.09,2.75,21.82,3.85,26.43L285.43,994.68z" class="st7"></path>
				</g>
				<g>
					<path d="M907.92,992.47c0,0,5.46-22.95,3.91-37.78" class="st10"></path>
					<path d="M917.23,994.68l-18.61-4.42c0,0,0,0,0,0l0,0c1.09-4.62,3.39-16.36,3.85-26.43
						c0.21-4.72,3.86-8.56,8.56-9.05l0,0c5.79-0.6,10.81,4.06,10.55,9.87C920.94,978.91,917.42,993.89,917.23,994.68z" class="st7"></path>
				</g>
			</g>
		</g>
	</g>
	<g>
		<g>
			<ellipse ry="83.64" rx="46.88" cy="376.81" cx="600" class="st11"></ellipse>
			<path d="M600,471.61l-4.97-3.05c-15.41-9.44-28.3-22.72-37.27-38.4c-9.26-16.17-14.15-34.62-14.15-53.36
				s4.89-37.19,14.15-53.36c8.97-15.68,21.86-28.96,37.27-38.4L600,282l4.97,3.05c15.41,9.44,28.3,22.72,37.27,38.4
				c9.26,16.17,14.15,34.62,14.15,53.36s-4.89,37.19-14.15,53.36c-8.97,15.68-21.86,28.96-37.27,38.4L600,471.61z M600,304.55
				c-23.5,16.61-37.36,43.2-37.36,72.25c0,29.06,13.86,55.65,37.36,72.25c23.5-16.61,37.36-43.2,37.36-72.25
				C637.36,347.75,623.5,321.16,600,304.55z" class="st7"></path>
		</g>
		<g>
			
				<ellipse ry="83.64" rx="46.88" cy="439.63" cx="551.69" class="st11" transform="matrix(0.8361 -0.5486 0.5486 0.8361 -150.7458 374.6824)"></ellipse>
			<path d="M594.57,519.13c-16.96,0-33.8-4.02-48.93-11.71c-16.61-8.44-30.83-21.19-41.1-36.85
				c-10.28-15.67-16.31-33.78-17.44-52.38c-1.1-18.03,2.4-36.2,10.1-52.55l2.49-5.28l5.83-0.18c18.07-0.55,36.12,3.47,52.23,11.66
				c16.61,8.44,30.83,21.19,41.1,36.85l0,0c10.28,15.67,16.31,33.78,17.44,52.38c1.1,18.03-2.4,36.2-10.1,52.55l-2.49,5.28
				l-5.83,0.18C596.77,519.11,595.67,519.13,594.57,519.13z M512.06,379.22c-10.54,26.78-7.54,56.61,8.4,80.91
				c15.94,24.29,42.11,38.92,70.87,39.92c10.54-26.78,7.54-56.61-8.4-80.91l0,0C566.99,394.84,540.82,380.21,512.06,379.22z" class="st7"></path>
		</g>
		<g>
			
				<ellipse ry="46.88" rx="83.64" cy="439.63" cx="648.31" class="st11" transform="matrix(0.5486 -0.8361 0.8361 0.5486 -74.9051 740.5272)"></ellipse>
			<path d="M605.43,519.13c-1.1,0-2.2-0.02-3.3-0.05l-5.83-0.18l-2.49-5.28c-7.7-16.35-11.2-34.52-10.1-52.55
				c1.13-18.6,7.16-36.71,17.44-52.38c10.28-15.67,24.49-28.41,41.1-36.85c16.1-8.19,34.15-12.22,52.23-11.66l5.83,0.18l2.49,5.28
				c7.7,16.35,11.2,34.52,10.1,52.55c-1.13,18.6-7.16,36.71-17.44,52.38c-10.28,15.67-24.49,28.41-41.1,36.85
				C639.24,515.11,622.39,519.13,605.43,519.13z M687.94,379.22c-28.76,0.99-54.93,15.62-70.87,39.92l0,0
				c-15.94,24.29-18.94,54.13-8.4,80.91c28.76-0.99,54.93-15.62,70.87-39.92C695.48,435.83,698.48,405.99,687.94,379.22z" class="st7"></path>
		</g>
		<g>
			<path d="M688.04,502.76c-20.43,26.17-52.26,42.99-88.03,42.99s-67.61-16.83-88.03-42.99
				c2.34-9.36,6.14-18.15,11.15-26.1c20.02,19.03,47.09,30.71,76.89,30.71s56.87-11.68,76.89-30.71
				C681.9,484.62,685.7,493.4,688.04,502.76z" class="st11"></path>
			<path d="M600.01,555.28c-18.98,0-37.15-4.27-54.02-12.69c-16.08-8.02-30.43-19.77-41.52-33.97l-2.86-3.66l1.13-4.51
				c2.55-10.21,6.7-19.92,12.32-28.86l6.19-9.84l8.43,8.01c19.05,18.11,44.03,28.09,70.33,28.09c26.3,0,51.28-9.97,70.33-28.09
				l8.43-8.01l6.19,9.84c5.62,8.94,9.77,18.65,12.32,28.86l1.13,4.51l-2.86,3.66c-11.09,14.2-25.44,25.95-41.52,33.97
				C637.16,551.01,618.99,555.28,600.01,555.28z M522.47,500.57c19.45,22.73,47.45,35.67,77.53,35.67s58.08-12.94,77.53-35.67
				c-0.96-3.06-2.1-6.07-3.42-8.99c-21.15,16.4-47.04,25.31-74.12,25.31s-52.97-8.91-74.12-25.31
				C524.57,494.51,523.43,497.51,522.47,500.57z" class="st7"></path>
		</g>
	</g>
	<g>
		<g>
			<g>
				<path d="M504.9,847.8c-1.98,0-3.89-1.1-4.83-3c-0.02-0.03-3.12-6.05-10.97-12.72
					c-7.25-6.16-20.18-14.18-40.59-17.36c-27.99-4.36-53.78,0.18-70.48,4.76c-18.23,5-29.93,11.13-30.05,11.19
					c-2.62,1.39-5.88,0.39-7.27-2.24c-1.39-2.62-0.39-5.88,2.23-7.27c0.51-0.27,12.65-6.66,31.93-11.97
					c17.79-4.91,45.29-9.77,75.29-5.1c44.8,6.98,58.97,34.77,59.55,35.95c1.31,2.66,0.22,5.89-2.45,7.2
					C506.51,847.62,505.7,847.79,504.9,847.8z" class="st7"></path>
				<path d="M695.1,847.8c-0.8,0-1.61-0.18-2.37-0.56c-2.66-1.31-3.76-4.54-2.45-7.2c0.58-1.18,14.76-28.97,59.55-35.95
					c30-4.67,57.5,0.19,75.29,5.1c19.28,5.32,31.42,11.71,31.93,11.97c2.62,1.39,3.62,4.65,2.23,7.27
					c-1.39,2.62-4.65,3.62-7.27,2.23c-0.2-0.11-11.88-6.21-30.04-11.19c-16.7-4.58-42.48-9.12-70.48-4.76
					c-39.34,6.13-51.44,29.84-51.56,30.08C698.99,846.69,697.08,847.79,695.1,847.8z" class="st7"></path>
			</g>
			<g>
				<g>
					<path d="M493.94,932.42c-0.05,0-0.11,0-0.16,0c-4.28-0.08-7.37-3-11.65-7.05c-7.52-7.13-20.11-19.05-45.48-22.15
						c-45.66-5.58-67.69-18.9-86.44-40.46c-0.37-0.42-0.69-0.87-0.95-1.35c-0.03-0.06-0.06-0.11-0.07-0.15
						c-0.94-2.23-0.64-4.43,1.63-5.8c2.23-1.35,5.36-0.41,6.89,1.54c0.87,1.03,23.65,27.36,73.82,32.01
						c19.38,1.79,36.43,6.24,49.3,12.86c10.44,5.37,17.9,12.05,20.45,18.34c1.64,4.05,1.03,7.74-1.69,10.11
						C497.58,932.03,495.44,932.42,493.94,932.42z M357.72,857.02C357.72,857.02,357.73,857.02,357.72,857.02
						c0.02,0.03,0.04,0.05,0.06,0.08C357.76,857.07,357.74,857.04,357.72,857.02z" class="st7"></path>
				</g>
				<g>
					<path d="M700.43,930.3c-2.72-2.37-3.34-6.06-1.69-10.11c2.55-6.28,10-12.97,20.45-18.34
						c12.87-6.62,29.92-11.06,49.3-12.86c50.17-4.65,72.96-30.98,73.82-32.01c1.52-1.95,4.66-2.89,6.89-1.54
						c2.27,1.37,2.57,3.57,1.63,5.8c-0.02,0.04-0.04,0.09-0.07,0.15c-0.26,0.48-0.58,0.93-0.95,1.35
						c-18.75,21.56-40.78,34.88-86.44,40.46c-25.37,3.1-37.96,15.03-45.48,22.15c-4.28,4.05-7.37,6.98-11.65,7.05
						c-0.05,0-0.11,0-0.16,0C704.56,932.42,702.42,932.03,700.43,930.3z M842.22,857.09c0.02-0.02,0.04-0.05,0.06-0.07c0,0,0,0,0,0
						C842.26,857.04,842.24,857.07,842.22,857.09z" class="st7"></path>
				</g>
			</g>
		</g>
		<path d="M579.72,1116.88c1.94,8.2,12.38,13.41,20.74,13.41c8.28,0,19.35-4.72,20.59-13.17l1.2-13.55l-44.5,0.98
			L579.72,1116.88z" class="st12"></path>
		<ellipse ry="13.45" rx="3.67" cy="818.23" cx="600" class="st13"></ellipse>
		<g>
			<path d="M622.2,1087.11c-9.73-0.39-17.17,6.67-20.42,10.43c-0.94,1.09-2.63,1.09-3.57,0
				c-3.25-3.75-10.68-10.82-20.42-10.43c-11.73,0.47-15.96,10.1-16.77,12.26c-0.1,0.27-0.15,0.54-0.15,0.83l0,0
				c0,0.75,0.35,1.46,0.95,1.9c17.82,13.05,34.47,11.45,37.66,11.57c0.34,0.01,0.67,0.01,1.01,0c3.19-0.12,19.85,1.48,37.66-11.57
				c0.6-0.44,0.95-1.15,0.95-1.9l0,0c0-0.28-0.05-0.56-0.15-0.83C638.17,1097.21,633.93,1087.58,622.2,1087.11z" class="st12"></path>
			<path d="M643.55,1097.67c-2.66-7.16-9.62-14.98-21.16-15.44h0c-10.04-0.4-17.83,5.41-22.4,10.04
				c-4.57-4.63-12.35-10.44-22.4-10.04c-11.53,0.46-18.49,8.28-21.16,15.44c-0.3,0.81-0.46,1.66-0.46,2.53
				c0,2.31,1.1,4.49,2.95,5.84c5.32,3.89,10.55,6.58,15.41,8.43l0.55,3.18l0.07,0.35c2.54,10.75,14.96,17.17,25.49,17.17
				c9.5,0,23.67-5.38,25.43-17.35l0.31-3.57c4.7-1.84,9.74-4.47,14.86-8.22c1.85-1.35,2.95-3.54,2.95-5.84
				C644.01,1099.33,643.86,1098.48,643.55,1097.67z M600.46,1125.4c-5.76,0-12.89-3.27-15.31-7.89c5.98,1.11,10.65,1.07,13.08,1.04
				c0.46,0,0.82-0.01,1.07,0c0.23,0.01,0.47,0.01,0.7,0.01c0.23,0,0.46,0,0.69-0.01c0.26-0.01,0.62,0,1.07,0
				c2.59,0.03,7.7,0.07,14.24-1.27C614.5,1121.99,606.87,1125.4,600.46,1125.4z M601.87,1108.78c-0.62-0.01-1.12-0.01-1.55,0.01
				c-0.22,0.01-0.42,0.01-0.64,0c-0.22-0.01-0.45-0.01-0.71-0.01c-0.25,0-0.53,0-0.84,0.01c-4.44,0.05-17.6,0.18-31.73-9.44
				c1.48-2.77,4.84-7.07,11.59-7.34c7.82-0.32,14.16,6.01,16.52,8.74c1.38,1.59,3.38,2.51,5.48,2.51c2.11,0,4.1-0.91,5.48-2.51
				c2.36-2.73,8.7-9.04,16.52-8.74c6.75,0.27,10.12,4.57,11.59,7.34C619.46,1108.96,606.3,1108.82,601.87,1108.78z" class="st7"></path>
		</g>
	</g>
</g>
</svg>
