<svg xml:space="preserve" style="enable-background:new 0 0 1200 1200;" viewBox="0 0 1200 1200" y="0px" x="0px" xmlns:xlink="http://www.w3.org/1999/xlink" xmlns="http://www.w3.org/2000/svg" id="图层_1" version="1.1">
<style type="text/css">
	.st0{fill:#8E5660;}
	.st1{fill:#EFECEA;}
	.st2{fill:#E5DCD6;}
	.st3{fill:#773838;}
	.st4{fill:#75614E;}
	.st5{fill:#563E28;}
	.st6{fill:#FCF0E6;}
	.st7{fill:#C6BFBA;}
	.st8{fill:#E5E0DC;}
	.st9{fill:#2B2A2C;}
	.st10{fill:#DD725E;}
	.st11{fill:#75614E;stroke:#DD725E;stroke-width:20;stroke-linecap:round;stroke-miterlimit:10;}
</style>
<g>
	<g>
		<circle r="600" cy="600" cx="600" class="st0"></circle>
		<circle r="584" cy="600" cx="600" class="st1"></circle>
		<circle r="545.82" cy="600" cx="600" class="st2"></circle>
		<circle r="530" cy="600" cx="600" class="st1"></circle>
		<circle r="492.33" cy="600" cx="600" class="st2"></circle>
		<g>
			<g>
				<path d="M156.41,1091.37c0,0,132.63-25.1,135.94,40.26c3.32,65.37,39.79,57.31,94.73,47.84
					s134.52-12.79,212.68-12.79s-231.83-267.02-307.41-250.1C169.67,944.06,156.41,1091.37,156.41,1091.37z" class="st3"></path>
				<path d="M337.44,1195.31c-13.44,0-24.93-2.62-34.31-10.12c-12.47-9.97-18.9-26.84-20.24-53.08
					c-0.46-9.14-4.11-16.27-11.15-21.82c-12.63-9.94-35.96-14.82-67.47-14.13c-10.18,0.23-19.72,1.02-27.46,1.87
					c-11.63,1.29-22.66,5.87-31.77,13.22h0l1.93-20.74c0.14-1.57,3.68-38.94,22.81-80.22c11.33-24.46,25.81-45.2,43.03-61.66
					c21.72-20.75,47.78-34.65,77.47-41.29c15.65-3.5,38.14,2.13,68.75,17.23c25.3,12.47,55.89,31.48,88.46,54.96
					c61.98,44.68,123.8,100.14,153.84,138.01c18.04,22.75,23.8,37.64,18.66,48.28c-2.28,4.72-7.64,10.34-20.23,10.34
					c-62.81,0-150.42,2.19-211.07,12.65l-4.18,0.72C366.9,1192.58,351.15,1195.31,337.44,1195.31z M210.14,1077.15
					c33.27,0,57.91,6.13,73.3,18.24c11.44,9,17.62,21.03,18.37,35.76c1.02,20.15,5.32,32.99,13.14,39.24
					c12.3,9.83,36.14,5.7,66.33,0.47l4.19-0.73c61.97-10.68,150.73-12.93,214.29-12.93c1.43,0,2.39-0.12,3-0.25
					c-0.3-2.35-2.26-9.37-13.84-24.53c-10.38-13.59-26.08-30.52-45.4-48.97c-41.07-39.22-93.42-80.79-140.03-111.2
					c-72.97-47.61-100.58-48.33-109.07-46.43c-47.68,10.68-83.75,41.61-107.21,91.92c-11.57,24.81-17.1,48.55-19.57,62.3
					c8.95-1.18,21.75-2.5,35.92-2.82C205.79,1077.18,207.98,1077.15,210.14,1077.15z" class="st4"></path>
			</g>
			<g>
				<path d="M1042.38,1091.37c0,0-132.63-25.1-135.94,40.26c-3.32,65.37-39.79,57.31-94.73,47.84
					s-134.52-12.79-212.68-12.79s231.83-267.02,307.41-250.1C1029.12,944.06,1042.38,1091.37,1042.38,1091.37z" class="st3"></path>
				<path d="M861.35,1195.31c-13.72,0-29.46-2.73-47.08-5.78l-4.18-0.72c-60.65-10.46-148.25-12.65-211.07-12.65
					c-12.59,0-17.95-5.62-20.23-10.34c-5.14-10.64,0.61-25.53,18.66-48.28c30.03-37.87,91.85-93.33,153.84-138.01
					c32.58-23.48,63.16-42.48,88.46-54.96c30.62-15.1,53.11-20.73,68.75-17.23c29.69,6.65,55.75,20.54,77.47,41.29
					c17.22,16.46,31.7,37.2,43.03,61.66c19.12,41.28,22.66,78.65,22.81,80.22l4.56,22.16l0,0c-11.09-8.45-24.31-13.66-38.19-15.04
					c-6.97-0.69-15.09-1.28-23.66-1.47c-31.52-0.7-54.85,4.19-67.47,14.13c-7.04,5.54-10.69,12.68-11.15,21.82
					c-1.33,26.24-7.76,43.11-20.24,53.08C886.28,1192.69,874.79,1195.3,861.35,1195.31z M596.03,1156.96c0.61,0.13,1.58,0.25,3,0.25
					c63.55,0,152.32,2.24,214.29,12.93l4.19,0.73c30.18,5.23,54.03,9.36,66.33-0.47c7.82-6.25,12.12-19.09,13.14-39.24
					c0.75-14.72,6.93-26.75,18.37-35.76c16.4-12.9,43.27-19.01,79.89-18.16c14.16,0.33,26.96,1.65,35.92,2.82
					c-2.47-13.76-8-37.49-19.57-62.3c-23.46-50.32-59.53-81.25-107.21-91.92c-8.49-1.9-36.1-1.18-109.07,46.43
					c-46.61,30.41-98.96,71.98-140.03,111.2c-19.32,18.45-35.02,35.38-45.4,48.97C598.29,1147.59,596.33,1154.61,596.03,1156.96z" class="st4"></path>
			</g>
			<g>
				<path d="M765.25,485.46c0,90.04-75.63,163.03-168.91,163.03S427.42,575.5,427.42,485.46s75.63-143.91,168.91-143.91
					S765.25,395.42,765.25,485.46z" class="st3"></path>
				<path d="M596.34,657.96c-24.04,0-47.36-4.55-69.33-13.51c-21.23-8.67-40.31-21.08-56.69-36.89
					c-16.41-15.83-29.29-34.28-38.3-54.83c-9.34-21.31-14.07-43.94-14.07-67.26c0-23.31,4.78-45.04,14.22-64.59
					c9-18.65,22.05-34.97,38.77-48.5c32.13-25.98,76.66-40.3,125.4-40.3c48.73,0,93.27,14.31,125.4,40.3
					c16.73,13.53,29.77,29.85,38.77,48.5c9.43,19.55,14.22,41.28,14.22,64.59c0,23.33-4.73,45.96-14.07,67.26
					c-9.01,20.55-21.89,39-38.3,54.83c-16.38,15.81-35.46,28.22-56.69,36.89C643.7,653.42,620.37,657.96,596.34,657.96z
					 M596.34,351.03c-93.88,0-159.44,55.28-159.44,134.43c0,84.67,71.53,153.56,159.44,153.56c87.92,0,159.44-68.88,159.44-153.56
					C755.78,406.31,690.21,351.03,596.34,351.03z" class="st4"></path>
			</g>
			<g>
				<path d="M940.73,791.54c0,178.41-152.49,323.04-340.6,323.04s-340.6-144.63-340.6-323.04
					s152.49-285.15,340.6-285.15S940.73,613.13,940.73,791.54z" class="st5"></path>
				<path d="M600.12,1124.05c-47.19,0-92.99-8.77-136.1-26.07c-41.67-16.72-79.1-40.66-111.26-71.15
					c-32.19-30.53-57.46-66.09-75.13-105.7c-18.31-41.05-27.59-84.65-27.59-129.6c0-44.8,9.33-86.52,27.74-124
					c17.54-35.71,42.97-66.96,75.6-92.9c31.57-25.09,69.02-44.55,111.32-57.83c42.06-13.2,87.62-19.9,135.42-19.9
					c47.8,0,93.36,6.7,135.42,19.9c42.3,13.28,79.75,32.74,111.32,57.83c32.63,25.93,58.07,57.19,75.6,92.9
					c18.4,37.48,27.74,79.19,27.74,124c0,44.95-9.28,88.55-27.59,129.6c-17.66,39.61-42.94,75.17-75.13,105.7
					c-32.15,30.49-69.58,54.43-111.26,71.15C693.11,1115.28,647.32,1124.05,600.12,1124.05z M600.12,515.86
					C405.16,515.86,269,629.22,269,791.54c0,172.9,148.54,313.57,331.13,313.57s331.13-140.67,331.13-313.57
					C931.25,629.22,795.09,515.86,600.12,515.86z" class="st4"></path>
			</g>
			<g>
				<path d="M942.94,885.08c0-34.58,37.53-113.21,0-113.68c-21.54-0.27-35.78,19.12-44,35.69
					c-27.02-101.61-87.34-185.48-142.18-192.71c-126.2-16.63-151.79,32.45-156.15,44.68c-0.15,0.43-0.81,0.43-0.97,0
					c-4.37-12.23-29.96-61.31-156.15-44.68c-54.83,7.23-115.15,91.09-142.18,192.71c-8.22-16.57-22.45-35.96-44-35.69
					c-37.53,0.47,0,79.1,0,113.68c0,34.58-80.61,88.58-51.18,145.89c27.58,53.71,96.41,10.47,90.37-36.48
					c27,105.13,113.92,191.95,303.3,195.86v0.01c0.11,0,0.21-0.01,0.32-0.01c0.11,0,0.21,0.01,0.32,0.01v-0.01
					c189.38-3.91,276.3-90.73,303.3-195.86c-6.03,46.95,62.8,90.19,90.37,36.48C1023.55,973.66,942.94,919.66,942.94,885.08z" class="st6"></path>
				<path d="M590.33,1200v-0.44c-86.33-3.06-156.48-23.74-208.63-61.51c-24.4-17.67-44.92-39.21-61-64
					c-8.81-13.58-16.33-28.22-22.52-43.76c-1.27,2.25-2.68,4.46-4.24,6.61c-8.85,12.24-21.71,21.68-35.28,25.89
					c-11.6,3.6-23.17,3.33-33.47-0.79c-11.36-4.55-20.88-13.78-27.51-26.69c-9.54-18.58-10.03-38.29-1.49-60.25
					c6.98-17.95,19.06-34.78,29.72-49.63c11.26-15.69,21.9-30.51,21.9-40.34c0-10.02-3.91-25.74-7.68-40.94
					c-7.42-29.86-14.43-58.06-2.85-73.08c3.16-4.09,9.17-9,19.88-9.14c15.43-0.21,29.33,7.39,40.95,22.16
					c13.59-42.93,33.19-82.95,56.18-114.35c13.39-18.29,27.48-33.1,41.89-44.04c15.5-11.76,30.99-18.73,46.04-20.72
					c55.57-7.33,99.08-3.12,129.34,12.49c13.92,7.18,22.86,15.75,28.53,23.23c5.67-7.48,14.61-16.04,28.53-23.23
					c30.26-15.61,73.78-19.81,129.34-12.49c15.05,1.98,30.54,8.95,46.04,20.72c14.4,10.93,28.5,25.75,41.89,44.04
					c22.99,31.4,42.59,71.41,56.18,114.35c11.47-14.58,25.18-22.17,40.37-22.17c0.19,0,0.38,0,0.58,0
					c10.71,0.14,16.72,5.04,19.88,9.14c11.59,15.01,4.58,43.22-2.85,73.08c-3.78,15.2-7.68,30.92-7.68,40.94
					c0,9.82,10.64,24.64,21.9,40.34c10.66,14.85,22.74,31.68,29.72,49.63c8.54,21.96,8.05,41.67-1.49,60.25
					c-6.63,12.91-16.14,22.14-27.51,26.69c-10.29,4.12-21.87,4.39-33.47,0.79c-13.57-4.21-26.42-13.65-35.28-25.89
					c-1.55-2.15-2.97-4.35-4.24-6.61c-6.18,15.54-13.71,30.18-22.52,43.76c-16.08,24.79-36.6,46.33-61,64
					c-52.14,37.77-122.3,58.45-208.63,61.51v0.43l-9.79-0.16l-0.16,0L590.33,1200z M305.68,992.13
					c21.52,83.78,90.05,184.53,294.32,188.74l0.13,0l0.12,0c204.27-4.21,272.8-104.96,294.32-188.74l18.57,3.56
					c-2.84,22.1,15.31,43.17,34.05,48.99c9.42,2.92,26.94,4.47,38.5-18.04c7.02-13.67,7.24-27.88,0.68-44.73
					c-6.11-15.72-16.96-30.83-27.45-45.45c-13.66-19.03-25.46-35.46-25.46-51.38c0-12.34,4-28.45,8.24-45.51
					c3.17-12.75,6.45-25.94,7.8-36.92c1.66-13.5-0.27-18.33-1.56-20.01c-0.4-0.51-1.33-1.72-5.12-1.77c-0.1,0-0.21,0-0.31,0
					c-16.51,0-28.18,16.52-35.08,30.43l-11.18,22.53l-6.46-24.31c-12.87-48.41-33.88-94.07-59.15-128.59
					c-24.7-33.73-51.37-54.03-75.11-57.16c-120.22-15.85-142.71,29.27-145.99,38.47c-1.41,3.96-5.19,6.61-9.41,6.61c0,0,0,0,0,0
					c-4.21,0-7.99-2.66-9.41-6.62c-3.29-9.2-25.77-54.31-145.99-38.47c-23.74,3.13-50.41,23.43-75.11,57.16
					c-25.27,34.51-46.27,80.18-59.15,128.59L304,833.83l-11.18-22.53c-6.9-13.91-18.57-30.43-35.08-30.43c-0.1,0-0.21,0-0.31,0
					c-3.8,0.05-4.73,1.25-5.12,1.77c-1.3,1.68-3.22,6.51-1.56,20.01c1.35,10.98,4.63,24.17,7.8,36.92
					c4.24,17.06,8.24,33.17,8.24,45.51c0,15.92-11.8,32.35-25.46,51.38c-10.49,14.62-21.34,29.73-27.45,45.45
					c-6.55,16.85-6.34,31.06,0.68,44.73c11.56,22.51,29.08,20.97,38.5,18.04c18.74-5.82,36.89-26.89,34.05-48.99L305.68,992.13z" class="st4"></path>
			</g>
			<g>
				<g>
					<path d="M296.52,994.49c0,0-5.4-22.73-3.87-37.41" class="st6"></path>
					<path d="M287.31,996.68c-0.24-0.99-5.76-24.48-4.08-40.58l18.84,1.97c-1.12,10.73,2.27,28.35,3.67,34.23
						L287.31,996.68z" class="st4"></path>
				</g>
				<g>
					<path d="M903.73,994.49c0,0,5.4-22.73,3.87-37.41" class="st6"></path>
					<path d="M912.94,996.68l-18.43-4.38c1.4-5.9,4.78-23.55,3.67-34.24l18.84-1.97
						C918.7,972.2,913.18,995.69,912.94,996.68z" class="st4"></path>
				</g>
			</g>
			<g>
				<path d="M300.85,781.14c24.42-116.96,149.01-206,299.05-206c149.82,0,274.27,88.78,298.94,205.49
					c2.92,13.82,4.44,1.4,4.44,1.4c0-136.98-135.83-248.02-303.38-248.02S296.51,645.06,296.51,782.04
					C296.51,782.04,298,794.8,300.85,781.14z" class="st3"></path>
				<path d="M298.3,796.92c-0.14,0-0.27,0-0.38-0.01c-2.97-0.13-8.25-1.62-10.18-10.08c-0.4-1.76-0.6-3.39-0.64-3.7
					l-0.06-0.55v-0.55c0-35.01,8.38-68.96,24.9-100.89c15.88-30.69,38.57-58.22,67.44-81.82c28.73-23.49,62.15-41.91,99.33-54.77
					c38.4-13.28,79.17-20.01,121.19-20.01s82.79,6.73,121.19,20.01c37.18,12.86,70.61,31.29,99.33,54.77
					c28.87,23.6,51.56,51.13,67.44,81.82c16.52,31.94,24.9,65.88,24.9,100.89v0.58l-0.07,0.57c-0.04,0.3-0.24,1.89-0.65,3.61
					c-1.99,8.26-7.23,9.7-10.17,9.83c-1.66,0.07-7.32-0.23-10.28-7.11c-0.73-1.7-1.37-3.9-2.01-6.93
					c-24.25-114.72-146.07-197.98-289.67-197.98c-143.9,0-265.77,83.46-289.77,198.46l0,0c-0.61,2.94-1.23,5.08-1.93,6.74
					C305.46,796.24,300.33,796.92,298.3,796.92z M908.98,782.04C908.98,782.04,908.98,782.04,908.98,782.04
					C908.98,782.04,908.98,782.04,908.98,782.04z M599.89,565.67c37.58,0,74.32,5.42,109.22,16.11
					c33.78,10.35,64.93,25.34,92.59,44.56c31.91,22.18,57.9,49.26,76.69,79.39C839.09,611.5,729.1,543.49,599.89,543.49
					c-129.19,0-239.19,68.01-278.49,162.23c18.73-30.05,44.64-57.07,76.45-79.22c27.67-19.27,58.85-34.3,92.68-44.68
					C525.47,571.1,562.26,565.67,599.89,565.67z" class="st4"></path>
			</g>
			<g>
				<path d="M515.45,409.29c0,0-4.06,138.61-25,156.22c-20.94,17.61-89.62,14.77-89.62,14.77s-49.64,74.45-41.64,131.25
					c8.01,56.8-90.99,111.27-99.52-0.04c-8.53-111.31,39.79-254.36,91.89-277.57C403.66,410.71,515.45,409.29,515.45,409.29z" class="st7"></path>
				<path d="M304.36,785.59c-6.46,0-12.74-1.3-18.56-3.93c-14.3-6.49-32.09-23.81-35.58-69.44
					c-4.14-54.02,4.49-118,23.67-175.54c9.08-27.25,20.2-51.57,32.14-70.33c13.27-20.85,27.3-34.67,41.67-41.07
					c53.27-23.73,162.98-25.39,167.62-25.45l9.88-0.13l-0.29,9.88c-0.01,0.35-1.07,35.41-4.69,72.16
					c-6.78,68.73-16.22,84.76-23.69,91.04c-10.38,8.73-29.37,14.02-58.05,16.18c-13.53,1.02-25.76,1.04-32.53,0.94
					c-10.03,16.33-43.74,75.29-37.39,120.32c3.19,22.64-8,47.18-28.51,62.53C328.74,781.2,316.25,785.58,304.36,785.59z
					 M505.59,419.03c-28.25,0.99-109.34,5.35-150.18,23.54c-10.77,4.8-22.32,16.53-33.4,33.94c-11.12,17.47-21.55,40.34-30.15,66.15
					c-18.41,55.23-26.7,116.5-22.75,168.1c2.18,28.4,10.88,47.45,24.52,53.64c10.11,4.59,23.22,2.04,35.07-6.83
					c15.06-11.27,23.34-28.82,21.1-44.71c-8.41-59.68,41.03-134.66,43.13-137.83l2.95-4.43l5.32,0.22c0.17,0.01,17,0.67,36.03-0.77
					c31.65-2.4,43.1-8.41,47.1-11.78c0.48-0.41,4.85-4.6,9.57-26.54c2.87-13.32,5.37-30.74,7.45-51.76
					C503.77,455.57,505.03,431.92,505.59,419.03z" class="st4"></path>
			</g>
			<g>
				<path d="M684.55,409.29c0,0,4.06,138.61,25,156.22c20.94,17.61,89.62,14.77,89.62,14.77s49.64,74.45,41.64,131.25
					c-8.01,56.8,90.99,111.27,99.52-0.04c8.53-111.31-39.79-254.36-91.89-277.57C796.33,410.71,684.55,409.29,684.55,409.29z" class="st7"></path>
				<path d="M895.63,785.59c-11.88,0-24.38-4.38-35.69-12.85c-20.51-15.35-31.7-39.89-28.51-62.53
					c6.35-45.03-27.36-103.99-37.39-120.32c-6.77,0.1-19,0.08-32.53-0.94c-28.68-2.16-47.67-7.45-58.05-16.18
					c-7.47-6.28-16.91-22.3-23.69-91.04c-3.62-36.75-4.68-71.81-4.69-72.16l-0.29-9.88l9.88,0.13
					c4.64,0.06,114.35,1.72,167.62,25.45c14.38,6.41,28.4,20.22,41.67,41.07c11.94,18.76,23.05,43.08,32.14,70.33
					c19.18,57.54,27.81,121.52,23.67,175.54c-3.5,45.64-21.28,62.95-35.58,69.44C908.38,784.29,902.1,785.59,895.63,785.59z
					 M804.1,570.6l2.95,4.43c2.11,3.16,51.55,78.14,43.13,137.83c-2.24,15.89,6.04,33.45,21.1,44.71
					c11.85,8.87,24.96,11.42,35.07,6.83c13.64-6.19,22.34-25.24,24.52-53.64c3.95-51.6-4.34-112.87-22.75-168.1
					c-8.6-25.8-19.03-48.68-30.15-66.15c-11.08-17.41-22.63-29.15-33.4-33.94c-40.84-18.19-121.93-22.55-150.18-23.54
					c0.57,12.89,1.82,36.54,4.23,60.93c2.07,21.02,4.58,38.44,7.45,51.76c4.72,21.95,9.09,26.14,9.57,26.54
					c4,3.37,15.45,9.37,47.1,11.78c19.03,1.45,35.87,0.78,36.04,0.77L804.1,570.6z" class="st4"></path>
			</g>
			<g>
				<path d="M1000.48,758.85c-8.53-170.05-29.37-336.3-126.47-336.3c0,0-30.31-129.31-135.94-130.73
					c0,0-15.34-163.11-138.07-86.11c-122.73-77-138.07,86.11-138.07,86.11c-105.63,1.42-135.94,130.73-135.94,130.73
					c-97.1,0-117.94,166.26-126.47,336.3s-43.1,332.51-43.1,332.51c68.68-51.16,150.63-156.78,190.41-245.36s-2.84-182.83-18-208.89
					c-15.16-26.05-28.89-79.58,72-54.95c100.89,24.63,106.57-39.79,78.63-60.63c-27.95-20.84-40.74-71.52,0-88.58
					c39.4-16.49,49.11,39.68,117,43.38v0.19c1.2,0,2.38-0.02,3.55-0.05c1.17,0.03,2.35,0.05,3.55,0.05v-0.19
					c67.88-3.7,77.6-59.88,117-43.38c40.74,17.05,27.95,67.73,0,88.58c-27.95,20.84-22.26,85.26,78.63,60.63
					c100.89-24.63,87.15,28.89,72,54.95c-15.16,26.05-57.79,120.31-18,208.89c39.79,88.58,121.73,194.2,190.41,245.36
					C1043.59,1091.37,1009.01,928.9,1000.48,758.85z" class="st8"></path>
				<path d="M1058.08,1113.98l-20.16-15.01c-69.83-52.01-152.98-159.09-193.4-249.07
					c-9.68-21.55-15.37-44.97-16.92-69.63c-1.29-20.54,0.28-42.07,4.67-64c6.99-34.97,20.45-66.27,30.7-83.9
					c7.7-13.24,12.66-30.38,6.35-38.83c-3.12-4.18-9.19-6.79-18.03-7.78c-12.23-1.36-29.01,0.53-49.88,5.62
					c-26.89,6.56-49.45,7.56-67.06,2.97c-20.46-5.34-29.67-16.89-33.79-25.64c-8.76-18.6-2.6-42.14,14.32-54.76
					c14.47-10.79,23.88-31.17,21.89-47.41c-1.42-11.55-8.11-19.91-19.89-24.84c-13.76-5.76-21.52-0.36-37.77,12.41
					c-14.61,11.48-34.17,26.85-66.09,30.89v1.01h-9.47c-1.17,0-2.36-0.01-3.55-0.04c-1.19,0.03-2.39,0.04-3.55,0.04h-9.47v-1.01
					c-31.93-4.04-51.49-19.41-66.09-30.89c-16.25-12.77-24.01-18.17-37.77-12.41c-11.78,4.93-18.47,13.29-19.89,24.84
					c-1.99,16.23,7.42,36.61,21.89,47.41c16.92,12.62,23.07,36.16,14.32,54.76c-4.12,8.75-13.33,20.3-33.79,25.64
					c-17.61,4.59-40.18,3.59-67.06-2.97c-20.86-5.09-37.64-6.99-49.88-5.62c-8.85,0.98-14.91,3.6-18.03,7.78
					c-6.31,8.44-1.36,25.58,6.35,38.83c10.26,17.63,23.71,48.93,30.71,83.9c4.38,21.92,5.95,43.46,4.67,64
					c-1.55,24.66-7.24,48.08-16.92,69.63c-40.42,89.98-123.56,197.06-193.4,249.07l-20.15,15.01l5.23-24.58
					c0.34-1.62,34.52-163.73,42.91-331.02c3.67-73.26,10.45-166.07,30.39-234.11c10.23-34.91,22.94-60.84,38.84-79.27
					c16.54-19.17,36.49-29.79,59.39-31.63c3.46-11.64,11.89-36.04,27.69-60.75c12.74-19.93,27.66-35.92,44.35-47.54
					c18.9-13.16,40.01-20.67,62.86-22.37c3.38-21.78,16.09-80.05,56.98-100.22c24.89-12.28,54.96-8.19,89.45,12.14
					c34.49-20.33,64.56-24.42,89.45-12.14c40.89,20.18,53.6,78.45,56.98,100.22c22.85,1.7,43.96,9.2,62.86,22.37
					c16.68,11.62,31.61,27.62,44.35,47.54c15.8,24.71,24.23,49.11,27.69,60.75c22.9,1.84,42.85,12.46,59.39,31.63
					c15.9,18.43,28.61,44.36,38.84,79.27c19.94,68.04,26.72,160.85,30.39,234.11c8.39,167.35,42.56,329.4,42.91,331.02
					L1058.08,1113.98z M843.16,566.39c3.63,0,7.04,0.18,10.24,0.53c14.26,1.59,24.73,6.72,31.12,15.27
					c15.43,20.65-0.04,50.91-5.15,59.69c-3.28,5.64-20.06,35.88-28.5,78.09c-8.98,44.88-5.29,85.98,10.96,122.15
					c35.46,78.94,104.6,171.3,167.44,225.54c-9.98-52.68-31.74-178.95-38.23-308.34c-3.62-72.22-10.26-163.6-29.65-229.73
					c-19.25-65.66-47.82-97.58-87.36-97.58h-7.51l-1.71-7.31c-0.07-0.3-7.6-31.54-27.4-62.32c-25.72-40-59.18-60.56-99.45-61.1
					l-8.51-0.11l-0.8-8.47c-0.07-0.73-7.47-73.48-47.61-93.25c-19.79-9.75-45.36-4.94-76,14.28l-5.03,3.16l-5.03-3.16
					c-30.64-19.22-56.21-24.02-76-14.28c-40.14,19.77-47.54,92.52-47.61,93.26l-0.81,8.46l-8.5,0.12
					c-40.42,0.54-73.97,21.25-99.73,61.53c-19.68,30.79-27.05,61.58-27.12,61.89l-1.71,7.31h-7.51c-39.54,0-68.11,31.92-87.36,97.58
					c-19.38,66.13-26.03,157.51-29.65,229.73c-6.49,129.39-28.25,255.65-38.23,308.34c62.84-54.24,131.98-146.6,167.44-225.54
					c16.25-36.17,19.93-77.27,10.96-122.15c-8.44-42.21-25.22-72.46-28.5-78.09c-5.11-8.78-20.58-39.04-5.15-59.69
					c6.38-8.54,16.85-13.68,31.12-15.27c14.44-1.61,33.44,0.43,56.46,6.05c41.23,10.07,70.84,5.46,79.22-12.33
					c4.92-10.44,1.18-24.28-8.5-31.5c-20.14-15.02-32.22-41.71-29.37-64.9c2.24-18.27,13.39-32.47,31.38-40
					c11.21-4.69,21.75-4.98,32.21-0.88c8.74,3.42,16.43,9.47,24.58,15.87c15.49,12.17,33.04,25.97,64.38,27.67l2.56,0.14
					c0.07,0,0.15,0,0.22-0.01l0.25-0.01l0.25,0.01c0.07,0,0.15,0,0.22,0.01l2.56-0.14c31.34-1.71,48.89-15.5,64.38-27.67
					c8.15-6.4,15.84-12.45,24.58-15.87c10.47-4.1,21-3.81,32.21,0.88c17.99,7.53,29.13,21.74,31.38,40
					c2.85,23.19-9.23,49.88-29.37,64.9c-9.68,7.22-13.42,21.06-8.5,31.5c8.38,17.79,37.99,22.4,79.22,12.33
					C814.86,568.59,830.36,566.39,843.16,566.39z" class="st4"></path>
			</g>
			<g>
				<path d="M325.98,422.55c0,0-18,138.31-7.54,184.89" class="st8"></path>
				<path d="M309.21,609.52c-10.71-47.67,6.64-182.47,7.38-188.19l18.79,2.45c-0.18,1.37-17.66,137.18-7.69,181.59
					L309.21,609.52z" class="st4"></path>
			</g>
			<g>
				<path d="M461.93,291.82c0,0-17.1,145.73-6.63,192.31" class="st8"></path>
				<path d="M446.05,486.2c-10.7-47.61,5.76-189.47,6.47-195.49l18.82,2.21c-0.17,1.44-16.79,144.65-6.8,189.13
					L446.05,486.2z" class="st4"></path>
			</g>
			<g>
				<path d="M874.01,422.55c0,0,18,138.31,7.54,184.89" class="st8"></path>
				<path d="M890.79,609.52l-18.49-4.15c9.98-44.42-7.51-180.23-7.69-181.59l18.79-2.45
					C884.15,427.04,901.5,561.85,890.79,609.52z" class="st4"></path>
			</g>
			<g>
				<path d="M738.07,291.82c0,0,17.1,145.73,6.63,192.31" class="st8"></path>
				<path d="M753.95,486.2l-18.49-4.15c9.99-44.49-6.63-187.69-6.8-189.13l18.82-2.21
					C748.19,296.73,764.64,438.59,753.95,486.2z" class="st4"></path>
			</g>
			<g>
				<path d="M353.46,692.54c0,0-27.47,234.94-182.83,318.78l-14.21,80.05c0,0,130.29-78.62,183.62-213.76
					C387.09,758.38,353.46,692.54,353.46,692.54z" class="st9"></path>
				<path d="M143.44,1110.26l18.66-105.11l4.03-2.17c77.69-41.92,121.91-124.21,145.32-185.85
					c25.58-67.34,32.54-125.11,32.6-125.69l3.63-31.04l14.22,27.83c0.38,0.74,9.29,18.51,11.94,51.37
					c1.52,18.93,0.69,39.19-2.48,60.2c-3.94,26.07-11.51,53.42-22.5,81.28c-12.47,31.61-30.11,62.76-52.41,92.6
					c-17.78,23.79-38.56,46.8-61.75,68.4c-39.5,36.79-72.01,56.56-73.37,57.38L143.44,1110.26z M179.16,1017.43l-9.51,53.59
					c13.03-9.35,31.88-23.9,52.47-43.11c34.96-32.62,82.27-85.78,109.1-153.77c23.37-59.23,25.86-104.32,23.83-131.73
					c-0.1-1.32-0.21-2.62-0.33-3.89c-5.17,22.99-13.26,52.94-25.56,85.33c-15.56,40.96-34.65,77.24-56.74,107.83
					C245.58,968.83,214.23,997.65,179.16,1017.43z" class="st4"></path>
			</g>
			<g>
				<path d="M845.87,692.54c0,0,27.47,234.94,182.83,318.78l14.21,80.05c0,0-130.29-78.62-183.62-213.76
					C812.24,758.38,845.87,692.54,845.87,692.54z" class="st9"></path>
				<path d="M1055.89,1110.26l-17.87-10.78c-1.36-0.82-33.87-20.59-73.37-57.38c-23.2-21.6-43.97-44.62-61.75-68.4
					c-22.31-29.84-39.94-61-52.41-92.6c-10.99-27.86-18.57-55.21-22.5-81.28c-3.17-21.01-4.01-41.27-2.48-60.2
					c2.65-32.86,11.56-50.63,11.94-51.37l14.22-27.83l3.63,31.04c0.09,0.75,7.15,58.82,32.76,126.1
					c23.41,61.49,67.6,143.58,145.16,185.44l4.03,2.17L1055.89,1110.26z M844.61,738.52c-0.12,1.27-0.23,2.56-0.33,3.89
					c-2.03,27.4,0.45,72.5,23.83,131.73c26.9,68.16,74.37,121.42,109.45,154.1c20.49,19.09,39.18,33.51,52.12,42.79l-9.51-53.6
					c-35.07-19.77-66.43-48.6-93.25-85.74c-22.09-30.59-41.19-66.87-56.74-107.83C857.87,791.46,849.77,761.51,844.61,738.52z" class="st4"></path>
			</g>
		</g>
	</g>
	<g>
		<g>
			<g>
				<path d="M507.75,856.4c-1.92,0-3.78-1.07-4.68-2.91c-0.02-0.03-3.03-5.87-10.64-12.34
					c-7.04-5.98-19.58-13.75-39.38-16.84c-27.16-4.23-52.17,0.17-68.37,4.61c-17.68,4.85-29.03,10.79-29.15,10.85
					c-2.55,1.35-5.7,0.38-7.05-2.17c-1.35-2.55-0.38-5.7,2.16-7.05c0.49-0.26,12.27-6.46,30.98-11.62
					c17.25-4.76,43.93-9.48,73.03-4.94c43.46,6.77,57.21,33.73,57.77,34.87c1.27,2.58,0.21,5.71-2.37,6.99
					C509.31,856.23,508.52,856.4,507.75,856.4z" class="st4"></path>
				<path d="M692.25,856.4c-0.77,0-1.56-0.17-2.3-0.54c-2.58-1.27-3.65-4.4-2.37-6.99c0.56-1.14,14.31-28.1,57.77-34.87
					c29.1-4.53,55.78,0.18,73.03,4.94c18.71,5.16,30.48,11.35,30.98,11.62c2.55,1.35,3.51,4.51,2.16,7.06
					c-1.35,2.54-4.51,3.51-7.05,2.16c-0.2-0.1-11.53-6.02-29.14-10.85c-16.2-4.44-41.21-8.84-68.37-4.61
					c-38.16,5.95-49.9,28.94-50.02,29.18C696.03,855.33,694.18,856.4,692.25,856.4z" class="st4"></path>
			</g>
			<g>
				<g>
					<path d="M497.11,938.49c-0.05,0-0.1,0-0.16,0c-4.15-0.08-7.15-2.91-11.3-6.84c-7.3-6.91-19.51-18.48-44.12-21.49
						c-44.29-5.41-65.66-18.34-83.85-39.25c-0.36-0.41-0.67-0.85-0.92-1.31c-0.03-0.06-0.06-0.11-0.07-0.14
						c-0.92-2.16-0.62-4.3,1.58-5.63c2.16-1.31,5.2-0.4,6.68,1.49c0.84,0.99,22.94,26.54,71.61,31.05
						c18.8,1.74,35.34,6.05,47.82,12.47c10.13,5.21,17.36,11.69,19.83,17.79c1.59,3.93,1,7.51-1.64,9.81
						C500.65,938.12,498.57,938.49,497.11,938.49z M364.98,865.35C364.98,865.35,364.98,865.35,364.98,865.35
						c0.02,0.03,0.04,0.05,0.06,0.07C365.02,865.39,365,865.37,364.98,865.35z" class="st4"></path>
				</g>
				<g>
					<path d="M697.42,936.43c-2.64-2.3-3.24-5.87-1.64-9.81c2.47-6.1,9.7-12.58,19.83-17.79
						c12.49-6.42,29.03-10.73,47.82-12.47c48.67-4.51,70.77-30.06,71.61-31.05c1.48-1.89,4.52-2.8,6.68-1.49
						c2.2,1.33,2.5,3.46,1.58,5.63c-0.02,0.04-0.04,0.09-0.07,0.14c-0.25,0.46-0.57,0.9-0.92,1.31
						c-18.19,20.91-39.56,33.84-83.85,39.25c-24.61,3.01-36.83,14.58-44.12,21.49c-4.15,3.93-7.14,6.77-11.3,6.84
						c-0.05,0-0.1,0-0.16,0C701.43,938.49,699.35,938.12,697.42,936.43z M834.97,865.42c0.02-0.02,0.04-0.05,0.05-0.07c0,0,0,0,0,0
						C835,865.37,834.98,865.39,834.97,865.42z" class="st4"></path>
				</g>
			</g>
		</g>
		<path d="M580.33,1117.43c1.88,7.96,12.01,13.01,20.12,13.01c8.03,0,18.77-4.58,19.98-12.78l1.16-13.14l-43.17,0.95
			L580.33,1117.43z" class="st10"></path>
		<ellipse ry="13.04" rx="3.56" cy="827.72" cx="600" class="st11"></ellipse>
		<g>
			<path d="M621.54,1088.55c-9.44-0.38-16.66,6.47-19.81,10.11c-0.92,1.06-2.55,1.06-3.47,0
				c-3.15-3.64-10.36-10.49-19.81-10.11c-11.38,0.46-15.49,9.8-16.27,11.89c-0.1,0.26-0.14,0.53-0.14,0.8l0,0
				c0,0.72,0.34,1.41,0.92,1.84c17.28,12.66,33.44,11.1,36.53,11.22c0.33,0.01,0.65,0.01,0.98,0c3.1-0.12,19.25,1.43,36.53-11.22
				c0.58-0.43,0.92-1.12,0.92-1.84l0,0c0-0.27-0.05-0.54-0.14-0.8C637.03,1098.35,632.92,1089.01,621.54,1088.55z" class="st10"></path>
			<path d="M642.25,1098.79c-2.59-6.95-9.33-14.53-20.52-14.98h0c-9.74-0.39-17.3,5.25-21.73,9.74
				c-4.43-4.5-11.98-10.13-21.73-9.74c-11.19,0.45-17.94,8.03-20.52,14.98c-0.29,0.79-0.44,1.61-0.44,2.46
				c0,2.24,1.07,4.36,2.86,5.67c5.16,3.78,10.23,6.38,14.94,8.18l0.53,3.08l0.07,0.34c2.47,10.43,14.51,16.66,24.73,16.66
				c9.21,0,22.96-5.22,24.67-16.83l0.3-3.46c4.56-1.79,9.45-4.34,14.41-7.97c1.79-1.31,2.87-3.43,2.87-5.67
				C642.69,1100.41,642.54,1099.58,642.25,1098.79z M600.45,1125.69c-5.58,0-12.51-3.17-14.85-7.65c5.8,1.08,10.33,1.03,12.69,1.01
				c0.44,0,0.79-0.01,1.04,0c0.23,0.01,0.45,0.01,0.68,0.01c0.22,0,0.45,0,0.67-0.01c0.25-0.01,0.6,0,1.04,0
				c2.51,0.03,7.47,0.07,13.81-1.23C614.06,1122.38,606.67,1125.69,600.45,1125.69z M601.81,1109.57c-0.61-0.01-1.08-0.01-1.5,0.01
				c-0.21,0.01-0.4,0.01-0.62,0c-0.21-0.01-0.44-0.01-0.68-0.01c-0.25,0-0.52,0-0.82,0.01c-4.3,0.04-17.07,0.17-30.78-9.16
				c1.43-2.69,4.7-6.86,11.24-7.12c7.59-0.31,13.74,5.83,16.03,8.48c1.34,1.55,3.28,2.43,5.32,2.43s3.98-0.89,5.32-2.43
				c2.29-2.65,8.44-8.77,16.03-8.48c6.55,0.26,9.81,4.43,11.24,7.12C618.88,1109.74,606.12,1109.61,601.81,1109.57z" class="st4"></path>
		</g>
	</g>
</g>
</svg>
