<svg xml:space="preserve" style="enable-background:new 0 0 1200 1200;" viewBox="0 0 1200 1200" y="0px" x="0px" xmlns:xlink="http://www.w3.org/1999/xlink" xmlns="http://www.w3.org/2000/svg" id="图层_1" version="1.1">
<style type="text/css">
	.st0{fill:#312725;}
	.st1{fill:#605855;}
	.st2{fill:#574D49;}
	.st3{fill:#48705D;}
	.st4{fill:#508266;}
	.st5{fill:#8E7D6B;}
	.st6{fill:#6899B5;}
	.st7{fill:#65727F;}
	.st8{fill:#5D7B93;}
	.st9{fill:#90816C;}
	.st10{fill:#F9DB8F;stroke:#75614E;stroke-width:26;stroke-miterlimit:10;}
	.st11{fill:#75614E;}
	.st12{fill:#563E28;}
	.st13{fill:#FCF0E6;}
	.st14{fill:#F9DB8F;}
	.st15{fill:#D4A394;}
	.st16{fill:#425E4B;}
	.st17{fill:#83AFE2;}
	.st18{fill:#DD725E;}
	.st19{fill:#75614E;stroke:#DD725E;stroke-width:20;stroke-linecap:round;stroke-miterlimit:10;}
</style>
<g>
	<g>
		<circle r="600" cy="597.84" cx="600.05" class="st0"></circle>
		<circle r="568.5" cy="597.84" cx="600.05" class="st1"></circle>
		<circle r="562.5" cy="597.84" cx="600.05" class="st2"></circle>
		<circle r="540" cy="597.84" cx="600.05" class="st3"></circle>
		<circle r="515" cy="597.84" cx="600.05" class="st4"></circle>
		<circle r="465" cy="597.84" cx="600.05" class="st0"></circle>
		<circle r="439.5" cy="597.84" cx="600.05" class="st5"></circle>
		<circle r="433" cy="597.84" cx="600.05" class="st2"></circle>
		<circle r="413.5" cy="597.84" cx="600.05" class="st5"></circle>
		<circle r="406.5" cy="597.84" cx="600.05" class="st2"></circle>
		<circle r="390.5" cy="597.84" cx="600.05" class="st6"></circle>
		<circle r="385" cy="597.84" cx="600.05" class="st7"></circle>
		<circle r="366.5" cy="597.84" cx="600.05" class="st6"></circle>
		<circle r="360" cy="597.84" cx="600.05" class="st8"></circle>
		<circle r="335" cy="597.84" cx="600.05" class="st2"></circle>
		<circle r="322.5" cy="597.84" cx="600.05" class="st9"></circle>
		<g>
			<circle r="95" cy="524.34" cx="417.05" class="st10"></circle>
			<circle r="50" cy="524.34" cx="417.05" class="st10"></circle>
			<circle r="95" cy="524.34" cx="783.05" class="st10"></circle>
			<circle r="50" cy="524.34" cx="783.05" class="st10"></circle>
		</g>
		<g>
			<g>
				<path d="M991.32,797.1c0,0,47.99,76.68,20.78,171.66c-27.21,94.98-79.15,150.39-6.43,213.71
					c0,0-68.76,20.28-96.96-21.27s-34.13-77.17,19.79-141.98s42.48-207.63,42.48-207.63L991.32,797.1z" class="st0"></path>
				<path d="M968.51,1194.84c-0.26,0-0.53,0-0.8,0c-29.66-0.18-52.19-10.37-65.15-29.47
					c-17.22-25.37-23.84-45.41-22.16-67.01c1.93-24.8,15.4-51.45,42.38-83.88c51.39-61.77,37.9-200.89,37.79-202.29l-0.34-4.19
					l33.19-21.5l4.18,6.68c0.51,0.82,12.67,20.45,21.45,52.17c5.15,18.59,8.07,37.53,8.68,56.29c0.77,23.5-2.1,46.77-8.52,69.18
					c-6.59,23-14.72,44.01-21.9,62.54c-23.02,59.46-38.23,98.75,13.21,143.53l10.2,8.89l-12.98,3.83
					C1007.03,1189.81,989.71,1194.84,968.51,1194.84z M978.65,815.23c0.63,10.8,1.85,40.83-1.31,76.53
					c-2.3,25.91-6.45,49.37-12.34,69.74c-7.49,25.88-17.85,46.89-30.81,62.47c-24.92,29.95-37.31,53.95-39,75.54
					c-1.4,17.97,4.47,35.17,19.64,57.53c17.84,26.3,55.43,24.39,75.48,21.14c-20.05-20.72-29.38-42.36-29.17-67.25
					c0.22-25.78,10.47-52.27,22.34-82.94c7.41-19.13,15.07-38.92,21.47-61.27c13.58-47.4,7.38-90.02-0.2-117.43
					c-5.26-19-11.83-33.39-15.91-41.32L978.65,815.23z" class="st11"></path>
			</g>
			<g>
				<path d="M208.79,797.1c0,0-47.99,76.68-20.78,171.66s79.15,150.39,6.43,213.71c0,0,68.76,20.28,96.96-21.27
					s34.13-77.17-19.79-141.98s-42.48-207.63-42.48-207.63L208.79,797.1z" class="st0"></path>
				<path d="M231.6,1194.84c-21.2,0-38.52-5.04-39.26-5.25l-12.98-3.83l10.2-8.89
					c51.43-44.79,36.23-84.07,13.21-143.53c-7.18-18.54-15.31-39.54-21.9-62.54c-6.42-22.41-9.28-45.68-8.52-69.18
					c0.61-18.76,3.54-37.7,8.68-56.29c8.78-31.72,20.94-51.35,21.45-52.17l4.18-6.68l40.19,21.5l-0.34,4.19
					c-0.03,0.35-12.77,35.78-8.96,78.5c4.96,55.69,18.71,98.5,39.75,123.8c26.98,32.43,40.45,59.08,42.38,83.88
					c1.69,21.6-4.94,41.64-22.16,67.01c-12.96,19.1-35.49,29.3-65.15,29.47C232.13,1194.84,231.86,1194.84,231.6,1194.84z
					 M209.81,1178.15c20.06,3.22,57.67,5.09,75.46-21.12c15.17-22.36,21.04-39.56,19.64-57.53c-1.68-21.59-14.07-45.59-39-75.54
					c-12.96-15.57-23.32-36.59-30.81-62.47c-5.89-20.37-10.04-43.83-12.34-69.74c-3.16-35.7-1.94-65.73-1.31-76.53l-10.19-7.26
					c-4.12,8.03-10.79,22.65-16.06,41.83c-7.49,27.29-13.58,69.73-0.06,116.92c6.4,22.35,14.06,42.14,21.47,61.27
					c11.87,30.67,22.13,57.15,22.34,82.94C239.17,1135.8,229.84,1157.44,209.81,1178.15z" class="st11"></path>
			</g>
			<g>
				<g>
					<path d="M946.12,688.3c0,0,44.26-24.77,77.78-5.4c33.55,19.39,20.68,53.14-6.01,56.36
						C991.2,742.49,946.12,688.3,946.12,688.3z" class="st0"></path>
					<path d="M1015.48,746.82c-12.91,0-28.81-8.64-48.45-26.32c-14.83-13.35-26.14-26.89-26.62-27.46l-5.71-6.86
						l7.79-4.36c1.96-1.1,48.37-26.59,85.11-5.35c17.79,10.28,26.45,25.99,23.17,42.04c-3.04,14.87-15.9,26.17-32,28.12
						C1017.7,746.76,1016.6,746.82,1015.48,746.82z M958.24,690.81c4.59,5.02,11.29,11.98,18.84,18.77
						c16.92,15.2,31.46,23.33,39.92,22.31c9.75-1.18,17.48-7.75,19.24-16.36c1.97-9.62-3.88-19.18-16.06-26.21
						C998.85,676.99,971.77,685.22,958.24,690.81z" class="st11"></path>
				</g>
			</g>
			<g>
				<path d="M962.04,684.31c0,0,90.04,28.69,81.13,74.7c-8.9,46.01-54.42,26.22-54.42,26.22L962.04,684.31z" class="st0"></path>
				<path d="M1009.85,796.86c-12.73,0-23.39-4.54-24.05-4.83l-3.3-1.43l-31.09-117.47l12.89,4.11
					c0.95,0.3,23.6,7.59,45.49,20.82c13.19,7.97,23.39,16.48,30.31,25.29c9.34,11.9,12.83,24.37,10.37,37.07
					c-2.99,15.44-10.05,26.18-20.98,31.94C1023.08,795.73,1016.21,796.86,1009.85,796.86z M994.93,779.57
					c5.76,1.83,18.12,4.7,27.68-0.37c6.72-3.57,11.19-10.83,13.28-21.6c3.78-19.51-16.18-36.17-33.58-46.72
					c-10.45-6.34-21.3-11.28-29.42-14.6L994.93,779.57z" class="st11"></path>
			</g>
			<g>
				<path d="M963.68,701.44c0,0,77.87,53.53,56.03,94.99c-21.84,41.46-59.68,9.34-59.68,9.34L963.68,701.44z" class="st0"></path>
				<path d="M989.91,825.05c-18.4,0-33.95-13-34.68-13.62l-2.74-2.33l4.25-121.44l11.15,7.66
					c0.82,0.57,20.39,14.1,37.51,33.1c10.32,11.45,17.62,22.55,21.69,32.98c5.49,14.09,5.22,27.04-0.81,38.49
					c-7.33,13.91-17.2,22.15-29.33,24.5C994.57,824.84,992.22,825.05,989.91,825.05z M967.58,802.14c4.98,3.42,15.99,9.74,26.6,7.66
					c7.47-1.47,13.85-7.13,18.96-16.83c9.26-17.58-5.01-39.31-18.61-54.44c-8.17-9.09-17.12-16.96-23.94-22.5L967.58,802.14z" class="st11"></path>
			</g>
			<g>
				<g>
					<g>
						<path d="M253.99,688.3c0,0-44.26-24.77-77.78-5.4c-33.55,19.39-20.68,53.14,6.01,56.36
							C208.91,742.49,253.99,688.3,253.99,688.3z" class="st0"></path>
						<path d="M184.63,746.82c-1.12,0-2.22-0.07-3.3-0.2c-16.1-1.95-28.96-13.25-32-28.12
							c-3.28-16.04,5.38-31.76,23.17-42.04c36.75-21.23,83.16,4.26,85.11,5.35l7.79,4.36l-5.71,6.86
							c-0.47,0.57-11.78,14.11-26.62,27.46C213.44,738.18,197.54,746.82,184.63,746.82z M205.77,682.93
							c-8.75,0-17.72,1.7-25.84,6.39c-12.17,7.03-18.02,16.59-16.05,26.21c1.76,8.61,9.49,15.18,19.24,16.36
							c8.46,1.03,23-7.11,39.92-22.31c7.54-6.78,14.23-13.74,18.83-18.76C233.48,687.38,219.92,682.93,205.77,682.93z" class="st11"></path>
					</g>
				</g>
				<g>
					<path d="M238.07,684.31c0,0-90.04,28.69-81.13,74.7c8.9,46.01,54.42,26.22,54.42,26.22L238.07,684.31z" class="st0"></path>
					<path d="M190.26,796.86c-6.36,0-13.23-1.13-19.63-4.5c-10.94-5.76-17.99-16.51-20.98-31.94
						c-2.46-12.7,1.03-25.17,10.37-37.07c6.92-8.81,17.11-17.32,30.31-25.29c21.89-13.22,44.54-20.51,45.49-20.82l12.89-4.11
						L217.61,790.6l-3.3,1.43C213.65,792.32,202.99,796.86,190.26,796.86z M227.22,696.27c-8.12,3.32-18.97,8.27-29.42,14.6
						c-17.4,10.55-37.35,27.21-33.58,46.72c2.09,10.8,6.57,18.07,13.33,21.63c9.5,5,21.87,2.15,27.63,0.33L227.22,696.27z" class="st11"></path>
				</g>
				<g>
					<path d="M236.43,701.44c0,0-77.87,53.53-56.03,94.99c21.84,41.46,59.68,9.34,59.68,9.34L236.43,701.44z" class="st0"></path>
					<path d="M210.2,825.05c-2.31,0-4.66-0.2-7.03-0.66c-12.13-2.35-22-10.59-29.33-24.5
						c-6.03-11.45-6.3-24.39-0.81-38.49c4.07-10.44,11.36-21.54,21.69-32.98c17.13-19,36.69-32.53,37.51-33.1l11.15-7.66
						l4.25,121.44l-2.74,2.33C244.15,812.05,228.6,825.05,210.2,825.05z M229.52,716.03c-6.81,5.53-15.76,13.41-23.94,22.5
						c-13.6,15.13-27.88,36.86-18.61,54.44c5.13,9.73,11.53,15.4,19.02,16.85c10.54,2.04,21.55-4.28,26.54-7.68L229.52,716.03z
						 M240.63,707.55L240.63,707.55L240.63,707.55z" class="st11"></path>
				</g>
			</g>
			<path d="M990.59,1186.5c-30.8-3.22-55.08-22.61-66.61-53.19c-6.62-17.56-8.49-37.91-5.27-57.31
				c3.41-20.5,12.09-38.8,25.11-52.9c29.39-31.84,42.63-71.58,39.35-118.12c-2.46-34.99-17.87-63.65-17.99-63.9l14.13-6.78
				c0.51,1.15,17.76,31.63,20.43,69.51c3.56,50.57-11.55,95.71-43.71,130.55c-21.57,23.37-28.36,61.65-16.5,93.08
				c5.43,14.39,19.5,39.05,52.8,42.53L990.59,1186.5z" class="st11"></path>
			<path d="M208.35,1186.5c30.8-3.22,55.08-22.61,66.61-53.19c6.62-17.56,8.49-37.91,5.27-57.31
				c-3.41-20.5-12.09-38.8-25.11-52.9c-29.39-31.84-42.63-71.58-39.35-118.12c2.46-34.99,17.87-63.65,17.99-63.9l-12.05-6.78
				c-0.51,1.15-19.84,31.63-22.51,69.51c-3.56,50.57,11.55,95.71,43.71,130.55c21.57,23.37,28.36,61.65,16.5,93.08
				c-5.43,14.39-19.5,39.05-52.8,42.53L208.35,1186.5z" class="st11"></path>
		</g>
		<g>
			<g>
				<path d="M741.68,499.44c0,75.49-63.41,136.69-141.62,136.69s-141.62-61.2-141.62-136.69
					s63.41-120.65,141.62-120.65S741.68,423.95,741.68,499.44z" class="st12"></path>
				<path d="M600.05,645.69c-40.32,0-78.24-15.17-106.79-42.72c-28.63-27.64-44.4-64.41-44.4-103.54
					c0-19.79,4.06-38.25,12.08-54.86c7.65-15.85,18.74-29.72,32.95-41.22c27.23-22.02,64.93-34.15,106.16-34.15
					s78.93,12.13,106.16,34.15c14.21,11.5,25.3,25.36,32.95,41.22c8.02,16.61,12.08,35.07,12.08,54.86
					c0,39.13-15.77,75.9-44.4,103.54C678.3,630.52,640.37,645.69,600.05,645.69z M600.05,388.35C522.3,388.35,468,434.03,468,499.44
					c0,70.09,59.24,127.12,132.05,127.12s132.05-57.03,132.05-127.12C732.11,434.03,677.81,388.35,600.05,388.35z" class="st11"></path>
			</g>
			<g>
				<path d="M944.01,785.36c0,180.17-153.99,326.22-343.95,326.22S256.1,965.53,256.1,785.36
					s153.99-287.95,343.95-287.95S944.01,605.19,944.01,785.36z" class="st12"></path>
				<path d="M600.05,1121.15c-47.66,0-93.9-8.86-137.44-26.32c-42.08-16.88-79.88-41.06-112.35-71.85
					c-32.5-30.83-58.03-66.74-75.87-106.74c-18.49-41.45-27.86-85.49-27.86-130.88c0-45.24,9.42-87.37,28.01-125.22
					c17.71-36.06,43.4-67.62,76.35-93.81c31.88-25.34,69.7-44.98,112.42-58.4c42.47-13.33,88.48-20.1,136.75-20.1
					c48.27,0,94.28,6.76,136.75,20.1c42.71,13.41,80.53,33.06,112.42,58.4c32.95,26.19,58.64,57.75,76.35,93.81
					c18.59,37.84,28.01,79.97,28.01,125.22c0,45.39-9.37,89.42-27.86,130.88c-17.84,40-43.36,75.91-75.87,106.74
					c-32.47,30.79-70.27,54.97-112.35,71.85C693.96,1112.29,647.71,1121.15,600.05,1121.15z M600.05,506.97
					c-196.88,0-334.39,114.48-334.39,278.39c0,174.6,150.01,316.65,334.39,316.65s334.39-142.05,334.39-316.65
					C934.44,621.45,796.94,506.97,600.05,506.97z" class="st11"></path>
			</g>
			<g>
				<path d="M946.24,879.83c0-34.92,37.9-114.32,0-114.8c-21.75-0.27-36.13,19.3-44.43,36.04
					c-27.29-102.61-88.2-187.3-143.58-194.6c-127.44-16.8-153.28,32.77-157.69,45.12c-0.16,0.44-0.82,0.44-0.98,0
					c-4.41-12.35-30.25-61.92-157.69-45.12c-55.37,7.3-116.29,91.99-143.58,194.6c-8.3-16.73-22.67-36.31-44.43-36.04
					c-37.9,0.48,0,79.88,0,114.8s-81.4,89.45-51.69,147.32c27.85,54.23,97.36,10.57,91.26-36.84
					c27.27,106.16,115.04,193.84,306.29,197.78v0.02c0.11,0,0.21-0.01,0.32-0.01c0.11,0,0.21,0.01,0.32,0.01v-0.02
					c191.25-3.95,279.02-91.62,306.29-197.78c-6.09,47.41,63.41,91.08,91.26,36.84C1027.64,969.28,946.24,914.75,946.24,879.83z" class="st13"></path>
				<path d="M590.17,1197.84v-0.45c-87.18-3.09-158.02-23.97-210.68-62.12c-24.64-17.85-45.36-39.59-61.6-64.63
					c-8.89-13.71-16.49-28.5-22.74-44.19c-1.28,2.27-2.71,4.5-4.28,6.67c-8.94,12.36-21.92,21.89-35.62,26.15
					c-11.71,3.64-23.4,3.36-33.8-0.8c-11.48-4.59-21.08-13.91-27.78-26.95c-9.64-18.76-10.13-38.67-1.5-60.84
					c7.05-18.13,19.25-35.13,30.01-50.12c11.37-15.85,22.12-30.81,22.12-40.73c0-10.12-3.95-25.99-7.76-41.34
					c-7.5-30.15-14.57-58.64-2.87-73.8c3.19-4.13,9.26-9.09,20.08-9.23c15.57-0.21,29.62,7.47,41.35,22.38
					c13.73-43.36,33.52-83.76,56.74-115.47c13.52-18.47,27.75-33.43,42.3-44.47c15.65-11.88,31.29-18.92,46.49-20.92
					c56.11-7.4,100.06-3.15,130.62,12.61c14.06,7.25,23.08,15.91,28.81,23.46c5.73-7.55,14.75-16.2,28.81-23.46
					c30.56-15.76,74.51-20.01,130.62-12.61c15.2,2,30.84,9.04,46.49,20.92c14.54,11.04,28.78,26,42.3,44.47
					c23.22,31.71,43.01,72.12,56.74,115.47c11.73-14.91,25.77-22.6,41.35-22.38c10.82,0.14,16.89,5.09,20.08,9.23
					c11.7,15.16,4.62,43.64-2.87,73.8c-3.82,15.35-7.76,31.22-7.76,41.34c0,9.92,10.74,24.89,22.12,40.73
					c10.76,14.99,22.96,31.99,30.01,50.12c8.62,22.18,8.13,42.08-1.5,60.84c-6.7,13.04-16.3,22.36-27.78,26.95
					c-10.4,4.16-22.08,4.44-33.8,0.8c-13.7-4.25-26.68-13.78-35.62-26.15c-1.57-2.17-3-4.4-4.28-6.67
					c-6.24,15.7-13.84,30.48-22.74,44.19c-16.24,25.04-36.96,46.78-61.6,64.63c-52.66,38.15-123.5,59.03-210.68,62.12v0.43
					l-9.89-0.16l-0.16,0L590.17,1197.84z M302.71,987.93c21.73,84.6,90.93,186.34,297.22,190.6l0.13,0l0.12,0
					c206.28-4.26,275.49-106,297.22-190.6l18.75,3.6c-2.87,22.32,15.46,43.6,34.39,49.47c9.51,2.95,27.2,4.51,38.88-18.22
					c7.09-13.8,7.31-28.15,0.69-45.17c-6.17-15.88-17.13-31.14-27.72-45.9c-13.79-19.22-25.71-35.81-25.71-51.89
					c0-12.46,4.04-28.73,8.33-45.95c3.2-12.88,6.51-26.2,7.87-37.29c1.67-13.63-0.27-18.51-1.58-20.21
					c-0.4-0.52-1.34-1.74-5.17-1.78c-0.11,0-0.21,0-0.32,0c-16.67,0-28.46,16.68-35.42,30.72l-11.29,22.75l-6.53-24.55
					c-13-48.88-34.21-95-59.73-129.85c-24.94-34.07-51.88-54.57-75.85-57.73c-121.4-16-144.11,29.56-147.43,38.85
					c-1.43,3.99-5.24,6.68-9.5,6.68c-4.25,0-8.07-2.68-9.5-6.68c-3.32-9.3-26.02-54.85-147.43-38.85
					c-23.97,3.16-50.91,23.66-75.85,57.73c-25.52,34.85-46.73,80.97-59.73,129.85l-6.53,24.55l-11.29-22.75
					c-6.97-14.04-18.75-30.72-35.42-30.72c-0.11,0-0.21,0-0.32,0c-3.83,0.05-4.77,1.27-5.17,1.78c-1.31,1.7-3.25,6.58-1.58,20.21
					c1.36,11.09,4.67,24.41,7.87,37.29c4.28,17.22,8.33,33.49,8.33,45.95c0,16.08-11.91,32.67-25.71,51.89
					c-10.59,14.76-21.55,30.02-27.72,45.9c-6.62,17.01-6.4,31.36,0.69,45.17c11.67,22.73,29.37,21.17,38.88,18.22
					c18.92-5.88,37.25-27.16,34.39-49.47L302.71,987.93z" class="st11"></path>
			</g>
			<g>
				<g>
					<path d="M293.46,990.31c0,0-5.46-22.95-3.91-37.78" class="st13"></path>
					<path d="M284.16,992.53c-0.24-1-5.81-24.72-4.12-40.98l19.03,1.99c-1.13,10.83,2.29,28.63,3.7,34.57
						L284.16,992.53z" class="st11"></path>
				</g>
				<g>
					<path d="M906.65,990.31c0,0,5.46-22.95,3.91-37.78" class="st13"></path>
					<path d="M915.95,992.53l-18.61-4.42c0,0,0,0,0,0l0,0c1.41-5.96,4.83-23.78,3.7-34.57l19.03-1.99
						C921.77,967.8,916.19,991.52,915.95,992.53z" class="st11"></path>
				</g>
			</g>
		</g>
		<g>
			<g>
				<g>
					<path d="M289.05,1137.07L289.05,1137.07c-12.83,0-23.23-10.4-23.23-23.23v-62.35c0-12.83,10.4-23.23,23.23-23.23
						h0c12.83,0,23.23,10.4,23.23,23.23v62.35C312.28,1126.67,301.88,1137.07,289.05,1137.07z" class="st14"></path>
					<path d="M289.05,1149.34c-19.57,0-35.5-15.93-35.5-35.5v-62.35c0-19.57,15.93-35.5,35.5-35.5
						c19.57,0,35.5,15.92,35.5,35.5v62.35C324.55,1133.42,308.63,1149.34,289.05,1149.34z M289.05,1040.54
						c-6.04,0-10.96,4.92-10.96,10.96v62.35c0,6.04,4.92,10.96,10.96,10.96c6.04,0,10.96-4.92,10.96-10.96v-62.35
						C300.01,1045.45,295.1,1040.54,289.05,1040.54z" class="st11"></path>
				</g>
				<g>
					<path d="M911.05,1137.07L911.05,1137.07c-12.83,0-23.23-10.4-23.23-23.23v-62.35c0-12.83,10.4-23.23,23.23-23.23
						l0,0c12.83,0,23.23,10.4,23.23,23.23v62.35C934.28,1126.67,923.88,1137.07,911.05,1137.07z" class="st14"></path>
					<path d="M911.05,1149.34c-19.57,0-35.5-15.93-35.5-35.5v-62.35c0-19.57,15.93-35.5,35.5-35.5
						s35.5,15.92,35.5,35.5v62.35C946.55,1133.42,930.63,1149.34,911.05,1149.34z M911.05,1040.54c-6.04,0-10.96,4.92-10.96,10.96
						v62.35c0,6.04,4.92,10.96,10.96,10.96c6.04,0,10.96-4.92,10.96-10.96v-62.35C922.01,1045.45,917.1,1040.54,911.05,1040.54z" class="st11"></path>
				</g>
			</g>
		</g>
		<g>
			<g>
				<circle r="34.6" cy="328.44" cx="600.05" class="st14"></circle>
				<path d="M600.05,376.54c-26.52,0-48.1-21.58-48.1-48.1c0-26.52,21.58-48.1,48.1-48.1c26.52,0,48.1,21.58,48.1,48.1
					C648.15,354.96,626.58,376.54,600.05,376.54z M600.05,307.34c-11.64,0-21.1,9.47-21.1,21.1c0,11.64,9.47,21.1,21.1,21.1
					c11.64,0,21.1-9.47,21.1-21.1C621.16,316.8,611.69,307.34,600.05,307.34z" class="st11"></path>
			</g>
			<g>
				<path d="M641.44,397.64c0,19.11-22.28,83.45-41.39,83.45c-19.11,0-41.39-64.34-41.39-83.45
					c0-19.11,22.28-27.14,41.39-27.14C619.16,370.51,641.44,378.53,641.44,397.64z" class="st15"></path>
				<path d="M600.05,494.59c-14.71,0-27.87-13.97-40.25-42.72c-8.61-19.99-14.63-42.29-14.63-54.23
					c0-13.69,7.28-25.25,20.5-32.55c9.44-5.21,21.65-8.09,34.38-8.09c12.73,0,24.95,2.87,34.38,8.09
					c13.22,7.3,20.5,18.86,20.5,32.55c0,11.94-6.02,34.24-14.63,54.23C627.93,480.62,614.76,494.59,600.05,494.59z M600.05,384
					c-11.58,0-27.89,4.23-27.89,13.64c0,6.38,4.05,22.98,10.83,39.73c7.5,18.54,14.02,26.79,17.06,29.48
					c3.04-2.69,9.56-10.94,17.06-29.48c6.78-16.75,10.83-33.35,10.83-39.73C627.94,388.23,611.64,384,600.05,384z" class="st11"></path>
			</g>
			<g>
				<path d="M682.15,468.88c0,19.11-36.75,34.6-82.09,34.6c-45.34,0-82.09-15.49-82.09-34.6
					c0-19.11,36.75-6.78,82.09-6.78C645.39,462.1,682.15,449.77,682.15,468.88z" class="st15"></path>
				<path d="M600.05,516.98c-23.69,0-46.16-3.98-63.29-11.19c-28.1-11.84-32.3-28.2-32.3-36.9
					c0-8.62,3.88-13.97,7.14-16.94c10.18-9.28,26.83-7.75,49.87-5.62c11.6,1.07,24.75,2.28,38.58,2.28s26.98-1.21,38.58-2.28
					c23.04-2.12,39.69-3.66,49.87,5.62c3.26,2.97,7.14,8.32,7.14,16.94c0,8.7-4.2,25.06-32.3,36.9
					C646.22,513,623.74,516.98,600.05,516.98z M532.99,471.75c2.06,2.45,6.42,5.85,14.26,9.16c13.68,5.77,32.93,9.07,52.81,9.07
					c19.88,0,39.12-3.31,52.81-9.07c7.85-3.31,12.21-6.72,14.27-9.16c-6.25-0.38-17.38,0.65-26.02,1.44
					c-12.18,1.12-25.99,2.4-41.05,2.4c-15.07,0-28.87-1.27-41.05-2.4C550.36,472.4,539.24,471.38,532.99,471.75z" class="st11"></path>
			</g>
		</g>
		<g>
			<path d="M676.2,297.05c-51.31-14.07-76.14-67.04-76.14-67.04s-24.83,52.97-76.14,67.04
				c-51.31,14.07-86.9,43.04-64.56,146.5S481.7,547,481.7,547l118.35-10.89L718.41,547c0,0,0,0,22.35-103.46
				C763.1,340.08,727.51,311.12,676.2,297.05z" class="st14"></path>
			<path d="M471.89,560.37l-24.67-114.21c-11.07-51.26-9.11-89.06,6.01-115.54c16.23-28.44,44.55-39.28,67.4-45.55
				c45.26-12.41,67.96-59.86,68.19-60.34l11.24-23.98l11.24,23.98c0.22,0.45,23.21,48.01,68.19,60.34
				c22.85,6.27,51.17,17.11,67.4,45.55c15.12,26.48,17.08,64.28,6.01,115.54l-24.67,114.21l-128.17-11.79L471.89,560.37z
				 M600.05,254.11c-12.83,18.41-36.79,45.02-72.86,54.91c-27.1,7.43-43.26,17.89-52.4,33.91c-11.94,20.93-13.03,52.98-3.3,97.99
				l20.02,92.71l108.54-9.99l108.54,9.99l20.02-92.71c9.72-45.01,8.64-77.06-3.3-97.99c-9.14-16.02-25.31-26.48-52.4-33.91
				C636.84,299.13,612.88,272.52,600.05,254.11z" class="st11"></path>
		</g>
		<g>
			<path d="M643.99,353.94c-29.61-8.12-43.94-38.68-43.94-38.68s-14.33,30.56-43.94,38.68
				c-29.61,8.12-50.15,24.83-37.25,84.53c12.89,59.7,12.89,59.7,12.89,59.7l68.29-6.28l68.29,6.28c0,0,0,0,12.89-59.7
				S673.6,362.06,643.99,353.94z" class="st16"></path>
			<path d="M678.16,511.54l-78.11-7.19l-78.11,7.19l-15.22-70.45c-6.68-30.9-5.35-53.93,4.04-70.38
				c10.44-18.29,29.01-25.16,42.06-28.74c23.43-6.42,35.86-31.73,35.98-31.98l0,0c4.47-9.53,18.02-9.53,22.48,0v0
				c0.1,0.21,12.45,25.53,35.98,31.98l0,0c13.06,3.58,31.63,10.46,42.06,28.74c9.39,16.46,10.71,39.48,4.04,70.38L678.16,511.54z
				 M600.05,479.42l58.48,5.38l10.57-48.95c11.72-54.26-5.93-63.78-28.4-69.94l0,0c-18.73-5.14-32.16-17.51-40.65-28.05
				c-8.5,10.54-21.92,22.91-40.65,28.05c-22.47,6.16-40.12,15.68-28.4,69.94l10.57,48.95L600.05,479.42z" class="st11"></path>
		</g>
		<g>
			<path d="M290.03,777.85c0-139.98,138.8-253.45,310.02-253.45s310.02,113.47,310.02,253.45v-42.03
				c0-139.98-138.8-253.45-310.02-253.45S290.03,595.84,290.03,735.82V777.85z" class="st14"></path>
			<path d="M922.49,777.85h-24.83c0-132.91-133.51-241.03-297.61-241.03S302.45,644.94,302.45,777.85h-24.83v-42.03
				c0-36.22,8.66-71.33,25.75-104.36c16.4-31.69,39.82-60.11,69.61-84.47c60.77-49.68,141.41-77.04,227.08-77.04
				s166.31,27.36,227.08,77.04c29.79,24.35,53.21,52.77,69.61,84.47c17.09,33.03,25.75,68.14,25.75,104.36V777.85z M600.05,511.98
				c85.67,0,166.31,27.36,227.08,77.04c14.13,11.55,26.82,24.01,38.01,37.3c-49.33-78.02-149.63-131.53-265.09-131.53
				s-215.76,53.52-265.09,131.53c11.19-13.29,23.88-25.75,38.01-37.3C433.75,539.34,514.39,511.98,600.05,511.98z" class="st11"></path>
		</g>
		<g>
			<g>
				<path d="M866.38,554.27c29.66-5,44.16-24.7,44.16-24.7s14.15,19.96,43.71,25.49c29.56,5.53,50,16.56,36.76,55.17
					c-13.24,38.61-13.24,38.61-13.24,38.61l-68.25-4.69l-68.33,3.47c0,0,0,0-12.55-38.84S836.72,559.27,866.38,554.27z" class="st14"></path>
				<path d="M986.42,661.88l-77.02-5.29l-77.1,3.91l-15.48-47.91c-6.25-19.35-5.78-34.53,1.44-46.42
					c9.82-16.17,29.77-21.4,46.05-24.14l0,0c24.03-4.05,36.11-19.66,36.23-19.82l10.37-14.08l9.73,14.23
					c0.86,1.15,12.44,16.11,35.89,20.5c16.23,3.04,36.09,8.62,45.61,24.96c7,12.01,7.2,27.21,0.61,46.44L986.42,661.88z
					 M909.63,631.72l59.49,4.08l10.15-29.6c4.06-11.84,4.54-20.55,1.43-25.88c-3.43-5.88-12.56-10.03-28.73-13.06
					c-19.39-3.63-33.18-12.68-41.59-19.99c-8.54,7.16-22.48,15.96-41.94,19.24l-2.07-12.24l2.07,12.24
					c-16.22,2.74-25.42,6.72-28.96,12.54c-3.21,5.28-2.88,13.99,0.97,25.9l9.62,29.78L909.63,631.72z" class="st11"></path>
			</g>
			<g>
				<path d="M246.47,554.27c29.66-5,44.16-24.7,44.16-24.7s14.15,19.96,43.71,25.49c29.56,5.53,50,16.56,36.76,55.17
					c-13.24,38.61-13.24,38.61-13.24,38.61l-68.25-4.69l-68.33,3.47c0,0,0,0-12.55-38.84S216.81,559.27,246.47,554.27z" class="st14"></path>
				<path d="M366.51,661.88l-77.02-5.29l-77.1,3.91l-15.48-47.91c-6.25-19.35-5.78-34.53,1.44-46.42
					c9.82-16.17,29.77-21.4,46.05-24.14l2.06,12.24l-2.06-12.24c24.03-4.05,36.11-19.66,36.23-19.82L291,508.12l9.73,14.23
					c0.85,1.14,12.43,16.11,35.89,20.5c16.23,3.04,36.09,8.62,45.61,24.96c7,12.01,7.2,27.2,0.61,46.44L366.51,661.88z
					 M289.71,631.72l59.49,4.08l10.15-29.6c4.06-11.84,4.54-20.55,1.43-25.88c-3.43-5.88-12.56-10.03-28.73-13.06
					c-19.39-3.63-33.18-12.68-41.59-19.99c-8.54,7.16-22.48,15.96-41.94,19.24l0,0c-16.22,2.74-25.42,6.72-28.96,12.54
					c-3.21,5.28-2.88,13.99,0.97,25.9l9.62,29.78L289.71,631.72z" class="st11"></path>
			</g>
		</g>
		<g>
			<g>
				<ellipse ry="82.58" rx="67.19" cy="694.89" cx="290.1" class="st14"></ellipse>
				<path d="M290.1,789.88c-21.76,0-42.05-10.22-57.14-28.77c-14.49-17.8-22.47-41.32-22.47-66.23
					c0-24.9,7.98-48.42,22.47-66.23c15.09-18.55,35.39-28.77,57.14-28.77s42.05,10.22,57.14,28.77
					c14.49,17.8,22.47,41.32,22.47,66.23c0,24.9-7.98,48.42-22.47,66.23C332.15,779.67,311.85,789.88,290.1,789.88z M290.1,624.73
					c-30.21,0-54.78,31.47-54.78,70.16c0,38.69,24.57,70.16,54.78,70.16c30.21,0,54.78-31.47,54.78-70.16
					C344.88,656.2,320.3,624.73,290.1,624.73z" class="st11"></path>
			</g>
			<g>
				<ellipse ry="23.66" rx="14.48" cy="695.08" cx="290.1" class="st16"></ellipse>
				<path d="M290.1,727.01c-12.76,0-22.76-14.03-22.76-31.93c0-17.91,10-31.93,22.76-31.93
					c12.76,0,22.76,14.03,22.76,31.93C312.86,712.99,302.86,727.01,290.1,727.01z M290.1,679.7c-1.6,0-6.21,5.29-6.21,15.38
					c0,10.09,4.61,15.38,6.21,15.38c1.6,0,6.21-5.29,6.21-15.38C296.31,684.99,291.69,679.7,290.1,679.7z" class="st16"></path>
			</g>
			<g>
				<ellipse ry="82.58" rx="67.19" cy="694.89" cx="910.01" class="st14"></ellipse>
				<path d="M910.01,789.88c-21.76,0-42.05-10.22-57.14-28.77c-14.49-17.8-22.47-41.32-22.47-66.23
					c0-24.9,7.98-48.42,22.47-66.23c15.09-18.55,35.39-28.77,57.14-28.77s42.05,10.22,57.14,28.77
					c14.49,17.8,22.47,41.32,22.47,66.23c0,24.9-7.98,48.42-22.47,66.23C952.06,779.67,931.77,789.88,910.01,789.88z M910.01,624.73
					c-30.21,0-54.78,31.47-54.78,70.16c0,38.69,24.57,70.16,54.78,70.16c30.21,0,54.78-31.47,54.78-70.16
					C964.79,656.2,940.22,624.73,910.01,624.73z" class="st11"></path>
			</g>
			<g>
				<ellipse ry="23.66" rx="14.48" cy="695.08" cx="910.01" class="st16"></ellipse>
				<path d="M910.01,727.01c-12.76,0-22.76-14.03-22.76-31.93c0-17.91,10-31.93,22.76-31.93s22.76,14.03,22.76,31.93
					C932.77,712.99,922.77,727.01,910.01,727.01z M910.01,679.7c-1.6,0-6.21,5.29-6.21,15.38c0,10.09,4.61,15.38,6.21,15.38
					s6.21-5.29,6.21-15.38C916.22,684.99,911.61,679.7,910.01,679.7z" class="st16"></path>
			</g>
			<g>
				<line y2="773.71" x2="289.68" y1="972.34" x1="289.68" class="st14"></line>
				<rect height="257.64" width="24.83" class="st11" y="773.71" x="277.27"></rect>
			</g>
			<g>
				<line y2="773.71" x2="909.6" y1="972.34" x1="909.6" class="st14"></line>
				<rect height="257.64" width="24.83" class="st11" y="773.71" x="897.18"></rect>
			</g>
		</g>
		<g>
			<circle r="57" cy="368.34" cx="600.05" class="st17"></circle>
			<path d="M600.05,438.34c-38.6,0-70-31.4-70-70s31.4-70,70-70s70,31.4,70,70S638.65,438.34,600.05,438.34z
				 M600.05,324.34c-24.26,0-44,19.74-44,44s19.74,44,44,44s44-19.74,44-44S624.32,324.34,600.05,324.34z" class="st11"></path>
		</g>
		<g>
			<circle r="26.34" cy="401.39" cx="600.05" class="st14"></circle>
			<path d="M600.05,438.01c-20.19,0-36.61-16.42-36.61-36.61c0-20.19,16.42-36.61,36.61-36.61s36.61,16.42,36.61,36.61
				C636.67,421.58,620.24,438.01,600.05,438.01z M600.05,385.33c-8.86,0-16.06,7.21-16.06,16.06c0,8.86,7.21,16.06,16.06,16.06
				s16.06-7.21,16.06-16.06C616.12,392.54,608.91,385.33,600.05,385.33z" class="st11"></path>
		</g>
		<g>
			<path d="M631.56,454.07c0,14.55-16.96,63.52-31.5,63.52c-14.55,0-31.5-48.97-31.5-63.52
				c0-14.55,16.96-20.66,31.5-20.66C614.6,433.41,631.56,439.52,631.56,454.07z" class="st15"></path>
			<path d="M600.05,527.86c-11.19,0-21.22-10.64-30.64-32.51c-6.56-15.22-11.13-32.19-11.13-41.28
				c0-10.42,5.54-19.22,15.6-24.78c7.18-3.97,16.48-6.15,26.17-6.15c9.69,0,18.99,2.19,26.17,6.15c10.06,5.56,15.6,14.36,15.6,24.78
				c0,9.09-4.58,26.06-11.13,41.28C621.27,517.23,611.25,527.86,600.05,527.86z M600.05,443.69c-8.81,0-21.23,3.22-21.23,10.38
				c0,4.85,3.08,17.49,8.24,30.24c5.71,14.11,10.67,20.39,12.99,22.44c2.32-2.05,7.27-8.33,12.99-22.44
				c5.16-12.75,8.24-25.38,8.24-30.24C621.28,446.91,608.87,443.69,600.05,443.69z" class="st11"></path>
		</g>
		<g>
			<path d="M662.54,508.29c0,14.55-27.98,26.34-62.49,26.34c-34.51,0-62.49-11.79-62.49-26.34
				c0-14.55,27.98-5.16,62.49-5.16C634.57,503.13,662.54,493.75,662.54,508.29z" class="st15"></path>
			<path d="M600.05,544.91c-18.03,0-35.14-3.03-48.18-8.52c-21.39-9.02-24.59-21.47-24.59-28.09
				c0-6.56,2.96-10.63,5.43-12.89c7.75-7.07,20.42-5.9,37.96-4.28c8.83,0.81,18.84,1.74,29.36,1.74c10.52,0,20.53-0.92,29.36-1.74
				c17.54-1.62,30.21-2.78,37.96,4.28c2.48,2.26,5.43,6.33,5.43,12.89c0,6.62-3.19,19.07-24.59,28.09
				C635.19,541.88,618.08,544.91,600.05,544.91z M549,510.48c1.57,1.86,4.89,4.45,10.86,6.97c10.42,4.39,25.07,6.91,40.2,6.91
				s29.78-2.52,40.2-6.91c5.98-2.52,9.29-5.11,10.86-6.97c-4.76-0.29-13.23,0.49-19.81,1.1c-9.27,0.85-19.78,1.82-31.25,1.82
				c-11.47,0-21.98-0.97-31.25-1.82C562.23,510.97,553.76,510.19,549,510.48z" class="st11"></path>
		</g>
	</g>
	<g>
		<g>
			<g>
				<path d="M507.8,844.27c-1.92,0-3.78-1.07-4.68-2.91c-0.02-0.03-3.03-5.87-10.64-12.34
					c-7.04-5.98-19.58-13.75-39.38-16.84c-27.16-4.23-52.17,0.17-68.37,4.61c-17.68,4.85-29.03,10.79-29.15,10.85
					c-2.55,1.35-5.7,0.38-7.05-2.17c-1.35-2.55-0.38-5.7,2.16-7.05c0.49-0.26,12.27-6.46,30.98-11.62
					c17.25-4.76,43.93-9.48,73.03-4.94c43.46,6.77,57.21,33.73,57.77,34.87c1.27,2.58,0.21,5.71-2.37,6.99
					C509.36,844.1,508.58,844.27,507.8,844.27z" class="st11"></path>
				<path d="M692.31,844.27c-0.77,0-1.56-0.17-2.3-0.54c-2.58-1.27-3.65-4.4-2.37-6.99
					c0.56-1.14,14.31-28.1,57.77-34.87c29.1-4.53,55.78,0.18,73.03,4.94c18.71,5.16,30.48,11.35,30.98,11.62
					c2.55,1.35,3.51,4.51,2.16,7.06c-1.35,2.54-4.51,3.51-7.05,2.16c-0.2-0.1-11.53-6.02-29.14-10.85
					c-16.2-4.44-41.21-8.84-68.37-4.61c-38.16,5.95-49.9,28.94-50.02,29.18C696.08,843.21,694.23,844.27,692.31,844.27z" class="st11"></path>
			</g>
			<g>
				<g>
					<path d="M497.17,926.36c-0.05,0-0.1,0-0.16,0c-4.15-0.08-7.15-2.91-11.3-6.84c-7.3-6.91-19.51-18.48-44.12-21.49
						c-44.29-5.41-65.66-18.34-83.85-39.25c-0.36-0.41-0.67-0.85-0.92-1.31c-0.03-0.06-0.06-0.11-0.07-0.14
						c-0.92-2.16-0.62-4.3,1.58-5.63c2.16-1.31,5.2-0.4,6.68,1.49c0.84,0.99,22.94,26.54,71.61,31.05
						c18.8,1.74,35.34,6.05,47.82,12.47c10.13,5.21,17.36,11.69,19.83,17.79c1.59,3.93,1,7.51-1.64,9.81
						C500.7,925.99,498.62,926.36,497.17,926.36z M365.03,853.22C365.03,853.22,365.04,853.22,365.03,853.22
						c0.02,0.03,0.04,0.05,0.06,0.07C365.07,853.27,365.05,853.24,365.03,853.22z" class="st11"></path>
				</g>
				<g>
					<path d="M697.47,924.31c-2.64-2.3-3.24-5.87-1.64-9.81c2.47-6.1,9.7-12.58,19.83-17.79
						c12.49-6.42,29.03-10.73,47.82-12.47c48.67-4.51,70.77-30.06,71.61-31.05c1.48-1.89,4.52-2.8,6.68-1.49
						c2.2,1.33,2.5,3.46,1.58,5.63c-0.02,0.04-0.04,0.09-0.07,0.14c-0.25,0.46-0.57,0.9-0.92,1.31
						c-18.19,20.91-39.56,33.84-83.85,39.25c-24.61,3.01-36.83,14.58-44.12,21.49c-4.15,3.93-7.14,6.77-11.3,6.84
						c-0.05,0-0.1,0-0.16,0C701.49,926.36,699.41,925.99,697.47,924.31z M835.02,853.29c0.02-0.02,0.04-0.05,0.05-0.07c0,0,0,0,0,0
						C835.06,853.24,835.04,853.27,835.02,853.29z" class="st11"></path>
				</g>
			</g>
		</g>
		<path d="M580.38,1105.3c1.88,7.96,12.01,13.01,20.12,13.01c8.03,0,18.77-4.58,19.98-12.78l1.16-13.14l-43.17,0.95
			L580.38,1105.3z" class="st18"></path>
		<ellipse ry="13.04" rx="3.56" cy="815.6" cx="600.05" class="st19"></ellipse>
		<g>
			<path d="M621.59,1076.43c-9.44-0.38-16.66,6.47-19.81,10.11c-0.92,1.06-2.55,1.06-3.47,0
				c-3.15-3.64-10.36-10.49-19.81-10.11c-11.38,0.46-15.49,9.8-16.27,11.89c-0.1,0.26-0.14,0.53-0.14,0.8l0,0
				c0,0.72,0.34,1.41,0.92,1.84c17.28,12.66,33.44,11.1,36.53,11.22c0.33,0.01,0.65,0.01,0.98,0c3.1-0.12,19.25,1.43,36.53-11.22
				c0.58-0.43,0.92-1.12,0.92-1.84l0,0c0-0.27-0.05-0.54-0.14-0.8C637.08,1086.22,632.97,1076.88,621.59,1076.43z" class="st18"></path>
			<path d="M642.31,1086.67c-2.59-6.95-9.33-14.53-20.52-14.98h0c-9.74-0.39-17.3,5.25-21.73,9.74
				c-4.43-4.5-11.98-10.13-21.73-9.74c-11.19,0.45-17.94,8.03-20.52,14.98c-0.29,0.79-0.44,1.61-0.44,2.46
				c0,2.24,1.07,4.36,2.86,5.67c5.16,3.78,10.23,6.38,14.94,8.18l0.53,3.08l0.07,0.34c2.47,10.43,14.51,16.66,24.73,16.66
				c9.21,0,22.96-5.22,24.67-16.83l0.3-3.46c4.56-1.79,9.45-4.34,14.41-7.97c1.79-1.31,2.87-3.43,2.87-5.67
				C642.75,1088.28,642.6,1087.45,642.31,1086.67z M600.5,1113.57c-5.58,0-12.51-3.17-14.85-7.65c5.8,1.08,10.33,1.03,12.69,1.01
				c0.44,0,0.79-0.01,1.04,0c0.23,0.01,0.45,0.01,0.68,0.01c0.22,0,0.45,0,0.67-0.01c0.25-0.01,0.6,0,1.04,0
				c2.51,0.03,7.47,0.07,13.81-1.23C614.12,1110.26,606.72,1113.57,600.5,1113.57z M601.87,1097.44c-0.61-0.01-1.08-0.01-1.5,0.01
				c-0.21,0.01-0.4,0.01-0.62,0c-0.21-0.01-0.44-0.01-0.68-0.01c-0.25,0-0.52,0-0.82,0.01c-4.3,0.04-17.07,0.17-30.78-9.16
				c1.43-2.69,4.7-6.86,11.24-7.12c7.59-0.31,13.74,5.83,16.03,8.48c1.34,1.55,3.28,2.43,5.32,2.43s3.98-0.89,5.32-2.43
				c2.29-2.65,8.44-8.77,16.03-8.48c6.55,0.26,9.81,4.43,11.24,7.12C618.93,1097.61,606.17,1097.48,601.87,1097.44z" class="st11"></path>
		</g>
	</g>
</g>
</svg>
