<svg xml:space="preserve" style="enable-background:new 0 0 1200 1200;" viewBox="0 0 1200 1200" y="0px" x="0px" xmlns:xlink="http://www.w3.org/1999/xlink" xmlns="http://www.w3.org/2000/svg" id="图层_1" version="1.1">
<style type="text/css">
	.st0{fill:#312725;}
	.st1{fill:#605855;}
	.st2{fill:#90816C;}
	.st3{fill:#C4B2A1;stroke:#877468;stroke-width:10;stroke-miterlimit:10;}
	.st4{fill:#5D695A;}
	.st5{fill:#503E37;}
	.st6{fill:#6D5C5A;}
	.st7{fill:#2B2A2C;}
	.st8{fill:#75614E;}
	.st9{fill:#FCF0E6;}
	.st10{fill:#F9DB8F;}
	.st11{fill:#DD725E;}
	.st12{fill:#75614E;stroke:#DD725E;stroke-width:20;stroke-linecap:round;stroke-miterlimit:10;}
</style>
<g>
	<g>
		<circle r="600" cy="600" cx="600" class="st0"></circle>
		<circle r="580" cy="600" cx="600" class="st1"></circle>
		<circle r="570" cy="600" cx="600" class="st2"></circle>
		<circle r="535" cy="600" cx="600" class="st1"></circle>
		<g>
			<g>
				<path d="M663.05,195.95c0-34.82-28.23-63.05-63.05-63.05s-63.05,28.23-63.05,63.05l51.53,313.42h23.64
					L663.05,195.95z" class="st3"></path>
				<path d="M536.95,1004.05c0,34.82,28.23,63.05,63.05,63.05s63.05-28.23,63.05-63.05l-51.53-313.42h-23.64
					L536.95,1004.05z" class="st3"></path>
			</g>
			<g>
				<path d="M535.1,196.24c-10.76-33.12-46.33-51.24-79.44-40.48c-33.12,10.76-51.24,46.33-40.48,79.44l145.86,282.16
					l22.49-7.31L535.1,196.24z" class="st3"></path>
				<path d="M664.9,1003.76c10.76,33.12,46.33,51.24,79.45,40.48c33.12-10.76,51.24-46.33,40.48-79.45L638.96,682.64
					l-22.49,7.31L664.9,1003.76z" class="st3"></path>
			</g>
			<g>
				<path d="M413.51,236.06c-20.47-28.17-59.9-34.42-88.07-13.95s-34.42,59.9-13.95,88.07l225.91,223.27l19.13-13.9
					L413.51,236.06z" class="st3"></path>
				<path d="M786.49,963.94c20.47,28.17,59.9,34.42,88.07,13.95s34.42-59.9,13.95-88.07L662.59,666.55l-19.13,13.9
					L786.49,963.94z" class="st3"></path>
			</g>
			<g>
				<path d="M310.17,311.5c-28.17-20.47-67.6-14.22-88.07,13.95s-14.22,67.6,13.95,88.07l283.85,142.54l13.9-19.13
					L310.17,311.5z" class="st3"></path>
				<path d="M889.83,888.5c28.17,20.47,67.6,14.22,88.07-13.95s14.22-67.6-13.95-88.07L680.09,643.95l-13.9,19.13
					L889.83,888.5z" class="st3"></path>
			</g>
			<g>
				<path d="M235.21,415.18c-33.12-10.76-68.68,7.36-79.44,40.48c-10.76,33.12,7.36,68.68,40.48,79.44l314,47.84
					l7.31-22.49L235.21,415.18z" class="st3"></path>
				<path d="M964.79,784.82c33.12,10.76,68.68-7.36,79.45-40.48c10.76-33.12-7.36-68.68-40.48-79.45l-314-47.84
					l-7.31,22.49L964.79,784.82z" class="st3"></path>
			</g>
			<g>
				<path d="M195.95,536.95c-34.82,0-63.05,28.23-63.05,63.05s28.23,63.05,63.05,63.05l313.42-51.53v-23.64
					L195.95,536.95z" class="st3"></path>
				<path d="M1004.05,663.05c34.82,0,63.05-28.23,63.05-63.05s-28.23-63.05-63.05-63.05l-313.42,51.53v23.64
					L1004.05,663.05z" class="st3"></path>
			</g>
			<g>
				<path d="M196.24,664.9c-33.12,10.76-51.24,46.33-40.48,79.45c10.76,33.12,46.33,51.24,79.44,40.48l282.16-145.86
					l-7.31-22.49L196.24,664.9z" class="st3"></path>
				<path d="M1003.76,535.1c33.12-10.76,51.24-46.33,40.48-79.44c-10.76-33.12-46.33-51.24-79.45-40.48L682.64,561.04
					l7.31,22.49L1003.76,535.1z" class="st3"></path>
			</g>
			<g>
				<path d="M236.06,786.49c-28.17,20.47-34.42,59.9-13.95,88.07s59.9,34.42,88.07,13.95l223.27-225.91l-13.9-19.13
					L236.06,786.49z" class="st3"></path>
				<path d="M963.94,413.51c28.17-20.47,34.42-59.9,13.95-88.07s-59.9-34.42-88.07-13.95L666.55,537.41l13.9,19.13
					L963.94,413.51z" class="st3"></path>
			</g>
			<g>
				<path d="M311.5,889.83c-20.47,28.17-14.22,67.6,13.95,88.07s67.6,14.22,88.07-13.95l142.54-283.85l-19.13-13.9
					L311.5,889.83z" class="st3"></path>
				<path d="M888.5,310.17c20.47-28.17,14.22-67.6-13.95-88.07s-67.6-14.22-88.07,13.95L643.95,519.91l19.13,13.9
					L888.5,310.17z" class="st3"></path>
			</g>
			<g>
				<path d="M415.18,964.79c-10.76,33.12,7.36,68.68,40.48,79.45c33.12,10.76,68.68-7.36,79.44-40.48l47.84-314
					l-22.49-7.31L415.18,964.79z" class="st3"></path>
				<path d="M784.82,235.21c10.76-33.12-7.36-68.68-40.48-79.44c-33.12-10.76-68.68,7.36-79.45,40.48l-47.84,314
					l22.49,7.31L784.82,235.21z" class="st3"></path>
			</g>
		</g>
		<g>
			<g>
				<g>
					<path d="M631.1,267.26c0-27.81-13.92-50.36-31.1-50.36s-31.1,22.55-31.1,50.36l25.42,250.35h11.66L631.1,267.26z" class="st4"></path>
				</g>
			</g>
			<g>
				<g>
					<path d="M520.58,274.91c-8.59-26.45-28.8-43.59-45.14-38.28c-16.34,5.31-22.61,31.05-14.02,57.51l101.54,230.24
						l11.09-3.6L520.58,274.91z" class="st4"></path>
				</g>
			</g>
			<g>
				<g>
					<path d="M417.83,316.35c-16.35-22.5-40.87-32.56-54.76-22.46s-11.91,36.52,4.44,59.02L535.22,540.5l9.44-6.86
						L417.83,316.35z" class="st4"></path>
				</g>
			</g>
			<g>
				<g>
					<path d="M332.91,387.5c-22.5-16.35-48.93-18.34-59.02-4.44s-0.04,38.41,22.46,54.76l217.48,126.59l6.86-9.44
						L332.91,387.5z" class="st4"></path>
				</g>
			</g>
			<g>
				<g>
					<path d="M274.13,481.42c-26.45-8.59-52.2-2.32-57.51,14.02c-5.31,16.34,11.83,36.55,38.28,45.14l245.95,53.19
						l3.6-11.09L274.13,481.42z" class="st4"></path>
					<path d="M925.87,758.58c26.45,8.59,52.2,2.32,57.51-14.02c5.31-16.34-11.83-36.55-38.28-45.14l-245.95-53.19
						l-3.6,11.09L925.87,758.58z" class="st4"></path>
				</g>
			</g>
			<g>
				<g>
					<path d="M247.26,588.9c-27.81,0-50.36,13.92-50.36,31.1s22.55,31.1,50.36,31.1l250.35-25.42v-11.66L247.26,588.9z" class="st4"></path>
					<path d="M952.74,651.1c27.81,0,50.36-13.92,50.36-31.1s-22.55-31.1-50.36-31.1l-250.35,25.42v11.66L952.74,651.1z" class="st4"></path>
				</g>
			</g>
			<g>
				<g>
					<path d="M254.91,699.42c-26.45,8.59-43.59,28.8-38.28,45.14s31.05,22.61,57.51,14.02l230.24-101.54l-3.6-11.09
						L254.91,699.42z" class="st4"></path>
					<path d="M945.09,540.58c26.45-8.59,43.59-28.8,38.28-45.14c-5.31-16.34-31.05-22.61-57.51-14.02L695.63,582.96
						l3.6,11.09L945.09,540.58z" class="st4"></path>
				</g>
			</g>
			<g>
				<g>
					<path d="M903.65,437.83c22.5-16.35,32.56-40.87,22.46-54.76s-36.52-11.91-59.02,4.44L679.5,555.22l6.86,9.44
						L903.65,437.83z" class="st4"></path>
				</g>
			</g>
			<g>
				<g>
					<path d="M832.5,352.91c16.35-22.5,18.34-48.93,4.44-59.02c-13.9-10.1-38.41-0.04-54.76,22.46L655.59,533.82
						l9.44,6.86L832.5,352.91z" class="st4"></path>
				</g>
			</g>
			<g>
				<g>
					<path d="M738.58,294.13c8.59-26.45,2.32-52.2-14.02-57.51s-36.55,11.83-45.14,38.28l-53.19,245.95l11.09,3.6
						L738.58,294.13z" class="st4"></path>
				</g>
			</g>
		</g>
		<ellipse ry="185" rx="288.1" cy="580" cx="600" class="st0"></ellipse>
		<ellipse ry="177.95" rx="277.12" cy="580" cx="600" class="st5"></ellipse>
		<ellipse ry="166.16" rx="273.1" cy="580" cx="600" class="st6"></ellipse>
		<ellipse ry="159.18" rx="247.89" cy="580" cx="600" class="st0"></ellipse>
		<ellipse ry="152.13" rx="236.91" cy="580" cx="600" class="st5"></ellipse>
		<ellipse ry="125.22" rx="229.1" cy="570" cx="600" class="st6"></ellipse>
		<ellipse ry="118.47" rx="216.76" cy="570" cx="600" class="st0"></ellipse>
		<ellipse ry="111.15" rx="203.37" cy="570" cx="600" class="st4"></ellipse>
		<ellipse ry="99.08" rx="221.1" cy="580.08" cx="600" class="st0"></ellipse>
		<g>
			<path d="M849.21,632.39c0,99.94-111.57,180.95-249.21,180.95s-249.21-81.01-249.21-180.95S462.37,472.66,600,472.66
				S849.21,532.45,849.21,632.39z" class="st7"></path>
			<path d="M600,485.33c-136.82,0-232.37,60.47-232.37,147.06c0,92.79,104.24,168.28,232.37,168.28
				s232.37-75.49,232.37-168.28C832.37,545.8,736.82,485.33,600,485.33z" class="st7"></path>
		</g>
		<g>
			<path d="M272.57,519.2c68.08,29.05,98.43,110.79,67.79,182.57s-110.65,106.41-178.73,77.36S77.67,674.5,108.3,602.73
				S204.49,490.15,272.57,519.2z" class="st7"></path>
			<path d="M343.98,703.31c-7.69,18.01-18.49,34.05-32.11,47.69c-13.17,13.18-28.39,23.56-45.27,30.87
				c-16.89,7.31-34.58,11.16-52.56,11.45c-18.64,0.3-36.79-3.26-53.94-10.58c-17.1-7.3-31.49-17.65-42.8-30.78
				c-10.77-12.51-18.55-27.3-23.13-43.98c-4.43-16.13-5.76-33.59-3.94-51.89c1.81-18.2,6.68-36.67,14.46-54.91
				s17.76-34.53,29.65-48.43c11.96-13.98,25.48-25.1,40.19-33.06c15.21-8.23,31.28-12.84,47.76-13.72
				c17.3-0.92,34.73,2.31,51.83,9.61c17.15,7.32,32.28,17.96,44.96,31.63c12.24,13.19,21.69,28.63,28.1,45.88
				c6.4,17.23,9.44,35.42,9.03,54.04C355.77,666.4,351.66,685.3,343.98,703.31z M120.4,607.89c-29.35,68.78-9.86,133.88,47.4,158.32
				c61,26.03,132.98-5.19,160.47-69.6s0.23-137.99-60.76-164.03C210.24,508.14,149.75,539.11,120.4,607.89z" class="st8"></path>
		</g>
		<g>
			<g>
				<circle r="77.31" cy="642.69" cx="313.77" class="st0"></circle>
				<circle r="60.59" cy="642.69" cx="313.77" class="st5"></circle>
				<circle r="40.01" cy="642.69" cx="313.77" class="st6"></circle>
				<circle r="22" cy="642.69" cx="313.77" class="st5"></circle>
			</g>
			<g>
				<circle r="77.31" cy="555.21" cx="356.23" class="st0"></circle>
				<circle r="60.59" cy="555.21" cx="356.23" class="st5"></circle>
				<circle r="40.01" cy="555.21" cx="356.23" class="st6"></circle>
				<circle r="22" cy="555.21" cx="356.23" class="st5"></circle>
			</g>
		</g>
		<g>
			<g>
				<path d="M960.45,888.7c68.08,29.05,98.43,110.79,67.79,182.57c-30.63,71.78-110.65,106.41-178.73,77.36
					c-68.08-29.05-83.97-104.62-53.34-176.4S892.38,859.65,960.45,888.7z" class="st7"></path>
				<path d="M1031.86,1072.81c-7.69,18.01-18.49,34.05-32.11,47.69c-13.17,13.18-28.39,23.56-45.27,30.87
					c-16.89,7.31-34.58,11.16-52.56,11.45c-18.64,0.3-36.79-3.26-53.94-10.58c-17.1-7.3-31.49-17.65-42.8-30.78
					c-10.77-12.51-18.55-27.3-23.13-43.98c-4.43-16.13-5.76-33.59-3.94-51.89c1.81-18.2,6.68-36.67,14.46-54.91
					s17.76-34.53,29.65-48.43c11.96-13.98,25.48-25.1,40.19-33.06c15.21-8.23,31.28-12.84,47.76-13.72
					c17.3-0.92,34.73,2.31,51.83,9.61c17.15,7.32,32.28,17.96,44.96,31.63c12.24,13.19,21.69,28.63,28.1,45.88
					c6.4,17.23,9.44,35.42,9.03,54.04C1043.66,1035.9,1039.55,1054.8,1031.86,1072.81z M808.28,977.39
					c-29.35,68.78-9.86,133.88,47.4,158.32c61,26.03,132.98-5.19,160.47-69.6s0.23-137.99-60.76-164.03
					C898.13,877.64,837.64,908.61,808.28,977.39z" class="st8"></path>
			</g>
			<g>
				<path d="M943.5,787.52c0,180.17-153.99,326.22-343.95,326.22S255.6,967.68,255.6,787.52
					s153.99-287.95,343.95-287.95S943.5,607.35,943.5,787.52z" class="st7"></path>
				<path d="M599.55,1123.3c-47.66,0-93.9-8.86-137.44-26.32c-42.08-16.88-79.88-41.06-112.35-71.85
					c-32.5-30.83-58.03-66.74-75.87-106.74c-18.49-41.45-27.86-85.48-27.86-130.88c0-45.24,9.42-87.37,28.01-125.22
					c17.71-36.06,43.4-67.62,76.35-93.81c31.88-25.34,69.7-44.98,112.42-58.4c42.47-13.33,88.48-20.1,136.75-20.1
					c48.27,0,94.28,6.76,136.75,20.1c42.71,13.41,80.53,33.06,112.42,58.4c32.95,26.19,58.64,57.75,76.35,93.81
					c18.59,37.84,28.01,79.97,28.01,125.22c0,45.39-9.37,89.42-27.86,130.88c-17.84,40-43.36,75.91-75.87,106.74
					c-32.47,30.79-70.27,54.97-112.35,71.85C693.45,1114.44,647.21,1123.3,599.55,1123.3z M599.55,509.13
					c-196.88,0-334.39,114.48-334.39,278.39c0,174.6,150.01,316.65,334.39,316.65s334.39-142.05,334.39-316.65
					C933.94,623.61,796.43,509.13,599.55,509.13z" class="st8"></path>
			</g>
			<g>
				<path d="M945.73,881.98c0-34.92,37.9-114.32,0-114.8c-21.75-0.27-36.13,19.3-44.43,36.04
					c-27.29-102.61-88.2-187.3-143.58-194.6c-127.44-16.8-153.28,32.77-157.69,45.12c-0.16,0.44-0.82,0.44-0.98,0
					c-4.41-12.35-30.25-61.92-157.69-45.12c-55.37,7.3-116.29,91.99-143.58,194.6c-8.3-16.73-22.67-36.31-44.43-36.04
					c-37.9,0.48,0,79.88,0,114.8s-81.4,89.45-51.69,147.32c27.85,54.23,97.36,10.57,91.26-36.84
					c27.27,106.16,115.04,193.84,306.29,197.78v0.01c0.11,0,0.21-0.01,0.32-0.01c0.11,0,0.21,0.01,0.32,0.01v-0.01
					c191.25-3.95,279.02-91.62,306.29-197.78c-6.09,47.41,63.41,91.08,91.26,36.84C1027.14,971.43,945.73,916.9,945.73,881.98z" class="st9"></path>
				<path d="M589.66,1200v-0.45c-87.18-3.09-158.02-23.97-210.68-62.12c-24.64-17.85-45.36-39.59-61.6-64.63
					c-8.89-13.71-16.49-28.5-22.74-44.19c-1.28,2.27-2.71,4.5-4.28,6.67c-8.94,12.36-21.92,21.89-35.62,26.15
					c-11.71,3.64-23.4,3.36-33.8-0.8c-11.48-4.59-21.08-13.91-27.78-26.95c-9.64-18.76-10.13-38.67-1.5-60.84
					c7.05-18.13,19.25-35.13,30.01-50.12c11.37-15.85,22.12-30.81,22.12-40.73c0-10.12-3.95-25.99-7.76-41.34
					c-7.5-30.15-14.57-58.64-2.87-73.8c3.19-4.13,9.26-9.09,20.08-9.23c15.57-0.21,29.62,7.47,41.35,22.38
					c13.73-43.36,33.52-83.76,56.74-115.47c13.52-18.47,27.75-33.43,42.3-44.47c15.65-11.88,31.29-18.92,46.49-20.92
					c56.11-7.4,100.06-3.15,130.62,12.61c14.06,7.25,23.08,15.91,28.81,23.46c5.73-7.55,14.75-16.2,28.81-23.46
					c30.56-15.76,74.51-20.01,130.62-12.61c15.2,2,30.84,9.04,46.49,20.92c14.54,11.04,28.78,26,42.3,44.47
					c23.22,31.71,43.01,72.12,56.74,115.47c11.73-14.91,25.77-22.6,41.35-22.38c10.82,0.14,16.89,5.09,20.08,9.23
					c11.7,15.16,4.62,43.64-2.87,73.8c-3.82,15.35-7.76,31.22-7.76,41.34c0,9.92,10.74,24.89,22.12,40.73
					c10.76,14.99,22.96,31.99,30.01,50.12c8.62,22.18,8.13,42.08-1.5,60.84c-6.7,13.04-16.3,22.36-27.78,26.95
					c-10.4,4.16-22.08,4.44-33.8,0.8c-13.7-4.25-26.68-13.78-35.62-26.15c-1.57-2.17-3-4.4-4.28-6.67
					c-6.24,15.7-13.84,30.48-22.74,44.19c-16.24,25.04-36.96,46.78-61.6,64.63c-52.66,38.15-123.5,59.03-210.68,62.12v0.43
					l-9.89-0.16l-0.16,0L589.66,1200z M302.21,990.09c21.73,84.6,90.93,186.34,297.22,190.6l0.13,0l0.12,0
					c206.28-4.26,275.49-106,297.22-190.6l18.75,3.6c-2.87,22.32,15.46,43.6,34.39,49.47c9.51,2.95,27.2,4.51,38.88-18.22
					c7.09-13.8,7.31-28.15,0.69-45.17c-6.17-15.88-17.13-31.14-27.72-45.9c-13.79-19.22-25.71-35.81-25.71-51.89
					c0-12.46,4.04-28.73,8.33-45.95c3.2-12.88,6.51-26.2,7.87-37.29c1.67-13.63-0.27-18.51-1.58-20.21
					c-0.4-0.52-1.34-1.74-5.17-1.78c-0.11,0-0.21,0-0.32,0c-16.67,0-28.46,16.68-35.42,30.72l-11.29,22.75l-6.53-24.55
					c-13-48.88-34.21-95-59.73-129.85c-24.94-34.07-51.88-54.57-75.85-57.73c-121.4-16-144.11,29.56-147.43,38.85
					c-1.43,3.99-5.24,6.68-9.5,6.68c-4.25,0-8.07-2.68-9.5-6.68c-3.32-9.3-26.02-54.85-147.43-38.85
					c-23.97,3.16-50.91,23.66-75.85,57.73c-25.52,34.85-46.73,80.97-59.73,129.85l-6.53,24.55l-11.29-22.75
					c-6.97-14.04-18.75-30.72-35.42-30.72c-0.11,0-0.21,0-0.32,0c-3.83,0.05-4.77,1.27-5.17,1.78c-1.31,1.7-3.25,6.58-1.58,20.21
					c1.36,11.09,4.67,24.41,7.87,37.29c4.28,17.22,8.33,33.49,8.33,45.95c0,16.08-11.91,32.67-25.71,51.89
					c-10.59,14.76-21.55,30.02-27.72,45.9c-6.62,17.01-6.4,31.36,0.69,45.17c11.67,22.73,29.37,21.17,38.88,18.22
					c18.92-5.88,37.25-27.16,34.39-49.47L302.21,990.09z" class="st8"></path>
			</g>
			<g>
				<g>
					<path d="M292.96,992.47c0,0-5.46-22.95-3.91-37.78" class="st9"></path>
					<path d="M283.65,994.68c-0.19-0.79-3.71-15.77-4.34-30.04c-0.26-5.81,4.76-10.47,10.55-9.87l0,0
						c4.7,0.49,8.35,4.33,8.56,9.05c0.45,10.09,2.75,21.82,3.85,26.43L283.65,994.68z" class="st8"></path>
				</g>
				<g>
					<path d="M906.14,992.47c0,0,5.46-22.95,3.91-37.78" class="st9"></path>
					<path d="M915.45,994.68l-18.61-4.42c0,0,0,0,0,0l0,0c1.09-4.62,3.39-16.36,3.85-26.43
						c0.21-4.72,3.86-8.56,8.56-9.05l0,0c5.79-0.6,10.81,4.06,10.55,9.87C919.16,978.91,915.64,993.89,915.45,994.68z" class="st8"></path>
				</g>
			</g>
		</g>
		<g>
			<g>
				<ellipse ry="83.64" rx="46.88" cy="328.81" cx="600" class="st10"></ellipse>
				<path d="M600,423.61l-4.97-3.05c-15.41-9.44-28.3-22.72-37.27-38.4c-9.26-16.17-14.15-34.62-14.15-53.36
					s4.89-37.19,14.15-53.36c8.97-15.68,21.86-28.96,37.27-38.4L600,234l4.97,3.05c15.41,9.44,28.3,22.72,37.27,38.4
					c9.26,16.17,14.15,34.62,14.15,53.36s-4.89,37.19-14.15,53.36c-8.97,15.68-21.86,28.96-37.27,38.4L600,423.61z M600,256.55
					c-23.5,16.61-37.36,43.2-37.36,72.25c0,29.06,13.86,55.65,37.36,72.25c23.5-16.61,37.36-43.2,37.36-72.25
					C637.36,299.75,623.5,273.16,600,256.55z" class="st8"></path>
			</g>
			<g>
				
					<ellipse ry="83.64" rx="46.88" cy="391.63" cx="551.69" class="st10" transform="matrix(0.8361 -0.5486 0.5486 0.8361 -124.4153 366.8159)"></ellipse>
				<path d="M594.57,471.13c-16.96,0-33.8-4.02-48.93-11.71c-16.61-8.44-30.83-21.19-41.1-36.85
					c-10.28-15.67-16.31-33.78-17.44-52.38c-1.1-18.03,2.4-36.2,10.1-52.55l2.49-5.28l5.83-0.18c18.07-0.55,36.12,3.47,52.23,11.66
					c16.61,8.44,30.83,21.19,41.1,36.85l0,0c10.28,15.67,16.31,33.78,17.44,52.38c1.1,18.03-2.4,36.2-10.1,52.55l-2.49,5.28
					l-5.83,0.18C596.77,471.11,595.67,471.13,594.57,471.13z M512.06,331.22c-10.54,26.78-7.54,56.61,8.4,80.91
					c15.94,24.29,42.11,38.92,70.87,39.92c10.54-26.78,7.54-56.61-8.4-80.91l0,0C566.99,346.84,540.82,332.21,512.06,331.22z" class="st8"></path>
			</g>
			<g>
				
					<ellipse ry="46.88" rx="83.64" cy="391.63" cx="648.31" class="st10" transform="matrix(0.5486 -0.8361 0.8361 0.5486 -34.7715 718.8578)"></ellipse>
				<path d="M605.43,471.13c-1.1,0-2.2-0.02-3.3-0.05l-5.83-0.18l-2.49-5.28c-7.7-16.35-11.2-34.52-10.1-52.55
					c1.13-18.6,7.16-36.71,17.44-52.38c10.28-15.67,24.49-28.41,41.1-36.85c16.1-8.19,34.15-12.22,52.23-11.66l5.83,0.18l2.49,5.28
					c7.7,16.35,11.2,34.52,10.1,52.55c-1.13,18.6-7.16,36.71-17.44,52.38c-10.28,15.67-24.49,28.41-41.1,36.85
					C639.24,467.11,622.39,471.13,605.43,471.13z M687.94,331.22c-28.76,0.99-54.93,15.62-70.87,39.92l0,0
					c-15.94,24.29-18.94,54.13-8.4,80.91c28.76-0.99,54.93-15.62,70.87-39.92C695.48,387.83,698.48,357.99,687.94,331.22z" class="st8"></path>
			</g>
			<g>
				<path d="M688.04,454.76c-20.43,26.17-52.26,42.99-88.03,42.99s-67.61-16.83-88.03-42.99
					c2.34-9.36,6.14-18.15,11.15-26.1c20.02,19.03,47.09,30.71,76.89,30.71s56.87-11.68,76.89-30.71
					C681.9,436.62,685.7,445.4,688.04,454.76z" class="st10"></path>
				<path d="M600.01,507.28c-18.98,0-37.15-4.27-54.02-12.69c-16.08-8.02-30.43-19.77-41.52-33.97l-2.86-3.66l1.13-4.51
					c2.55-10.21,6.7-19.92,12.32-28.86l6.19-9.84l8.43,8.01c19.05,18.11,44.03,28.09,70.33,28.09c26.3,0,51.28-9.97,70.33-28.09
					l8.43-8.01l6.19,9.84c5.62,8.94,9.77,18.65,12.32,28.86l1.13,4.51l-2.86,3.66c-11.09,14.2-25.44,25.95-41.52,33.97
					C637.16,503.01,618.99,507.28,600.01,507.28z M522.47,452.57c19.45,22.73,47.45,35.67,77.53,35.67s58.08-12.94,77.53-35.67
					c-0.96-3.06-2.1-6.07-3.42-8.99c-21.15,16.4-47.04,25.31-74.12,25.31s-52.97-8.91-74.12-25.31
					C524.57,446.51,523.43,449.51,522.47,452.57z" class="st8"></path>
			</g>
		</g>
	</g>
	<g>
		<g>
			<g>
				<path d="M504.9,847.8c-1.98,0-3.89-1.1-4.83-3c-0.02-0.03-3.12-6.05-10.97-12.72
					c-7.25-6.16-20.18-14.18-40.59-17.36c-27.99-4.36-53.78,0.18-70.48,4.76c-18.23,5-29.93,11.13-30.05,11.19
					c-2.62,1.39-5.88,0.39-7.27-2.24c-1.39-2.62-0.39-5.88,2.23-7.27c0.51-0.27,12.65-6.66,31.93-11.97
					c17.79-4.91,45.29-9.77,75.29-5.1c44.8,6.98,58.97,34.77,59.55,35.95c1.31,2.66,0.22,5.89-2.45,7.2
					C506.51,847.62,505.7,847.79,504.9,847.8z" class="st8"></path>
				<path d="M695.1,847.8c-0.8,0-1.61-0.18-2.37-0.56c-2.66-1.31-3.76-4.54-2.45-7.2c0.58-1.18,14.76-28.97,59.55-35.95
					c30-4.67,57.5,0.19,75.29,5.1c19.28,5.32,31.42,11.71,31.93,11.97c2.62,1.39,3.62,4.65,2.23,7.27
					c-1.39,2.62-4.65,3.62-7.27,2.23c-0.2-0.11-11.88-6.21-30.04-11.19c-16.7-4.58-42.48-9.12-70.48-4.76
					c-39.34,6.13-51.44,29.84-51.56,30.08C698.99,846.69,697.08,847.79,695.1,847.8z" class="st8"></path>
			</g>
			<g>
				<g>
					<path d="M493.94,932.42c-0.05,0-0.11,0-0.16,0c-4.28-0.08-7.37-3-11.65-7.05c-7.52-7.13-20.11-19.05-45.48-22.15
						c-45.66-5.58-67.69-18.9-86.44-40.46c-0.37-0.42-0.69-0.87-0.95-1.35c-0.03-0.06-0.06-0.11-0.07-0.15
						c-0.94-2.23-0.64-4.43,1.63-5.8c2.23-1.35,5.36-0.41,6.89,1.54c0.87,1.03,23.65,27.36,73.82,32.01
						c19.38,1.79,36.43,6.24,49.3,12.86c10.44,5.37,17.9,12.05,20.45,18.34c1.64,4.05,1.03,7.74-1.69,10.11
						C497.58,932.03,495.44,932.42,493.94,932.42z M357.72,857.02C357.72,857.02,357.73,857.02,357.72,857.02
						c0.02,0.03,0.04,0.05,0.06,0.08C357.76,857.07,357.74,857.04,357.72,857.02z" class="st8"></path>
				</g>
				<g>
					<path d="M700.43,930.3c-2.72-2.37-3.34-6.06-1.69-10.11c2.55-6.28,10-12.97,20.45-18.34
						c12.87-6.62,29.92-11.06,49.3-12.86c50.17-4.65,72.96-30.98,73.82-32.01c1.52-1.95,4.66-2.89,6.89-1.54
						c2.27,1.37,2.57,3.57,1.63,5.8c-0.02,0.04-0.04,0.09-0.07,0.15c-0.26,0.48-0.58,0.93-0.95,1.35
						c-18.75,21.56-40.78,34.88-86.44,40.46c-25.37,3.1-37.96,15.03-45.48,22.15c-4.28,4.05-7.37,6.98-11.65,7.05
						c-0.05,0-0.11,0-0.16,0C704.56,932.42,702.42,932.03,700.43,930.3z M842.22,857.09c0.02-0.02,0.04-0.05,0.06-0.07c0,0,0,0,0,0
						C842.26,857.04,842.24,857.07,842.22,857.09z" class="st8"></path>
				</g>
			</g>
		</g>
		<path d="M579.72,1116.88c1.94,8.2,12.38,13.41,20.74,13.41c8.28,0,19.35-4.72,20.59-13.17l1.2-13.55l-44.5,0.98
			L579.72,1116.88z" class="st11"></path>
		<ellipse ry="13.45" rx="3.67" cy="818.23" cx="600" class="st12"></ellipse>
		<g>
			<path d="M622.2,1087.11c-9.73-0.39-17.17,6.67-20.42,10.43c-0.94,1.09-2.63,1.09-3.57,0
				c-3.25-3.75-10.68-10.82-20.42-10.43c-11.73,0.47-15.96,10.1-16.77,12.26c-0.1,0.27-0.15,0.54-0.15,0.83l0,0
				c0,0.75,0.35,1.46,0.95,1.9c17.82,13.05,34.47,11.45,37.66,11.57c0.34,0.01,0.67,0.01,1.01,0c3.19-0.12,19.85,1.48,37.66-11.57
				c0.6-0.44,0.95-1.15,0.95-1.9l0,0c0-0.28-0.05-0.56-0.15-0.83C638.17,1097.21,633.93,1087.58,622.2,1087.11z" class="st11"></path>
			<path d="M643.55,1097.67c-2.66-7.16-9.62-14.98-21.16-15.44h0c-10.04-0.4-17.83,5.41-22.4,10.04
				c-4.57-4.63-12.35-10.44-22.4-10.04c-11.53,0.46-18.49,8.28-21.16,15.44c-0.3,0.81-0.46,1.66-0.46,2.53
				c0,2.31,1.1,4.49,2.95,5.84c5.32,3.89,10.55,6.58,15.41,8.43l0.55,3.18l0.07,0.35c2.54,10.75,14.96,17.17,25.49,17.17
				c9.5,0,23.67-5.38,25.43-17.35l0.31-3.57c4.7-1.84,9.74-4.47,14.86-8.22c1.85-1.35,2.95-3.54,2.95-5.84
				C644.01,1099.33,643.86,1098.48,643.55,1097.67z M600.46,1125.4c-5.76,0-12.89-3.27-15.31-7.89c5.98,1.11,10.65,1.07,13.08,1.04
				c0.46,0,0.82-0.01,1.07,0c0.23,0.01,0.47,0.01,0.7,0.01c0.23,0,0.46,0,0.69-0.01c0.26-0.01,0.62,0,1.07,0
				c2.59,0.03,7.7,0.07,14.24-1.27C614.5,1121.99,606.87,1125.4,600.46,1125.4z M601.87,1108.78c-0.62-0.01-1.12-0.01-1.55,0.01
				c-0.22,0.01-0.42,0.01-0.64,0c-0.22-0.01-0.45-0.01-0.71-0.01c-0.25,0-0.53,0-0.84,0.01c-4.44,0.05-17.6,0.18-31.73-9.44
				c1.48-2.77,4.84-7.07,11.59-7.34c7.82-0.32,14.16,6.01,16.52,8.74c1.38,1.59,3.38,2.51,5.48,2.51c2.11,0,4.1-0.91,5.48-2.51
				c2.36-2.73,8.7-9.04,16.52-8.74c6.75,0.27,10.12,4.57,11.59,7.34C619.46,1108.96,606.3,1108.82,601.87,1108.78z" class="st8"></path>
		</g>
	</g>
</g>
</svg>
